<svg width="40" height="36" viewBox="0 0 40 36" fill="none" xmlns="http://www.w3.org/2000/svg">
<path d="M17.5688 5.67859C17.5688 5.67859 5.41702 13.1129 0.924159 33.3168C0.589806 34.8202 2.30863 35.9307 3.53945 35.0049C8.92612 30.9533 20.3774 23.7176 36.2224 21.1166C38.0285 20.8202 38.9402 18.7824 37.9578 17.2381C35.5644 13.4761 29.9601 7.68471 17.5688 5.67859Z" fill="url(#paint0_linear_111_1172)"/>
<path d="M37.9283 17.1923C20.5182 19.3083 7.94867 27.2059 2.22562 31.5105C1.92428 31.7371 1.59377 31.8413 1.27126 31.8483C1.15134 32.3316 1.03448 32.8204 0.923576 33.3192C0.589537 34.8218 2.30938 35.9301 3.5395 35.0049C8.92711 30.9527 20.3815 23.7151 36.2309 21.1153C38.0263 20.8208 38.9419 18.7884 37.9666 17.2524C37.9539 17.2324 37.9411 17.2123 37.9283 17.1923Z" fill="url(#paint1_linear_111_1172)"/>
<path d="M38.597 18.6901C38.597 18.6901 35.4321 7.32906 16.4936 4.70349C16.4936 4.70349 4.39768 12.0345 0.0398792 31.4854C-0.284513 32.9335 1.44043 33.9673 2.66506 33.0586C3.13259 32.7116 3.64608 32.3407 4.20459 31.9509C4.90372 31.4627 5.86364 31.9637 5.86364 32.8164V32.8771C5.86364 33.7786 6.59439 34.5093 7.49588 34.5093C8.39737 34.5093 9.12811 33.7786 9.12811 32.8771V31.1672C9.12811 29.6824 9.93839 28.3162 11.2421 27.6056C14.4327 25.8664 18.2117 24.0939 22.5208 22.5561C23.2077 22.311 23.9309 22.8211 23.9309 23.5505C23.9309 24.452 24.6616 25.1827 25.5631 25.1827C26.4646 25.1827 27.1953 24.452 27.1953 23.5505V21.4496C27.1953 21.2133 27.3525 21.0058 27.58 20.9418L27.5906 20.9389C27.929 20.8436 28.2647 21.098 28.2647 21.4495V26.7682C28.2647 27.6697 28.9954 28.4004 29.8969 28.4004C30.7984 28.4004 31.5291 27.6697 31.5291 26.7682V22.2291C31.5291 20.8829 32.4798 19.7196 33.8014 19.4632C35.3558 19.1616 36.9549 18.9014 38.597 18.6901Z" fill="url(#paint2_linear_111_1172)"/>
<path d="M16.4935 4.70361C16.4935 4.70361 14.184 6.10354 11.2197 9.30252L26.6673 24.7501C26.9912 24.4519 27.1953 24.0256 27.1953 23.5506V21.4497C27.1953 21.2134 27.3525 21.006 27.58 20.942L27.5906 20.939C27.929 20.8438 28.2647 21.0981 28.2647 21.4496V26.3475L30.2725 28.3554C30.9926 28.1855 31.5291 27.5402 31.5291 26.7683V22.2291C31.5291 20.8829 32.4798 19.7197 33.8014 19.4632C35.3557 19.1616 36.9547 18.9013 38.5968 18.6901C38.5969 18.6901 35.432 7.3291 16.4935 4.70361Z" fill="url(#paint3_linear_111_1172)"/>
<path d="M20.4409 8.51749C20.2808 8.33607 20.0949 8.16368 19.8826 8.0036C18.152 6.69851 15.3459 6.69851 13.6153 8.0036C11.9746 9.24078 11.8904 11.2062 13.3603 12.5192L25.9705 25.1294C26.6744 24.9482 27.1953 24.311 27.1953 23.5505V21.4496C27.1953 21.2133 27.3524 21.0059 27.5799 20.9419L27.5906 20.9389C27.9289 20.8437 28.2646 21.098 28.2646 21.4495V26.7682C28.2646 27.1587 28.4021 27.5168 28.6307 27.7977C28.7419 27.913 28.8647 28.0239 28.9979 28.1301C29.2558 28.3006 29.5645 28.4005 29.8968 28.4005C30.7983 28.4005 31.529 27.6698 31.529 26.7683V22.2291C31.529 21.5081 31.8019 20.8398 32.2583 20.3349L20.4409 8.51749Z" fill="url(#paint4_linear_111_1172)"/>
<path d="M14.3343 13.7627C13.7341 13.0688 12.6501 12.6055 11.4125 12.6055C9.52407 12.6055 7.99316 13.6841 7.99316 15.0146C7.99316 15.5826 8.27277 16.1042 8.73936 16.5161L16.9739 24.7764C18.7098 24.0047 20.5598 23.256 22.5208 22.5561C22.7009 22.4918 22.8833 22.4806 23.0547 22.5106L14.3343 13.7627Z" fill="url(#paint5_linear_111_1172)"/>
<path d="M28.355 15.7192C27.7473 15.051 26.6848 14.6077 25.4748 14.6077C23.5864 14.6077 22.0555 15.6863 22.0555 17.0168C22.0555 17.0712 22.059 17.1249 22.064 17.1783C20.5884 16.3979 18.5394 16.5041 17.2211 17.4983C15.8332 18.5449 15.7495 20.2024 16.9696 21.323L19.3942 23.7475C20.4028 23.3386 21.4454 22.9401 22.521 22.5562C23.2079 22.3111 23.931 22.8212 23.931 23.5506C23.931 24.4521 24.6618 25.1828 25.5633 25.1828C26.4648 25.1828 27.1955 24.4521 27.1955 23.5506V21.4497C27.1955 21.2134 27.3527 21.0059 27.5801 20.9419L27.5908 20.939C27.9292 20.8437 28.2648 21.0981 28.2648 21.4495V26.7683C28.2648 27.6698 28.9956 28.4005 29.8971 28.4005C30.7986 28.4005 31.5293 27.6698 31.5293 26.7683V22.229C31.5293 21.3301 31.9536 20.5132 32.6288 19.993L28.355 15.7192Z" fill="url(#paint6_linear_111_1172)"/>
<path d="M16.7355 24.8831L13.9302 22.0779C13.3225 21.4096 12.26 20.9662 11.0498 20.9662C9.5685 20.9662 8.30748 21.63 7.83258 22.5584C6.44873 22.1039 4.77822 22.3027 3.64638 23.1562C2.25838 24.2029 2.17477 25.8605 3.39501 26.9809L9.12842 32.7143V31.1673C9.12842 29.6825 9.9387 28.3163 11.2424 27.6057C12.9141 26.6943 14.749 25.7742 16.7355 24.8831Z" fill="url(#paint7_linear_111_1172)"/>
<path d="M7.66845 18.068C7.74367 17.9262 7.68971 17.7503 7.54798 17.6751C7.40618 17.5998 7.23026 17.6538 7.15504 17.7955C7.07983 17.9373 7.13379 18.1133 7.27551 18.1885C7.41724 18.2638 7.59316 18.2098 7.66845 18.068Z" fill="#FFEAA2"/>
<path d="M6.71443 18.1852C6.60251 18.1259 6.46361 18.1685 6.40424 18.2804C6.34487 18.3923 6.38745 18.5312 6.49938 18.5906C6.6113 18.65 6.7502 18.6074 6.80957 18.4954C6.86894 18.3834 6.82636 18.2446 6.71443 18.1852Z" fill="#FFEAA2"/>
<path d="M6.9668 19.3814C6.89934 19.3456 6.81558 19.3713 6.77981 19.4387C6.74405 19.5062 6.7697 19.5899 6.83715 19.6257C6.9046 19.6615 6.98836 19.6358 7.02413 19.5684C7.05997 19.5009 7.03432 19.4172 6.9668 19.3814Z" fill="#FFEAA2"/>
<path d="M8.95015 19.7634C8.78968 19.7589 8.65596 19.8853 8.65149 20.0457C8.64694 20.2062 8.77337 20.3399 8.93376 20.3444C9.09423 20.3489 9.22796 20.2225 9.23243 20.0621C9.23698 19.9016 9.11062 19.7679 8.95015 19.7634Z" fill="#FFEAA2"/>
<path d="M10.4619 17.7076C10.3353 17.704 10.2297 17.8038 10.2262 17.9304C10.2226 18.0571 10.3224 18.1627 10.449 18.1663C10.5757 18.1699 10.6812 18.07 10.6848 17.9434C10.6884 17.8167 10.5886 17.7111 10.4619 17.7076Z" fill="#FFEAA2"/>
<path d="M8.33073 17.7947C8.25434 17.7926 8.19073 17.8528 8.18853 17.9291C8.18641 18.0055 8.24657 18.0691 8.32288 18.0713C8.39928 18.0734 8.46288 18.0132 8.46508 17.9369C8.46728 17.8605 8.40712 17.7969 8.33073 17.7947Z" fill="#FFEAA2"/>
<path d="M7.87414 18.9863C7.75854 19.0127 7.68614 19.1278 7.71242 19.2434C7.73877 19.359 7.85383 19.4314 7.96952 19.4052C8.08512 19.3788 8.15752 19.2638 8.13124 19.1481C8.10481 19.0325 7.98975 18.9601 7.87414 18.9863Z" fill="#FFEAA2"/>
<path d="M8.11486 18.3868C8.02357 18.4076 7.96639 18.4985 7.98718 18.5898C8.00796 18.6811 8.09886 18.7383 8.19016 18.7175C8.28145 18.6967 8.33863 18.6058 8.31784 18.5145C8.29698 18.4232 8.20616 18.3661 8.11486 18.3868Z" fill="#FFEAA2"/>
<path d="M7.42523 18.7185C7.48029 18.7059 7.51472 18.6512 7.50217 18.5961C7.48962 18.5411 7.43487 18.5066 7.37981 18.5192C7.32476 18.5317 7.29032 18.5865 7.30287 18.6415C7.31542 18.6966 7.37017 18.731 7.42523 18.7185Z" fill="#FFEAA2"/>
<path d="M13.0561 17.2096C13.1314 17.0678 13.0774 16.8919 12.9357 16.8167C12.7939 16.7414 12.618 16.7954 12.5427 16.9371C12.4675 17.0789 12.5215 17.2549 12.6632 17.3301C12.805 17.4053 12.9809 17.3513 13.0561 17.2096Z" fill="#FFEAA2"/>
<path d="M11.6495 19.7089C11.5376 19.6496 11.3987 19.6921 11.3393 19.8041C11.2799 19.916 11.3225 20.0549 11.4344 20.1143C11.5464 20.1736 11.6853 20.131 11.7446 20.0191C11.804 19.9072 11.7614 19.7683 11.6495 19.7089Z" fill="#FFEAA2"/>
<path d="M11.2866 18.4466C11.2192 18.4108 11.1354 18.4365 11.0996 18.5039C11.0639 18.5714 11.0895 18.6551 11.157 18.6909C11.2244 18.7268 11.3082 18.701 11.344 18.6336C11.3797 18.5661 11.3541 18.4824 11.2866 18.4466Z" fill="#FFEAA2"/>
<path d="M14.6391 17.6017C14.4786 17.5971 14.3449 17.7236 14.3405 17.884C14.3359 18.0444 14.4623 18.1782 14.6227 18.1826C14.7832 18.1872 14.9169 18.0607 14.9214 17.9003C14.9259 17.74 14.7996 17.6062 14.6391 17.6017Z" fill="#FFEAA2"/>
<path d="M14.6072 17.2138C14.6108 17.0871 14.511 16.9815 14.3843 16.978C14.2576 16.9745 14.1521 17.0742 14.1485 17.2008C14.1449 17.3275 14.2448 17.4331 14.3714 17.4367C14.498 17.4402 14.6036 17.3404 14.6072 17.2138Z" fill="#FFEAA2"/>
<path d="M13.7184 16.9362C13.642 16.9341 13.5784 16.9942 13.5762 17.0706C13.5741 17.147 13.6343 17.2106 13.7106 17.2128C13.787 17.2149 13.8506 17.1547 13.8528 17.0784C13.8549 17.002 13.7947 16.9384 13.7184 16.9362Z" fill="#FFEAA2"/>
<path d="M12.465 18.9438C12.3494 18.9701 12.277 19.0852 12.3032 19.2009C12.3296 19.3165 12.4446 19.3889 12.5603 19.3626C12.6759 19.3362 12.7483 19.2212 12.7221 19.1055C12.6957 18.9898 12.5806 18.9174 12.465 18.9438Z" fill="#FFEAA2"/>
<path d="M13.5026 17.5283C13.4113 17.5491 13.3541 17.64 13.3749 17.7312C13.3957 17.8225 13.4866 17.8797 13.5778 17.8589C13.6691 17.8381 13.7262 17.7472 13.7055 17.656C13.6848 17.5647 13.5939 17.5075 13.5026 17.5283Z" fill="#FFEAA2"/>
<path d="M12.8134 17.8601C12.8685 17.8475 12.9029 17.7928 12.8904 17.7377C12.8778 17.6827 12.8231 17.6482 12.768 17.6608C12.7129 17.6733 12.6785 17.7281 12.6911 17.7831C12.7035 17.8381 12.7584 17.8726 12.8134 17.8601Z" fill="#FFEAA2"/>
<path d="M16.0693 21.8721C16.1445 21.7303 16.0906 21.5544 15.9489 21.4791C15.8071 21.4039 15.6311 21.4579 15.5559 21.5996C15.4807 21.7414 15.5347 21.9173 15.6764 21.9926C15.8182 22.0678 15.9941 22.0139 16.0693 21.8721Z" fill="#FFEAA2"/>
<path d="M15.1153 21.9893C15.0034 21.9299 14.8645 21.9725 14.8051 22.0845C14.7457 22.1964 14.7883 22.3353 14.9003 22.3947C15.0122 22.454 15.1511 22.4114 15.2105 22.2995C15.2699 22.1875 15.2272 22.0487 15.1153 21.9893Z" fill="#FFEAA2"/>
<path d="M15.3677 23.1855C15.3002 23.1497 15.2165 23.1753 15.1807 23.2428C15.1449 23.3102 15.1706 23.394 15.238 23.4298C15.3055 23.4655 15.3892 23.4399 15.425 23.3724C15.4608 23.305 15.4351 23.2213 15.3677 23.1855Z" fill="#FFEAA2"/>
<path d="M17.351 23.5675C17.1906 23.563 17.0568 23.6894 17.0524 23.8498C17.0478 24.0102 17.1742 24.144 17.3346 24.1484C17.4951 24.153 17.6288 24.0266 17.6333 23.8662C17.6378 23.7058 17.5114 23.572 17.351 23.5675Z" fill="#FFEAA2"/>
<path d="M30.346 17.0169C30.2918 16.9024 30.155 16.8535 30.0405 16.9077C29.926 16.9619 29.8771 17.0988 29.9313 17.2133C29.9856 17.3278 30.1223 17.3767 30.2369 17.3225C30.3514 17.2683 30.4003 17.1314 30.346 17.0169Z" fill="#FFEAA2"/>
<path d="M16.7316 21.5989C16.6552 21.5968 16.5916 21.657 16.5894 21.7333C16.5873 21.8097 16.6474 21.8733 16.7238 21.8755C16.8002 21.8776 16.8638 21.8174 16.866 21.7411C16.8681 21.6647 16.8079 21.6011 16.7316 21.5989Z" fill="#FFEAA2"/>
<path d="M16.275 22.7904C16.1594 22.8168 16.087 22.9318 16.1133 23.0475C16.1396 23.1631 16.2547 23.2355 16.3704 23.2092C16.486 23.1829 16.5584 23.0678 16.5321 22.9522C16.5058 22.8365 16.3906 22.7641 16.275 22.7904Z" fill="#FFEAA2"/>
<path d="M16.5157 22.1909C16.4244 22.2117 16.3673 22.3026 16.3881 22.3939C16.4088 22.4852 16.4997 22.5424 16.591 22.5216C16.6823 22.5008 16.7394 22.4099 16.7186 22.3186C16.6979 22.2273 16.607 22.1701 16.5157 22.1909Z" fill="#FFEAA2"/>
<path d="M15.8261 22.5226C15.8812 22.51 15.9156 22.4553 15.903 22.4002C15.8905 22.3451 15.8358 22.3107 15.7807 22.3233C15.7256 22.3358 15.6912 22.3906 15.7038 22.4456C15.7163 22.5007 15.7711 22.5351 15.8261 22.5226Z" fill="#FFEAA2"/>
<path d="M16.0898 9.1941C16.1651 9.0523 16.1111 8.87638 15.9694 8.80116C15.8276 8.72594 15.6516 8.77991 15.5764 8.92163C15.5012 9.06343 15.5552 9.23936 15.6969 9.31457C15.8387 9.38987 16.0146 9.33591 16.0898 9.1941Z" fill="#FFEAA2"/>
<path d="M29.1004 18.9824C29.1026 18.8557 29.0016 18.7513 28.875 18.7491C28.7483 18.7469 28.6438 18.8478 28.6416 18.9745C28.6394 19.1011 28.7404 19.2056 28.8671 19.2078C28.9937 19.21 29.0982 19.1091 29.1004 18.9824Z" fill="#FFEAA2"/>
<path d="M30.0608 18.0868C30.0622 18.0104 30.0013 17.9474 29.9249 17.9461C29.8485 17.9447 29.7855 18.0056 29.7842 18.082C29.7829 18.1584 29.8437 18.2214 29.9201 18.2227C29.9965 18.224 30.0595 18.1632 30.0608 18.0868Z" fill="#FFEAA2"/>
<path d="M17.6728 9.58618C17.5123 9.58163 17.3786 9.70806 17.3741 9.86845C17.3696 10.0289 17.496 10.1626 17.6564 10.1671C17.8169 10.1717 17.9506 10.0452 17.9551 9.88485C17.9596 9.72445 17.8332 9.59073 17.6728 9.58618Z" fill="#FFEAA2"/>
<path d="M17.6404 9.19826C17.644 9.07159 17.5442 8.96603 17.4175 8.9625C17.2908 8.95889 17.1853 9.05873 17.1817 9.18532C17.1781 9.31199 17.278 9.41756 17.4046 9.42116C17.5312 9.42469 17.6368 9.32493 17.6404 9.19826Z" fill="#FFEAA2"/>
<path d="M16.7516 8.92083C16.6752 8.91871 16.6116 8.97879 16.6094 9.05518C16.6073 9.13158 16.6675 9.19518 16.7438 9.19738C16.8202 9.1995 16.8838 9.13934 16.886 9.06303C16.8882 8.98663 16.828 8.92295 16.7516 8.92083Z" fill="#FFEAA2"/>
<path d="M30.1522 19.3628C30.0763 19.2717 29.9409 19.2594 29.8498 19.3352C29.7586 19.4111 29.7463 19.5465 29.8222 19.6377C29.8981 19.7288 30.0335 19.7411 30.1246 19.6653C30.2157 19.5893 30.2281 19.454 30.1522 19.3628Z" fill="#FFEAA2"/>
<path d="M16.5358 9.51281C16.4445 9.5336 16.3873 9.6245 16.4081 9.71572C16.4289 9.80701 16.5198 9.86419 16.6111 9.8434C16.7023 9.82262 16.7595 9.73172 16.7387 9.6405C16.7179 9.54913 16.6271 9.49203 16.5358 9.51281Z" fill="#FFEAA2"/>
<path d="M15.8466 9.84457C15.9017 9.83203 15.9361 9.77728 15.9236 9.72222C15.911 9.66716 15.8563 9.63273 15.8012 9.64528C15.7461 9.65783 15.7117 9.71257 15.7243 9.76763C15.7368 9.82269 15.7916 9.85712 15.8466 9.84457Z" fill="#FFEAA2"/>
<path d="M24.019 15.2162C23.9338 15.3522 23.9749 15.5316 24.1109 15.6168C24.2469 15.7021 24.4263 15.661 24.5115 15.525C24.5968 15.389 24.5557 15.2096 24.4197 15.1244C24.2837 15.0391 24.1043 15.0802 24.019 15.2162Z" fill="#FFEAA2"/>
<path d="M24.9792 15.1682C25.0866 15.2355 25.2281 15.2031 25.2954 15.0957C25.3627 14.9883 25.3303 14.8467 25.2229 14.7794C25.1155 14.7122 24.9739 14.7446 24.9066 14.852C24.8394 14.9594 24.8718 15.1009 24.9792 15.1682Z" fill="#FFEAA2"/>
<path d="M24.8139 13.9569C24.8786 13.9974 24.964 13.9779 25.0045 13.9131C25.0451 13.8484 25.0256 13.763 24.9609 13.7224C24.8962 13.6819 24.8107 13.7014 24.7702 13.7661C24.7296 13.8309 24.7492 13.9163 24.8139 13.9569Z" fill="#FFEAA2"/>
<path d="M22.8631 13.4329C23.0227 13.449 23.1653 13.3326 23.1813 13.1729C23.1974 13.0132 23.081 12.8707 22.9213 12.8546C22.7616 12.8386 22.6191 12.9549 22.6031 13.1146C22.5869 13.2744 22.7034 13.4168 22.8631 13.4329Z" fill="#FFEAA2"/>
<path d="M21.2069 15.3743C21.333 15.3871 21.4455 15.2951 21.4582 15.1691C21.4709 15.0431 21.379 14.9305 21.253 14.9178C21.1269 14.9051 21.0144 14.997 21.0017 15.1231C20.989 15.2492 21.0809 15.3616 21.2069 15.3743Z" fill="#FFEAA2"/>
<path d="M23.3388 15.4411C23.4148 15.4488 23.4827 15.3933 23.4903 15.3173C23.498 15.2413 23.4425 15.1735 23.3665 15.1659C23.2905 15.1582 23.2227 15.2136 23.2151 15.2896C23.2074 15.3656 23.2628 15.4334 23.3388 15.4411Z" fill="#FFEAA2"/>
<path d="M23.88 14.2854C23.9973 14.2675 24.0777 14.1579 24.0598 14.0407C24.0419 13.9235 23.9323 13.843 23.8151 13.8609C23.6979 13.8788 23.6174 13.9884 23.6353 14.1056C23.6533 14.2229 23.7628 14.3034 23.88 14.2854Z" fill="#FFEAA2"/>
<path d="M23.597 14.8662C23.6895 14.852 23.7531 14.7655 23.739 14.673C23.7248 14.5804 23.6383 14.5169 23.5458 14.531C23.4532 14.5451 23.3897 14.6316 23.4038 14.7242C23.4179 14.8167 23.5044 14.8803 23.597 14.8662Z" fill="#FFEAA2"/>
<path d="M24.3084 14.5849C24.2527 14.5935 24.2143 14.6456 24.2229 14.7014C24.2314 14.7572 24.2836 14.7955 24.3393 14.787C24.3951 14.7784 24.4335 14.7263 24.4249 14.6705C24.4164 14.6147 24.3642 14.5764 24.3084 14.5849Z" fill="#FFEAA2"/>
<path d="M18.5835 15.684C18.4982 15.82 18.5393 15.9994 18.6753 16.0847C18.8113 16.1699 18.9907 16.1288 19.0759 15.9928C19.1611 15.8568 19.12 15.6775 18.984 15.5922C18.848 15.5069 18.6688 15.548 18.5835 15.684Z" fill="#FFEAA2"/>
<path d="M20.1667 13.2926C20.2741 13.3599 20.4156 13.3274 20.4829 13.2201C20.5502 13.1127 20.5178 12.9711 20.4104 12.9038C20.303 12.8365 20.1614 12.869 20.0941 12.9764C20.0269 13.0837 20.0593 13.2252 20.1667 13.2926Z" fill="#FFEAA2"/>
<path d="M20.4379 14.5777C20.5026 14.6183 20.588 14.5987 20.6286 14.5339C20.6691 14.4692 20.6496 14.3838 20.5848 14.3433C20.5201 14.3027 20.4347 14.3223 20.3941 14.387C20.3537 14.4518 20.3732 14.5372 20.4379 14.5777Z" fill="#FFEAA2"/>
<path d="M17.033 15.1789C17.1927 15.195 17.3352 15.0786 17.3513 14.9189C17.3673 14.7592 17.2509 14.6167 17.0913 14.6006C16.9316 14.5845 16.7891 14.7009 16.773 14.8606C16.7568 15.0203 16.8733 15.1628 17.033 15.1789Z" fill="#FFEAA2"/>
<path d="M17.0368 15.5681C17.0241 15.6941 17.116 15.8067 17.2421 15.8193C17.3681 15.832 17.4807 15.7401 17.4933 15.614C17.506 15.488 17.4141 15.3754 17.288 15.3627C17.162 15.3501 17.0495 15.442 17.0368 15.5681Z" fill="#FFEAA2"/>
<path d="M17.9033 15.9089C17.9793 15.9165 18.0471 15.8611 18.0547 15.7851C18.0624 15.7091 18.007 15.6413 17.931 15.6336C17.855 15.626 17.7871 15.6814 17.7795 15.7574C17.7718 15.8334 17.8273 15.9013 17.9033 15.9089Z" fill="#FFEAA2"/>
<path d="M19.298 13.9969C19.4152 13.9789 19.4957 13.8693 19.4778 13.7522C19.4599 13.6349 19.3503 13.5544 19.2331 13.5723C19.1159 13.5903 19.0354 13.6998 19.0533 13.817C19.0712 13.9343 19.1807 14.0148 19.298 13.9969Z" fill="#FFEAA2"/>
<path d="M18.1614 15.334C18.254 15.3199 18.3175 15.2334 18.3034 15.1409C18.2893 15.0483 18.2028 14.9848 18.1102 14.9989C18.0177 15.0131 17.9542 15.0995 17.9683 15.1921C17.9824 15.2846 18.0689 15.3482 18.1614 15.334Z" fill="#FFEAA2"/>
<path d="M18.8729 15.0528C18.8171 15.0614 18.7788 15.1135 18.7873 15.1693C18.7959 15.2251 18.848 15.2634 18.9038 15.2549C18.9596 15.2463 18.9979 15.1942 18.9894 15.1384C18.9808 15.0826 18.9287 15.0443 18.8729 15.0528Z" fill="#FFEAA2"/>
<path d="M7.53373 28.9957C7.51099 29.1546 7.62134 29.3018 7.78024 29.3245C7.93914 29.3473 8.08636 29.2369 8.1091 29.078C8.13185 28.9191 8.0215 28.7719 7.86259 28.7492C7.70369 28.7265 7.55648 28.8369 7.53373 28.9957Z" fill="#FFEAA2"/>
<path d="M8.39176 28.5624C8.51717 28.5803 8.63341 28.4932 8.65137 28.3678C8.66933 28.2424 8.58219 28.1261 8.45678 28.1082C8.33137 28.0902 8.21513 28.1774 8.19717 28.3028C8.17921 28.4281 8.26635 28.5444 8.39176 28.5624Z" fill="#FFEAA2"/>
<path d="M7.74959 27.5222C7.8252 27.5331 7.89531 27.4805 7.90614 27.4049C7.91696 27.3293 7.86441 27.2592 7.7888 27.2484C7.7132 27.2375 7.64308 27.2901 7.63225 27.3657C7.62151 27.4413 7.67398 27.5114 7.74959 27.5222Z" fill="#FFEAA2"/>
<path d="M5.75398 27.8347C5.90645 27.7845 5.98951 27.6204 5.9394 27.4678C5.88928 27.3154 5.72512 27.2323 5.57257 27.2824C5.4201 27.3325 5.33704 27.4967 5.38716 27.6492C5.43728 27.8017 5.60143 27.8848 5.75398 27.8347Z" fill="#FFEAA2"/>
<path d="M5.02765 30.2812C5.14804 30.2416 5.21353 30.112 5.174 29.9916C5.13447 29.8712 5.00483 29.8057 4.88443 29.8453C4.76404 29.8848 4.69855 30.0144 4.73808 30.1348C4.77761 30.2551 4.90726 30.3207 5.02765 30.2812Z" fill="#FFEAA2"/>
<path d="M7.00331 29.477C7.07586 29.4532 7.11539 29.375 7.09155 29.3025C7.0677 29.2299 6.98951 29.1904 6.91696 29.2142C6.84441 29.2381 6.80488 29.3163 6.82872 29.3888C6.85257 29.4614 6.93076 29.5009 7.00331 29.477Z" fill="#FFEAA2"/>
<path d="M7.0293 28.2014C7.12914 28.1375 7.15832 28.0046 7.09432 27.9047C7.0304 27.8049 6.89754 27.7757 6.79769 27.8397C6.69785 27.9037 6.66867 28.0365 6.73267 28.1364C6.79667 28.2362 6.92946 28.2653 7.0293 28.2014Z" fill="#FFEAA2"/>
<path d="M7.00609 28.8469C7.08491 28.7964 7.10797 28.6915 7.05746 28.6127C7.00695 28.5339 6.90209 28.5108 6.82327 28.5613C6.74444 28.6118 6.72139 28.7167 6.7719 28.7955C6.82241 28.8743 6.92727 28.8973 7.00609 28.8469Z" fill="#FFEAA2"/>
<path d="M7.54223 28.3013C7.4947 28.3317 7.48082 28.3949 7.51125 28.4425C7.54168 28.49 7.6049 28.5039 7.65243 28.4734C7.69996 28.443 7.71384 28.3798 7.68341 28.3323C7.65306 28.2847 7.58984 28.2709 7.54223 28.3013Z" fill="#FFEAA2"/>
<path d="M2.75541 31.6285C2.73267 31.7874 2.84302 31.9346 3.00192 31.9574C3.16082 31.9801 3.30804 31.8698 3.33078 31.7109C3.35353 31.552 3.24318 31.4047 3.08427 31.382C2.92545 31.3593 2.77824 31.4696 2.75541 31.6285Z" fill="#FFEAA2"/>
<path d="M3.23258 28.8004C3.35799 28.8184 3.47423 28.7312 3.49219 28.6058C3.51015 28.4804 3.42301 28.3642 3.2976 28.3462C3.17219 28.3283 3.05595 28.4154 3.03799 28.5408C3.02003 28.6662 3.10717 28.7825 3.23258 28.8004Z" fill="#FFEAA2"/>
<path d="M4.00156 29.865C4.07717 29.8758 4.14728 29.8233 4.15811 29.7477C4.16893 29.6721 4.11638 29.602 4.04077 29.5911C3.96517 29.5803 3.89505 29.6329 3.88423 29.7085C3.8734 29.7841 3.92595 29.8542 4.00156 29.865Z" fill="#FFEAA2"/>
<path d="M1.13338 31.7958C1.28585 31.7457 1.36883 31.5816 1.31879 31.429C1.26867 31.2765 1.10452 31.1935 0.951967 31.2436C0.799496 31.2937 0.716437 31.4579 0.766555 31.6104C0.816673 31.7629 0.980908 31.846 1.13338 31.7958Z" fill="#FFEAA2"/>
<path d="M1.2952 32.15C1.33473 32.2704 1.46438 32.3358 1.58477 32.2963C1.70516 32.2568 1.77065 32.1271 1.73112 32.0067C1.69159 31.8864 1.56195 31.8209 1.44155 31.8604C1.32124 31.8999 1.25567 32.0296 1.2952 32.15Z" fill="#FFEAA2"/>
<path d="M2.22499 32.11C2.29754 32.0861 2.33707 32.008 2.31323 31.9354C2.28938 31.8628 2.21119 31.8233 2.13864 31.8472C2.06609 31.871 2.02656 31.9492 2.0504 32.0217C2.07425 32.0943 2.15244 32.1338 2.22499 32.11Z" fill="#FFEAA2"/>
<path d="M2.72413 29.7966C2.82397 29.7327 2.85315 29.5998 2.78915 29.5C2.72522 29.4001 2.59236 29.3709 2.49252 29.4349C2.39267 29.4989 2.3635 29.6317 2.4275 29.7316C2.49142 29.8314 2.62428 29.8605 2.72413 29.7966Z" fill="#FFEAA2"/>
<path d="M2.22777 31.4798C2.30659 31.4293 2.32965 31.3245 2.27914 31.2456C2.22863 31.1668 2.12377 31.1438 2.04495 31.1942C1.96612 31.2447 1.94307 31.3495 1.99357 31.4284C2.04408 31.5073 2.14895 31.5303 2.22777 31.4798Z" fill="#FFEAA2"/>
<path d="M2.76391 30.9342C2.71638 30.9647 2.7025 31.0279 2.73293 31.0754C2.76336 31.1229 2.82658 31.1368 2.87411 31.1064C2.92164 31.0759 2.93552 31.0127 2.90509 30.9652C2.87466 30.9177 2.81144 30.9038 2.76391 30.9342Z" fill="#FFEAA2"/>
<path d="M17.0621 15.374C18.0567 15.374 18.863 14.8059 18.863 14.1052C18.863 13.4044 18.0567 12.8363 17.0621 12.8363C16.0675 12.8363 15.2612 13.4044 15.2612 14.1052C15.2612 14.8059 16.0675 15.374 17.0621 15.374Z" fill="url(#paint8_linear_111_1172)"/>
<path d="M16.8708 13.6261C17.0297 13.6261 17.1585 13.4972 17.1585 13.3383C17.1585 13.1794 17.0297 13.0505 16.8708 13.0505C16.7118 13.0505 16.583 13.1794 16.583 13.3383C16.583 13.4972 16.7118 13.6261 16.8708 13.6261Z" fill="url(#paint9_linear_111_1172)"/>
<path d="M16.3365 14.3095C16.462 14.3095 16.5636 14.2078 16.5636 14.0824C16.5636 13.9569 16.462 13.8552 16.3365 13.8552C16.2111 13.8552 16.1094 13.9569 16.1094 14.0824C16.1094 14.2078 16.2111 14.3095 16.3365 14.3095Z" fill="url(#paint10_linear_111_1172)"/>
<path d="M17.3264 14.4099C17.402 14.4099 17.4633 14.3486 17.4633 14.2729C17.4633 14.1973 17.402 14.136 17.3264 14.136C17.2508 14.136 17.1895 14.1973 17.1895 14.2729C17.1895 14.3486 17.2508 14.4099 17.3264 14.4099Z" fill="url(#paint11_linear_111_1172)"/>
<path d="M9.60409 21.8342C10.5987 21.8342 11.4049 21.2661 11.4049 20.5654C11.4049 19.8646 10.5987 19.2965 9.60409 19.2965C8.6095 19.2965 7.80322 19.8646 7.80322 20.5654C7.80322 21.2661 8.6095 21.8342 9.60409 21.8342Z" fill="url(#paint12_linear_111_1172)"/>
<path d="M9.41276 20.0863C9.57169 20.0863 9.70053 19.9574 9.70053 19.7985C9.70053 19.6396 9.57169 19.5107 9.41276 19.5107C9.25384 19.5107 9.125 19.6396 9.125 19.7985C9.125 19.9574 9.25384 20.0863 9.41276 20.0863Z" fill="url(#paint13_linear_111_1172)"/>
<path d="M8.8785 20.7697C9.00395 20.7697 9.10564 20.668 9.10564 20.5426C9.10564 20.4171 9.00395 20.3154 8.8785 20.3154C8.75306 20.3154 8.65137 20.4171 8.65137 20.5426C8.65137 20.668 8.75306 20.7697 8.8785 20.7697Z" fill="url(#paint14_linear_111_1172)"/>
<path d="M9.86887 20.8701C9.9445 20.8701 10.0058 20.8088 10.0058 20.7331C10.0058 20.6575 9.9445 20.5962 9.86887 20.5962C9.79324 20.5962 9.73193 20.6575 9.73193 20.7331C9.73193 20.8088 9.79324 20.8701 9.86887 20.8701Z" fill="url(#paint15_linear_111_1172)"/>
<path d="M18.8883 23.6919C19.8829 23.6919 20.6891 23.1238 20.6891 22.423C20.6891 21.7223 19.8829 21.1542 18.8883 21.1542C17.8937 21.1542 17.0874 21.7223 17.0874 22.423C17.0874 23.1238 17.8937 23.6919 18.8883 23.6919Z" fill="url(#paint16_linear_111_1172)"/>
<path d="M18.6969 21.9439C18.8559 21.9439 18.9847 21.8151 18.9847 21.6562C18.9847 21.4972 18.8559 21.3684 18.6969 21.3684C18.538 21.3684 18.4092 21.4972 18.4092 21.6562C18.4092 21.8151 18.538 21.9439 18.6969 21.9439Z" fill="url(#paint17_linear_111_1172)"/>
<path d="M18.1627 22.6274C18.2881 22.6274 18.3898 22.5257 18.3898 22.4002C18.3898 22.2748 18.2881 22.1731 18.1627 22.1731C18.0372 22.1731 17.9355 22.2748 17.9355 22.4002C17.9355 22.5257 18.0372 22.6274 18.1627 22.6274Z" fill="url(#paint18_linear_111_1172)"/>
<path d="M19.1526 22.7277C19.2282 22.7277 19.2895 22.6664 19.2895 22.5908C19.2895 22.5152 19.2282 22.4539 19.1526 22.4539C19.0769 22.4539 19.0156 22.5152 19.0156 22.5908C19.0156 22.6664 19.0769 22.7277 19.1526 22.7277Z" fill="url(#paint19_linear_111_1172)"/>
<path d="M32.1695 19.4916C33.1641 19.4916 33.9704 18.9235 33.9704 18.2227C33.9704 17.5219 33.1641 16.9539 32.1695 16.9539C31.1749 16.9539 30.3687 17.5219 30.3687 18.2227C30.3687 18.9235 31.1749 19.4916 32.1695 19.4916Z" fill="url(#paint20_linear_111_1172)"/>
<path d="M31.9782 17.7437C32.1371 17.7437 32.266 17.6149 32.266 17.456C32.266 17.2971 32.1371 17.1682 31.9782 17.1682C31.8193 17.1682 31.6904 17.2971 31.6904 17.456C31.6904 17.6149 31.8193 17.7437 31.9782 17.7437Z" fill="url(#paint21_linear_111_1172)"/>
<path d="M31.4439 18.4272C31.5694 18.4272 31.6711 18.3255 31.6711 18.2C31.6711 18.0746 31.5694 17.9729 31.4439 17.9729C31.3185 17.9729 31.2168 18.0746 31.2168 18.2C31.2168 18.3255 31.3185 18.4272 31.4439 18.4272Z" fill="url(#paint22_linear_111_1172)"/>
<path d="M32.4338 18.5275C32.5094 18.5275 32.5708 18.4662 32.5708 18.3906C32.5708 18.315 32.5094 18.2537 32.4338 18.2537C32.3582 18.2537 32.2969 18.315 32.2969 18.3906C32.2969 18.4662 32.3582 18.5275 32.4338 18.5275Z" fill="url(#paint23_linear_111_1172)"/>
<path d="M17.1588 7.82813C18.1534 7.82813 18.9596 7.26004 18.9596 6.55927C18.9596 5.85849 18.1534 5.29041 17.1588 5.29041C16.1642 5.29041 15.3579 5.85849 15.3579 6.55927C15.3579 7.26004 16.1642 7.82813 17.1588 7.82813Z" fill="url(#paint24_linear_111_1172)"/>
<path d="M16.9675 6.08017C17.1264 6.08017 17.2552 5.95133 17.2552 5.7924C17.2552 5.63348 17.1264 5.50464 16.9675 5.50464C16.8085 5.50464 16.6797 5.63348 16.6797 5.7924C16.6797 5.95133 16.8085 6.08017 16.9675 6.08017Z" fill="url(#paint25_linear_111_1172)"/>
<path d="M16.4332 6.7636C16.5586 6.7636 16.6603 6.66191 16.6603 6.53646C16.6603 6.41102 16.5586 6.30933 16.4332 6.30933C16.3077 6.30933 16.2061 6.41102 16.2061 6.53646C16.2061 6.66191 16.3077 6.7636 16.4332 6.7636Z" fill="url(#paint26_linear_111_1172)"/>
<path d="M17.4231 6.86397C17.4987 6.86397 17.56 6.80266 17.56 6.72703C17.56 6.6514 17.4987 6.59009 17.4231 6.59009C17.3474 6.59009 17.2861 6.6514 17.2861 6.72703C17.2861 6.80266 17.3474 6.86397 17.4231 6.86397Z" fill="url(#paint27_linear_111_1172)"/>
<path d="M19.8828 8.0036C18.1521 6.69851 15.346 6.69851 13.6154 8.0036C11.8847 9.3087 11.8847 11.4247 13.6154 12.7298C15.346 14.0349 18.1521 14.0349 19.8828 12.7298C21.6134 11.4247 21.6134 9.3087 19.8828 8.0036ZM14.7591 11.2164C13.6602 10.4925 13.6602 9.31866 14.7591 8.5949C15.858 7.87105 17.6397 7.87137 18.7386 8.59521C19.8375 9.31906 19.8379 10.4926 18.7391 11.2164C17.6401 11.9402 15.8579 11.9402 14.7591 11.2164Z" fill="url(#paint28_linear_111_1172)"/>
<path d="M14.1423 11.9924C15.5817 13.0388 17.9162 13.0388 19.3556 11.9924C20.7954 10.9457 20.795 9.24912 19.3556 8.20285C17.9158 7.15618 15.5821 7.15618 14.1423 8.20285C12.7028 9.24912 12.7023 10.9457 14.1423 11.9924ZM18.7389 8.59485C19.8378 9.31869 19.8378 10.4926 18.7389 11.2163C17.64 11.9402 15.8583 11.9399 14.7594 11.216C13.6605 10.4922 13.6601 9.31861 14.7589 8.59485C15.8579 7.87108 17.64 7.87108 18.7389 8.59485Z" fill="url(#paint29_linear_111_1172)"/>
<path d="M2.50516 28.1747C3.15347 28.4249 3.98022 28.2394 4.35182 27.7604C4.42492 27.6661 4.39253 27.5554 4.29073 27.4419C4.17818 27.3164 4.21857 27.1508 4.37308 27.0498L4.3992 27.0328C4.5988 26.9023 4.55308 26.6718 4.31018 26.5848L3.34351 26.2384C3.10061 26.1513 2.80861 26.2606 2.77574 26.4509C2.75041 26.5976 2.57974 26.7111 2.37002 26.7197C2.20225 26.7265 2.07104 26.7676 2.00414 26.8539C1.63245 27.3331 1.85684 27.9244 2.50516 28.1747Z" fill="url(#paint30_linear_111_1172)"/>
<path d="M8.9956 23.1563C7.51834 22.0423 5.12328 22.0423 3.64603 23.1563C2.16877 24.2702 2.16877 26.0763 3.64603 27.1903C5.12328 28.3043 7.51834 28.3043 8.9956 27.1903C10.4728 26.0763 10.4728 24.2702 8.9956 23.1563ZM4.62218 25.8985C3.68422 25.2807 3.68422 24.2788 4.62218 23.661C5.56014 23.0432 7.08093 23.0434 8.01889 23.6612C8.95685 24.279 8.95724 25.2807 8.01928 25.8985C7.0814 26.5163 5.56014 26.5163 4.62218 25.8985Z" fill="url(#paint31_linear_111_1172)"/>
<path d="M4.09593 26.5609C5.32456 27.454 7.31719 27.454 8.54582 26.5609C9.77484 25.6676 9.77444 24.2193 8.54582 23.3263C7.3168 22.4329 5.32495 22.4329 4.09593 23.3263C2.86731 24.2194 2.86691 25.6676 4.09593 26.5609ZM8.01946 23.6609C8.95742 24.2787 8.95742 25.2807 8.01946 25.8985C7.0815 26.5163 5.56072 26.5161 4.62276 25.8983C3.6848 25.2804 3.6844 24.2787 4.62237 23.6609C5.56025 23.0431 7.0815 23.0431 8.01946 23.6609Z" fill="url(#paint32_linear_111_1172)"/>
<path d="M26.6467 19.1587C25.9984 18.9084 25.1717 19.0939 24.8001 19.5729C24.727 19.6672 24.7594 19.778 24.8612 19.8915C24.9737 20.017 24.9333 20.1825 24.7788 20.2835L24.7527 20.3006C24.5531 20.4311 24.5988 20.6615 24.8417 20.7486L25.8084 21.095C26.0513 21.182 26.3433 21.0727 26.3761 20.8824C26.4015 20.7358 26.5722 20.6222 26.7819 20.6137C26.9496 20.6068 27.0809 20.5657 27.1478 20.4795C27.5194 20.0002 27.2951 19.409 26.6467 19.1587Z" fill="url(#paint33_linear_111_1172)"/>
<path d="M25.4745 19.426C27.3629 19.426 28.8938 18.3474 28.8938 17.0168C28.8938 15.6863 27.3629 14.6077 25.4745 14.6077C23.586 14.6077 22.0552 15.6863 22.0552 17.0168C22.0552 18.3474 23.586 19.426 25.4745 19.426Z" fill="url(#paint34_linear_111_1172)"/>
<path d="M25.1117 16.1073C25.4134 16.1073 25.658 15.8627 25.658 15.561C25.658 15.2593 25.4134 15.0148 25.1117 15.0148C24.81 15.0148 24.5654 15.2593 24.5654 15.561C24.5654 15.8627 24.81 16.1073 25.1117 16.1073Z" fill="url(#paint35_linear_111_1172)"/>
<path d="M24.0973 17.4051C24.3355 17.4051 24.5286 17.212 24.5286 16.9738C24.5286 16.7356 24.3355 16.5425 24.0973 16.5425C23.8591 16.5425 23.666 16.7356 23.666 16.9738C23.666 17.212 23.8591 17.4051 24.0973 17.4051Z" fill="url(#paint36_linear_111_1172)"/>
<path d="M25.9773 17.5957C26.1209 17.5957 26.2373 17.4793 26.2373 17.3357C26.2373 17.1921 26.1209 17.0757 25.9773 17.0757C25.8337 17.0757 25.7173 17.1921 25.7173 17.3357C25.7173 17.4793 25.8337 17.5957 25.9773 17.5957Z" fill="url(#paint37_linear_111_1172)"/>
<path d="M11.0497 25.7845C12.9381 25.7845 14.469 24.7059 14.469 23.3754C14.469 22.0448 12.9381 20.9662 11.0497 20.9662C9.16124 20.9662 7.63037 22.0448 7.63037 23.3754C7.63037 24.7059 9.16124 25.7845 11.0497 25.7845Z" fill="url(#paint38_linear_111_1172)"/>
<path d="M10.6869 22.4658C10.9886 22.4658 11.2332 22.2213 11.2332 21.9196C11.2332 21.6179 10.9886 21.3733 10.6869 21.3733C10.3852 21.3733 10.1406 21.6179 10.1406 21.9196C10.1406 22.2213 10.3852 22.4658 10.6869 22.4658Z" fill="url(#paint39_linear_111_1172)"/>
<path d="M9.67251 23.7636C9.9107 23.7636 10.1038 23.5705 10.1038 23.3323C10.1038 23.0941 9.9107 22.901 9.67251 22.901C9.43431 22.901 9.24121 23.0941 9.24121 23.3323C9.24121 23.5705 9.43431 23.7636 9.67251 23.7636Z" fill="url(#paint40_linear_111_1172)"/>
<path d="M11.5525 23.9542C11.6961 23.9542 11.8125 23.8378 11.8125 23.6942C11.8125 23.5506 11.6961 23.4342 11.5525 23.4342C11.4089 23.4342 11.2925 23.5506 11.2925 23.6942C11.2925 23.8378 11.4089 23.9542 11.5525 23.9542Z" fill="url(#paint41_linear_111_1172)"/>
<path d="M18.3342 16.0892C17.6859 15.8389 16.8592 16.0244 16.4876 16.5035C16.4145 16.5978 16.4469 16.7085 16.5487 16.822C16.6612 16.9475 16.6208 17.1131 16.4663 17.2141L16.4402 17.2311C16.2406 17.3616 16.2863 17.592 16.5292 17.6791L17.4959 18.0255C17.7388 18.1126 18.0308 18.0033 18.0637 17.813C18.089 17.6663 18.2596 17.5527 18.4694 17.5442C18.6371 17.5374 18.7684 17.4963 18.8353 17.41C19.2069 16.9309 18.9826 16.3396 18.3342 16.0892Z" fill="url(#paint42_linear_111_1172)"/>
<path d="M19.3033 23.6566C20.0975 23.5244 20.6893 23.0229 20.6893 22.4229C20.6893 21.7221 19.883 21.1541 18.8884 21.1541C18.2556 21.1541 17.7002 21.3845 17.3789 21.7322L19.3033 23.6566Z" fill="url(#paint43_linear_111_1172)"/>
<path d="M22.5703 17.4982C21.0931 16.3842 18.698 16.3842 17.2207 17.4982C15.7435 18.6122 15.7435 20.4183 17.2207 21.5322C18.698 22.6462 21.0931 22.6462 22.5703 21.5322C24.0476 20.4183 24.0476 18.6122 22.5703 17.4982ZM18.197 20.2405C17.259 19.6227 17.259 18.6207 18.197 18.0029C19.1349 17.3851 20.6557 17.3853 21.5937 18.0031C22.5316 18.6209 22.532 19.6227 21.5941 20.2405C20.6561 20.8583 19.1349 20.8583 18.197 20.2405Z" fill="url(#paint44_linear_111_1172)"/>
<path d="M17.6706 20.9028C18.8993 21.7959 20.8919 21.7959 22.1205 20.9028C23.3495 20.0095 23.3492 18.5613 22.1205 17.6682C20.8915 16.7748 18.8997 16.7748 17.6706 17.6682C16.442 18.5613 16.4416 20.0095 17.6706 20.9028ZM21.5941 18.0029C22.5321 18.6207 22.5321 19.6227 21.5941 20.2405C20.6561 20.8583 19.1353 20.8581 18.1974 20.2402C17.2594 19.6224 17.259 18.6207 18.197 18.0029C19.135 17.385 20.6561 17.385 21.5941 18.0029Z" fill="url(#paint45_linear_111_1172)"/>
<path d="M5.96793 19.8546C5.10597 19.8546 4.40723 20.3523 4.40723 20.9662C4.40723 21.5802 5.10597 22.0778 5.96793 22.0778C6.82989 22.0778 7.52864 21.5802 7.52864 20.9662C7.52864 20.3523 6.82989 19.8546 5.96793 19.8546ZM5.96793 21.4381C5.60205 21.4381 5.3055 21.2269 5.3055 20.9662C5.3055 20.7057 5.60205 20.4944 5.96793 20.4944C6.33382 20.4944 6.63036 20.7056 6.63036 20.9662C6.63044 21.2269 6.33382 21.4381 5.96793 21.4381Z" fill="url(#paint46_linear_111_1172)"/>
<path d="M13.8781 17.6881C13.0161 17.6881 12.3174 18.1858 12.3174 18.7997C12.3174 19.4137 13.0161 19.9113 13.8781 19.9113C14.74 19.9113 15.4388 19.4137 15.4388 18.7997C15.4388 18.1858 14.74 17.6881 13.8781 17.6881ZM13.8781 19.2715C13.5122 19.2715 13.2157 19.0603 13.2157 18.7996C13.2157 18.5391 13.5122 18.3278 13.8781 18.3278C14.244 18.3278 14.5405 18.539 14.5405 18.7996C14.5405 19.0603 14.2439 19.2715 13.8781 19.2715Z" fill="url(#paint47_linear_111_1172)"/>
<path d="M23.9518 12.0946C23.0899 12.0946 22.3911 12.5923 22.3911 13.2062C22.3911 13.8202 23.0899 14.3178 23.9518 14.3178C24.8138 14.3178 25.5125 13.8202 25.5125 13.2062C25.5125 12.5923 24.8138 12.0946 23.9518 12.0946ZM23.9518 13.6781C23.5859 13.6781 23.2894 13.4668 23.2894 13.2062C23.2894 12.9456 23.5859 12.7344 23.9518 12.7344C24.3177 12.7344 24.6143 12.9456 24.6143 13.2062C24.6143 13.4668 24.3177 13.6781 23.9518 13.6781Z" fill="url(#paint48_linear_111_1172)"/>
<path d="M2.88053 28.4907C2.01857 28.4907 1.31982 28.9884 1.31982 29.6023C1.31982 30.2163 2.01857 30.7139 2.88053 30.7139C3.74249 30.7139 4.44124 30.2163 4.44124 29.6023C4.44124 28.9884 3.74249 28.4907 2.88053 28.4907ZM2.88053 30.0741C2.51465 30.0741 2.2181 29.8629 2.2181 29.6023C2.2181 29.3417 2.51465 29.1304 2.88053 29.1304C3.24641 29.1304 3.54296 29.3416 3.54296 29.6023C3.54296 29.8629 3.24641 30.0741 2.88053 30.0741Z" fill="url(#paint49_linear_111_1172)"/>
<path d="M11.4125 17.4238C13.3009 17.4238 14.8318 16.3452 14.8318 15.0146C14.8318 13.6841 13.3009 12.6055 11.4125 12.6055C9.52403 12.6055 7.99316 13.6841 7.99316 15.0146C7.99316 16.3452 9.52403 17.4238 11.4125 17.4238Z" fill="url(#paint50_linear_111_1172)"/>
<path d="M11.0497 14.1051C11.3514 14.1051 11.596 13.8605 11.596 13.5588C11.596 13.2571 11.3514 13.0126 11.0497 13.0126C10.748 13.0126 10.5034 13.2571 10.5034 13.5588C10.5034 13.8605 10.748 14.1051 11.0497 14.1051Z" fill="url(#paint51_linear_111_1172)"/>
<path d="M10.0353 15.4029C10.2735 15.4029 10.4666 15.2098 10.4666 14.9716C10.4666 14.7334 10.2735 14.5403 10.0353 14.5403C9.7971 14.5403 9.604 14.7334 9.604 14.9716C9.604 15.2098 9.7971 15.4029 10.0353 15.4029Z" fill="url(#paint52_linear_111_1172)"/>
<path d="M11.9153 15.5935C12.0589 15.5935 12.1753 15.4771 12.1753 15.3335C12.1753 15.1899 12.0589 15.0735 11.9153 15.0735C11.7717 15.0735 11.6553 15.1899 11.6553 15.3335C11.6553 15.4771 11.7717 15.5935 11.9153 15.5935Z" fill="url(#paint53_linear_111_1172)"/>
<path d="M23.5618 8.81737C22.9135 8.56709 22.0867 8.75258 21.7151 9.23164C21.642 9.32592 21.6744 9.43666 21.7762 9.55015C21.8888 9.67564 21.8484 9.84121 21.6939 9.94223L21.6677 9.95925C21.4681 10.0898 21.5139 10.3202 21.7568 10.4072L22.7234 10.7537C22.9663 10.8407 23.2583 10.7314 23.2912 10.5411C23.3165 10.3945 23.4872 10.2809 23.6969 10.2723C23.8647 10.2655 23.9959 10.2244 24.0628 10.1382C24.4344 9.65894 24.2101 9.06764 23.5618 8.81737Z" fill="url(#paint54_linear_111_1172)"/>
<path d="M16.8465 6.1823C19.78 7.29751 22.5542 8.95297 26.1079 11.5632C29.6617 14.1735 32.3956 18.0816 34.4241 20.6111C35.5137 21.9698 38.5138 21.7229 39.5046 20.1748C40.1661 19.141 40.1682 17.0523 39.494 16.0962C37.5048 13.275 34.1551 9.96081 30.0175 6.92167C25.8799 3.88253 21.7868 1.72991 18.6136 0.759161C17.5381 0.430141 16.3588 0.912886 15.6972 1.94669C14.7065 3.49485 15.2708 5.58324 16.8465 6.1823Z" fill="url(#paint55_linear_111_1172)"/>
<defs>
<linearGradient id="paint0_linear_111_1172" x1="17.5178" y1="21.4413" x2="19.6284" y2="26.0684" gradientUnits="userSpaceOnUse">
<stop stop-color="#FAA68E"/>
<stop offset="0.2061" stop-color="#FBA682"/>
<stop offset="0.5808" stop-color="#FDA861"/>
<stop offset="1" stop-color="#FFA936"/>
</linearGradient>
<linearGradient id="paint1_linear_111_1172" x1="19.7256" y1="26.3753" x2="17.9441" y2="21.2225" gradientUnits="userSpaceOnUse">
<stop stop-color="#F82814" stop-opacity="0"/>
<stop offset="0.2454" stop-color="#F12817" stop-opacity="0.245"/>
<stop offset="0.6052" stop-color="#DD2820" stop-opacity="0.605"/>
<stop offset="1" stop-color="#C0272D"/>
</linearGradient>
<linearGradient id="paint2_linear_111_1172" x1="11.3777" y1="15.3471" x2="20.7771" y2="26.604" gradientUnits="userSpaceOnUse">
<stop stop-color="#FFD945"/>
<stop offset="0.3043" stop-color="#FFCD3E"/>
<stop offset="0.8558" stop-color="#FFAD2B"/>
<stop offset="1" stop-color="#FFA325"/>
</linearGradient>
<linearGradient id="paint3_linear_111_1172" x1="24.3906" y1="14.7304" x2="27.7255" y2="10.0024" gradientUnits="userSpaceOnUse">
<stop stop-color="#F82814" stop-opacity="0"/>
<stop offset="1" stop-color="#C0272D"/>
</linearGradient>
<linearGradient id="paint4_linear_111_1172" x1="22.843" y1="16.5951" x2="7.81503" y2="-6.65036" gradientUnits="userSpaceOnUse">
<stop stop-color="#F82814" stop-opacity="0"/>
<stop offset="1" stop-color="#C0272D"/>
</linearGradient>
<linearGradient id="paint5_linear_111_1172" x1="15.1521" y1="18.2855" x2="8.82014" y2="6.42366" gradientUnits="userSpaceOnUse">
<stop stop-color="#F82814" stop-opacity="0"/>
<stop offset="1" stop-color="#C0272D"/>
</linearGradient>
<linearGradient id="paint6_linear_111_1172" x1="25.2135" y1="21.617" x2="18.9097" y2="9.741" gradientUnits="userSpaceOnUse">
<stop stop-color="#F82814" stop-opacity="0"/>
<stop offset="1" stop-color="#C0272D"/>
</linearGradient>
<linearGradient id="paint7_linear_111_1172" x1="11.2716" y1="28.1099" x2="6.20599" y2="19.4983" gradientUnits="userSpaceOnUse">
<stop stop-color="#F82814" stop-opacity="0"/>
<stop offset="1" stop-color="#C0272D"/>
</linearGradient>
<linearGradient id="paint8_linear_111_1172" x1="16.6777" y1="13.1737" x2="17.4484" y2="15.0413" gradientUnits="userSpaceOnUse">
<stop stop-color="#BADA00"/>
<stop offset="0.2269" stop-color="#B0CE00"/>
<stop offset="0.6378" stop-color="#95AE00"/>
<stop offset="1" stop-color="#798C00"/>
</linearGradient>
<linearGradient id="paint9_linear_111_1172" x1="17.0391" y1="13.8287" x2="16.3039" y2="12.6815" gradientUnits="userSpaceOnUse">
<stop stop-color="#798C00" stop-opacity="0"/>
<stop offset="0.6542" stop-color="#556100" stop-opacity="0.654"/>
<stop offset="1" stop-color="#464F00"/>
</linearGradient>
<linearGradient id="paint10_linear_111_1172" x1="16.4548" y1="14.4955" x2="15.8744" y2="13.5898" gradientUnits="userSpaceOnUse">
<stop stop-color="#798C00" stop-opacity="0"/>
<stop offset="0.6542" stop-color="#556100" stop-opacity="0.654"/>
<stop offset="1" stop-color="#464F00"/>
</linearGradient>
<linearGradient id="paint11_linear_111_1172" x1="17.3711" y1="14.5704" x2="17.0212" y2="14.0243" gradientUnits="userSpaceOnUse">
<stop stop-color="#798C00" stop-opacity="0"/>
<stop offset="0.6542" stop-color="#556100" stop-opacity="0.654"/>
<stop offset="1" stop-color="#464F00"/>
</linearGradient>
<linearGradient id="paint12_linear_111_1172" x1="9.21969" y1="19.6339" x2="9.99044" y2="21.5015" gradientUnits="userSpaceOnUse">
<stop stop-color="#BADA00"/>
<stop offset="0.2269" stop-color="#B0CE00"/>
<stop offset="0.6378" stop-color="#95AE00"/>
<stop offset="1" stop-color="#798C00"/>
</linearGradient>
<linearGradient id="paint13_linear_111_1172" x1="9.57792" y1="20.2931" x2="8.84276" y2="19.1458" gradientUnits="userSpaceOnUse">
<stop stop-color="#798C00" stop-opacity="0"/>
<stop offset="0.6542" stop-color="#556100" stop-opacity="0.654"/>
<stop offset="1" stop-color="#464F00"/>
</linearGradient>
<linearGradient id="paint14_linear_111_1172" x1="8.99368" y1="20.9599" x2="8.41333" y2="20.0542" gradientUnits="userSpaceOnUse">
<stop stop-color="#798C00" stop-opacity="0"/>
<stop offset="0.6542" stop-color="#556100" stop-opacity="0.654"/>
<stop offset="1" stop-color="#464F00"/>
</linearGradient>
<linearGradient id="paint15_linear_111_1172" x1="9.91042" y1="21.0348" x2="9.5605" y2="20.4887" gradientUnits="userSpaceOnUse">
<stop stop-color="#798C00" stop-opacity="0"/>
<stop offset="0.6542" stop-color="#556100" stop-opacity="0.654"/>
<stop offset="1" stop-color="#464F00"/>
</linearGradient>
<linearGradient id="paint16_linear_111_1172" x1="18.5039" y1="21.4916" x2="19.2746" y2="23.3592" gradientUnits="userSpaceOnUse">
<stop stop-color="#BADA00"/>
<stop offset="0.2269" stop-color="#B0CE00"/>
<stop offset="0.6378" stop-color="#95AE00"/>
<stop offset="1" stop-color="#798C00"/>
</linearGradient>
<linearGradient id="paint17_linear_111_1172" x1="18.8671" y1="22.1507" x2="18.1319" y2="21.0034" gradientUnits="userSpaceOnUse">
<stop stop-color="#798C00" stop-opacity="0"/>
<stop offset="0.6542" stop-color="#556100" stop-opacity="0.654"/>
<stop offset="1" stop-color="#464F00"/>
</linearGradient>
<linearGradient id="paint18_linear_111_1172" x1="18.2828" y1="22.8174" x2="17.7025" y2="21.9118" gradientUnits="userSpaceOnUse">
<stop stop-color="#798C00" stop-opacity="0"/>
<stop offset="0.6542" stop-color="#556100" stop-opacity="0.654"/>
<stop offset="1" stop-color="#464F00"/>
</linearGradient>
<linearGradient id="paint19_linear_111_1172" x1="19.1992" y1="22.8924" x2="18.8492" y2="22.3463" gradientUnits="userSpaceOnUse">
<stop stop-color="#798C00" stop-opacity="0"/>
<stop offset="0.6542" stop-color="#556100" stop-opacity="0.654"/>
<stop offset="1" stop-color="#464F00"/>
</linearGradient>
<linearGradient id="paint20_linear_111_1172" x1="31.7851" y1="17.2913" x2="32.5559" y2="19.1589" gradientUnits="userSpaceOnUse">
<stop stop-color="#BADA00"/>
<stop offset="0.2269" stop-color="#B0CE00"/>
<stop offset="0.6378" stop-color="#95AE00"/>
<stop offset="1" stop-color="#798C00"/>
</linearGradient>
<linearGradient id="paint21_linear_111_1172" x1="32.1547" y1="17.9468" x2="31.4195" y2="16.7995" gradientUnits="userSpaceOnUse">
<stop stop-color="#798C00" stop-opacity="0"/>
<stop offset="0.6542" stop-color="#556100" stop-opacity="0.654"/>
<stop offset="1" stop-color="#464F00"/>
</linearGradient>
<linearGradient id="paint22_linear_111_1172" x1="31.5704" y1="18.6136" x2="30.99" y2="17.7079" gradientUnits="userSpaceOnUse">
<stop stop-color="#798C00" stop-opacity="0"/>
<stop offset="0.6542" stop-color="#556100" stop-opacity="0.654"/>
<stop offset="1" stop-color="#464F00"/>
</linearGradient>
<linearGradient id="paint23_linear_111_1172" x1="32.4868" y1="18.6885" x2="32.1368" y2="18.1424" gradientUnits="userSpaceOnUse">
<stop stop-color="#798C00" stop-opacity="0"/>
<stop offset="0.6542" stop-color="#556100" stop-opacity="0.654"/>
<stop offset="1" stop-color="#464F00"/>
</linearGradient>
<linearGradient id="paint24_linear_111_1172" x1="16.7744" y1="5.62782" x2="17.5451" y2="7.49542" gradientUnits="userSpaceOnUse">
<stop stop-color="#BADA00"/>
<stop offset="0.2269" stop-color="#B0CE00"/>
<stop offset="0.6378" stop-color="#95AE00"/>
<stop offset="1" stop-color="#798C00"/>
</linearGradient>
<linearGradient id="paint25_linear_111_1172" x1="17.1349" y1="6.27892" x2="16.3997" y2="5.13165" gradientUnits="userSpaceOnUse">
<stop stop-color="#798C00" stop-opacity="0"/>
<stop offset="0.6542" stop-color="#556100" stop-opacity="0.654"/>
<stop offset="1" stop-color="#464F00"/>
</linearGradient>
<linearGradient id="paint26_linear_111_1172" x1="16.5507" y1="6.94572" x2="15.9703" y2="6.04" gradientUnits="userSpaceOnUse">
<stop stop-color="#798C00" stop-opacity="0"/>
<stop offset="0.6542" stop-color="#556100" stop-opacity="0.654"/>
<stop offset="1" stop-color="#464F00"/>
</linearGradient>
<linearGradient id="paint27_linear_111_1172" x1="17.4671" y1="7.0206" x2="17.1172" y2="6.47462" gradientUnits="userSpaceOnUse">
<stop stop-color="#798C00" stop-opacity="0"/>
<stop offset="0.6542" stop-color="#556100" stop-opacity="0.654"/>
<stop offset="1" stop-color="#464F00"/>
</linearGradient>
<linearGradient id="paint28_linear_111_1172" x1="17.7678" y1="7.36411" x2="16.3847" y2="11.4003" gradientUnits="userSpaceOnUse">
<stop stop-color="#FFDECF"/>
<stop offset="0.3791" stop-color="#FDC4B0"/>
<stop offset="0.7655" stop-color="#FBAE97"/>
<stop offset="1" stop-color="#FAA68E"/>
</linearGradient>
<linearGradient id="paint29_linear_111_1172" x1="15.945" y1="12.4971" x2="17.0612" y2="9.23976" gradientUnits="userSpaceOnUse">
<stop stop-color="#FFDECF"/>
<stop offset="0.3791" stop-color="#FDC4B0"/>
<stop offset="0.7655" stop-color="#FBAE97"/>
<stop offset="1" stop-color="#FAA68E"/>
</linearGradient>
<linearGradient id="paint30_linear_111_1172" x1="2.94539" y1="26.7868" x2="4.21175" y2="28.8553" gradientUnits="userSpaceOnUse">
<stop stop-color="#A57C52"/>
<stop offset="0.1339" stop-color="#A26C4A"/>
<stop offset="0.5155" stop-color="#994336"/>
<stop offset="0.8174" stop-color="#942A2A"/>
<stop offset="1" stop-color="#922125"/>
</linearGradient>
<linearGradient id="paint31_linear_111_1172" x1="7.19098" y1="22.6065" x2="6.01048" y2="26.0516" gradientUnits="userSpaceOnUse">
<stop stop-color="#FFDECF"/>
<stop offset="0.3791" stop-color="#FDC4B0"/>
<stop offset="0.7655" stop-color="#FBAE97"/>
<stop offset="1" stop-color="#FAA68E"/>
</linearGradient>
<linearGradient id="paint32_linear_111_1172" x1="5.6397" y1="26.9873" x2="6.5924" y2="24.207" gradientUnits="userSpaceOnUse">
<stop stop-color="#FFDECF"/>
<stop offset="0.3791" stop-color="#FDC4B0"/>
<stop offset="0.7655" stop-color="#FBAE97"/>
<stop offset="1" stop-color="#FAA68E"/>
</linearGradient>
<linearGradient id="paint33_linear_111_1172" x1="25.5546" y1="19.4712" x2="27.2322" y2="22.2573" gradientUnits="userSpaceOnUse">
<stop stop-color="#A57C52"/>
<stop offset="0.1339" stop-color="#A26C4A"/>
<stop offset="0.5155" stop-color="#994336"/>
<stop offset="0.8174" stop-color="#942A2A"/>
<stop offset="1" stop-color="#922125"/>
</linearGradient>
<linearGradient id="paint34_linear_111_1172" x1="24.7446" y1="15.2484" x2="26.208" y2="18.7943" gradientUnits="userSpaceOnUse">
<stop stop-color="#FF6359"/>
<stop offset="0.2243" stop-color="#FE5B50"/>
<stop offset="0.5952" stop-color="#FC4637"/>
<stop offset="1" stop-color="#F82814"/>
</linearGradient>
<linearGradient id="paint35_linear_111_1172" x1="25.497" y1="16.3833" x2="24.1011" y2="14.205" gradientUnits="userSpaceOnUse">
<stop stop-color="#F82814" stop-opacity="0"/>
<stop offset="0.2454" stop-color="#F12817" stop-opacity="0.245"/>
<stop offset="0.6052" stop-color="#DD2820" stop-opacity="0.605"/>
<stop offset="1" stop-color="#C0272D"/>
</linearGradient>
<linearGradient id="paint36_linear_111_1172" x1="24.3877" y1="17.6493" x2="23.2857" y2="15.9297" gradientUnits="userSpaceOnUse">
<stop stop-color="#F82814" stop-opacity="0"/>
<stop offset="0.2454" stop-color="#F12817" stop-opacity="0.245"/>
<stop offset="0.6052" stop-color="#DD2820" stop-opacity="0.605"/>
<stop offset="1" stop-color="#C0272D"/>
</linearGradient>
<linearGradient id="paint37_linear_111_1172" x1="26.1279" y1="17.7916" x2="25.4636" y2="16.7549" gradientUnits="userSpaceOnUse">
<stop stop-color="#F82814" stop-opacity="0"/>
<stop offset="0.2454" stop-color="#F12817" stop-opacity="0.245"/>
<stop offset="0.6052" stop-color="#DD2820" stop-opacity="0.605"/>
<stop offset="1" stop-color="#C0272D"/>
</linearGradient>
<linearGradient id="paint38_linear_111_1172" x1="10.3199" y1="21.6069" x2="11.7832" y2="25.1529" gradientUnits="userSpaceOnUse">
<stop stop-color="#FF6359"/>
<stop offset="0.2243" stop-color="#FE5B50"/>
<stop offset="0.5952" stop-color="#FC4637"/>
<stop offset="1" stop-color="#F82814"/>
</linearGradient>
<linearGradient id="paint39_linear_111_1172" x1="11.0655" y1="22.7466" x2="9.66967" y2="20.5683" gradientUnits="userSpaceOnUse">
<stop stop-color="#F82814" stop-opacity="0"/>
<stop offset="0.2454" stop-color="#F12817" stop-opacity="0.245"/>
<stop offset="0.6052" stop-color="#DD2820" stop-opacity="0.605"/>
<stop offset="1" stop-color="#C0272D"/>
</linearGradient>
<linearGradient id="paint40_linear_111_1172" x1="9.9561" y1="24.0127" x2="8.85416" y2="22.2931" gradientUnits="userSpaceOnUse">
<stop stop-color="#F82814" stop-opacity="0"/>
<stop offset="0.2454" stop-color="#F12817" stop-opacity="0.245"/>
<stop offset="0.6052" stop-color="#DD2820" stop-opacity="0.605"/>
<stop offset="1" stop-color="#C0272D"/>
</linearGradient>
<linearGradient id="paint41_linear_111_1172" x1="11.6964" y1="24.1549" x2="11.032" y2="23.1182" gradientUnits="userSpaceOnUse">
<stop stop-color="#F82814" stop-opacity="0"/>
<stop offset="0.2454" stop-color="#F12817" stop-opacity="0.245"/>
<stop offset="0.6052" stop-color="#DD2820" stop-opacity="0.605"/>
<stop offset="1" stop-color="#C0272D"/>
</linearGradient>
<linearGradient id="paint42_linear_111_1172" x1="17.242" y1="16.4018" x2="18.9197" y2="19.1879" gradientUnits="userSpaceOnUse">
<stop stop-color="#A57C52"/>
<stop offset="0.1339" stop-color="#A26C4A"/>
<stop offset="0.5155" stop-color="#994336"/>
<stop offset="0.8174" stop-color="#942A2A"/>
<stop offset="1" stop-color="#922125"/>
</linearGradient>
<linearGradient id="paint43_linear_111_1172" x1="20.2555" y1="24.2722" x2="16.9065" y2="17.9402" gradientUnits="userSpaceOnUse">
<stop stop-color="#798C00" stop-opacity="0"/>
<stop offset="0.6542" stop-color="#556100" stop-opacity="0.654"/>
<stop offset="1" stop-color="#464F00"/>
</linearGradient>
<linearGradient id="paint44_linear_111_1172" x1="20.7636" y1="16.9493" x2="19.5831" y2="20.3944" gradientUnits="userSpaceOnUse">
<stop stop-color="#FFDECF"/>
<stop offset="0.3791" stop-color="#FDC4B0"/>
<stop offset="0.7655" stop-color="#FBAE97"/>
<stop offset="1" stop-color="#FAA68E"/>
</linearGradient>
<linearGradient id="paint45_linear_111_1172" x1="19.2123" y1="21.3301" x2="20.165" y2="18.5498" gradientUnits="userSpaceOnUse">
<stop stop-color="#FFDECF"/>
<stop offset="0.3791" stop-color="#FDC4B0"/>
<stop offset="0.7655" stop-color="#FBAE97"/>
<stop offset="1" stop-color="#FAA68E"/>
</linearGradient>
<linearGradient id="paint46_linear_111_1172" x1="5.33444" y1="19.6992" x2="6.05719" y2="21.1447" gradientUnits="userSpaceOnUse">
<stop stop-color="#8A7889"/>
<stop offset="0.3344" stop-color="#867385"/>
<stop offset="0.7039" stop-color="#7B667B"/>
<stop offset="1" stop-color="#6E566E"/>
</linearGradient>
<linearGradient id="paint47_linear_111_1172" x1="13.2446" y1="17.5327" x2="13.9673" y2="18.9782" gradientUnits="userSpaceOnUse">
<stop stop-color="#8A7889"/>
<stop offset="0.3344" stop-color="#867385"/>
<stop offset="0.7039" stop-color="#7B667B"/>
<stop offset="1" stop-color="#6E566E"/>
</linearGradient>
<linearGradient id="paint48_linear_111_1172" x1="23.3183" y1="11.9392" x2="24.0411" y2="13.3847" gradientUnits="userSpaceOnUse">
<stop stop-color="#8A7889"/>
<stop offset="0.3344" stop-color="#867385"/>
<stop offset="0.7039" stop-color="#7B667B"/>
<stop offset="1" stop-color="#6E566E"/>
</linearGradient>
<linearGradient id="paint49_linear_111_1172" x1="2.24704" y1="28.3354" x2="2.96979" y2="29.7808" gradientUnits="userSpaceOnUse">
<stop stop-color="#8A7889"/>
<stop offset="0.3344" stop-color="#867385"/>
<stop offset="0.7039" stop-color="#7B667B"/>
<stop offset="1" stop-color="#6E566E"/>
</linearGradient>
<linearGradient id="paint50_linear_111_1172" x1="10.6827" y1="13.2462" x2="12.146" y2="16.7921" gradientUnits="userSpaceOnUse">
<stop stop-color="#FF6359"/>
<stop offset="0.2243" stop-color="#FE5B50"/>
<stop offset="0.5952" stop-color="#FC4637"/>
<stop offset="1" stop-color="#F82814"/>
</linearGradient>
<linearGradient id="paint51_linear_111_1172" x1="11.4275" y1="14.3817" x2="10.0317" y2="12.2033" gradientUnits="userSpaceOnUse">
<stop stop-color="#F82814" stop-opacity="0"/>
<stop offset="0.2454" stop-color="#F12817" stop-opacity="0.245"/>
<stop offset="0.6052" stop-color="#DD2820" stop-opacity="0.605"/>
<stop offset="1" stop-color="#C0272D"/>
</linearGradient>
<linearGradient id="paint52_linear_111_1172" x1="10.3182" y1="15.6477" x2="9.21627" y2="13.9281" gradientUnits="userSpaceOnUse">
<stop stop-color="#F82814" stop-opacity="0"/>
<stop offset="0.2454" stop-color="#F12817" stop-opacity="0.245"/>
<stop offset="0.6052" stop-color="#DD2820" stop-opacity="0.605"/>
<stop offset="1" stop-color="#C0272D"/>
</linearGradient>
<linearGradient id="paint53_linear_111_1172" x1="12.0584" y1="15.79" x2="11.3941" y2="14.7532" gradientUnits="userSpaceOnUse">
<stop stop-color="#F82814" stop-opacity="0"/>
<stop offset="0.2454" stop-color="#F12817" stop-opacity="0.245"/>
<stop offset="0.6052" stop-color="#DD2820" stop-opacity="0.605"/>
<stop offset="1" stop-color="#C0272D"/>
</linearGradient>
<linearGradient id="paint54_linear_111_1172" x1="22.4695" y1="9.12984" x2="24.1472" y2="11.916" gradientUnits="userSpaceOnUse">
<stop stop-color="#A57C52"/>
<stop offset="0.1339" stop-color="#A26C4A"/>
<stop offset="0.5155" stop-color="#994336"/>
<stop offset="0.8174" stop-color="#942A2A"/>
<stop offset="1" stop-color="#922125"/>
</linearGradient>
<linearGradient id="paint55_linear_111_1172" x1="29.2395" y1="8.38206" x2="26.3126" y2="13.1662" gradientUnits="userSpaceOnUse">
<stop stop-color="#FAA68E"/>
<stop offset="0.2061" stop-color="#FBA682"/>
<stop offset="0.5808" stop-color="#FDA861"/>
<stop offset="1" stop-color="#FFA936"/>
</linearGradient>
</defs>
</svg>
