<svg width="40" height="40" viewBox="0 0 40 40" fill="none" xmlns="http://www.w3.org/2000/svg">
<g clip-path="url(#clip0_111_1327)">
<path d="M0.348633 33.1672C0.348633 35.8298 2.21554 38.1251 4.82134 38.6724C8.73083 39.4935 14.0887 40 19.9999 40C25.9111 40 31.269 39.4935 35.1785 38.6724C37.7843 38.1251 39.6512 35.8299 39.6512 33.1673C39.6512 32.2582 38.7704 31.6048 37.903 31.8766C34.0013 33.0988 27.4399 33.9013 19.9999 33.9013C12.5599 33.9013 5.99859 33.0988 2.09687 31.8765C1.22942 31.6047 0.348633 32.2582 0.348633 33.1672Z" fill="url(#paint0_linear_111_1327)"/>
<path d="M15.8955 33.818L22.0564 39.979C27.1485 39.8764 31.728 39.397 35.1786 38.6723C36.163 38.4656 37.0416 38.0091 37.7543 37.3779L33.3005 32.9241C29.6294 33.5362 25.0151 33.9012 20.0001 33.9012C18.5966 33.9012 17.2245 33.8726 15.8955 33.818Z" fill="url(#paint1_linear_111_1327)"/>
<path d="M37.9028 31.8765C36.3029 32.3777 34.2552 32.8081 31.8838 33.1418L36.801 38.0589C38.5247 37.081 39.6512 35.2351 39.6512 33.1672C39.6511 32.2582 38.7703 31.6047 37.9028 31.8765Z" fill="url(#paint2_linear_111_1327)"/>
<g opacity="0.6">
<path d="M5.73873 35.6313C6.10385 35.6313 6.39983 35.3353 6.39983 34.9702C6.39983 34.6051 6.10385 34.3091 5.73873 34.3091C5.37362 34.3091 5.07764 34.6051 5.07764 34.9702C5.07764 35.3353 5.37362 35.6313 5.73873 35.6313Z" fill="url(#paint3_linear_111_1327)"/>
<path d="M4.51122 37.2018C4.79949 37.2018 5.03318 36.9681 5.03318 36.6798C5.03318 36.3915 4.79949 36.1578 4.51122 36.1578C4.22295 36.1578 3.98926 36.3915 3.98926 36.6798C3.98926 36.9681 4.22295 37.2018 4.51122 37.2018Z" fill="url(#paint4_linear_111_1327)"/>
<path d="M6.78635 37.4324C6.96013 37.4324 7.10101 37.2916 7.10101 37.1178C7.10101 36.944 6.96013 36.8031 6.78635 36.8031C6.61256 36.8031 6.47168 36.944 6.47168 37.1178C6.47168 37.2916 6.61256 37.4324 6.78635 37.4324Z" fill="url(#paint5_linear_111_1327)"/>
<path d="M9.23464 35.957C9.50446 35.957 9.72319 35.7382 9.72319 35.4684C9.72319 35.1986 9.50446 34.9799 9.23464 34.9799C8.96482 34.9799 8.74609 35.1986 8.74609 35.4684C8.74609 35.7382 8.96482 35.957 9.23464 35.957Z" fill="url(#paint6_linear_111_1327)"/>
<path d="M7.68838 36.0202C7.90137 36.0202 8.07403 35.8475 8.07403 35.6346C8.07403 35.4216 7.90137 35.2489 7.68838 35.2489C7.47539 35.2489 7.30273 35.4216 7.30273 35.6346C7.30273 35.8475 7.47539 36.0202 7.68838 36.0202Z" fill="url(#paint7_linear_111_1327)"/>
<path d="M8.568 37.3358C8.69643 37.3358 8.80055 37.2317 8.80055 37.1033C8.80055 36.9748 8.69643 36.8707 8.568 36.8707C8.43956 36.8707 8.33545 36.9748 8.33545 37.1033C8.33545 37.2317 8.43956 37.3358 8.568 37.3358Z" fill="url(#paint8_linear_111_1327)"/>
</g>
<path d="M0.797852 35.3683C1.50122 37.0194 2.97534 38.2848 4.82122 38.6724C8.73072 39.4935 14.0886 40 19.9998 40C25.911 40 31.2689 39.4935 35.1784 38.6724C37.0243 38.2848 38.4984 37.0195 39.2018 35.3683H0.797852Z" fill="url(#paint9_linear_111_1327)"/>
<path d="M0.348633 27.8259V29.0931C0.348633 30.9267 1.58432 32.5374 3.36063 32.9925C7.33577 34.0107 13.3139 34.6587 19.9999 34.6587C26.686 34.6587 32.6641 34.0107 36.6392 32.9925C38.4155 32.5374 39.6512 30.9268 39.6512 29.0931V27.8259C39.6512 26.9168 38.7704 26.2634 37.903 26.5352C34.0013 27.7575 27.4399 28.56 19.9999 28.56C12.5599 28.56 5.99859 27.7575 2.09687 26.5352C1.22942 26.2634 0.348633 26.9169 0.348633 27.8259Z" fill="url(#paint10_linear_111_1327)"/>
<path d="M37.9029 26.5352C34.0012 27.7575 27.4399 28.56 19.9998 28.56C12.5598 28.56 5.9985 27.7575 2.09677 26.5352C1.61748 26.3851 1.13497 26.5182 0.79834 26.8199L7.83803 33.8596C11.3056 34.3638 15.4912 34.6587 19.9998 34.6587C26.6858 34.6587 32.6639 34.0107 36.639 32.9925C38.4154 32.5374 39.651 30.9268 39.651 29.0931V27.8259C39.6511 26.9169 38.7703 26.2634 37.9029 26.5352Z" fill="url(#paint11_linear_111_1327)"/>
<path d="M39.6512 29.093V28.2025L37.9678 26.5192C37.9461 26.5248 37.9245 26.5284 37.903 26.5352C35.8188 27.1881 32.9755 27.721 29.645 28.0761V30.2548C29.645 30.7432 29.866 31.1798 30.2131 31.471L32.5447 33.8026C34.0667 33.5709 35.4441 33.2986 36.6392 32.9924C38.4155 32.5374 39.6512 30.9268 39.6512 29.093Z" fill="url(#paint12_linear_111_1327)"/>
<path d="M28.5602 28.1838C25.9346 28.4258 23.041 28.56 20.0002 28.56C16.9735 28.56 14.0924 28.4271 11.4765 28.1873C11.2359 28.6217 11.2739 29.1965 11.6717 29.5943L16.6816 34.6042C17.7637 34.6398 18.8715 34.6587 20.0002 34.6587C25.313 34.6587 30.1776 34.2492 33.9467 33.5703L28.5602 28.1838Z" fill="url(#paint13_linear_111_1327)"/>
<path d="M27.8374 27.6343C22.7273 26.0859 17.2732 26.0859 12.163 27.6343C11.3115 27.8923 11.0426 28.9651 11.6717 29.5943L17.749 35.6715C18.9923 36.9148 21.0081 36.9148 22.2514 35.6715L28.3287 29.5943C28.9579 28.9651 28.6889 27.8923 27.8374 27.6343Z" fill="url(#paint14_linear_111_1327)"/>
<path d="M39.6512 25.7423C39.6512 20.1834 0.348633 20.1834 0.348633 25.7423C0.348633 26.7007 1.51765 27.4938 3.45169 28.1217C4.15428 28.3498 4.80228 28.7201 5.34408 29.2221L5.4022 29.2759C6.58024 30.3676 8.28581 30.674 9.77005 30.0605L9.77114 30.06C11.0391 29.5359 12.4847 29.6769 13.6275 30.436L13.7362 30.5083C14.9964 31.3453 16.6169 31.414 17.9434 30.6866L18.0447 30.631C19.263 29.9629 20.738 29.9628 21.9563 30.6307L22.0584 30.6866C23.385 31.4138 25.0057 31.3449 26.2657 30.5077L26.3976 30.4201C27.534 29.6651 28.9731 29.53 30.2302 30.0601C31.7036 30.6814 33.4043 30.3822 34.5771 29.2952L34.656 29.2221C35.1977 28.7199 35.8457 28.3497 36.5482 28.1217C38.4823 27.4938 39.6512 26.7007 39.6512 25.7423Z" fill="url(#paint15_linear_111_1327)"/>
<path d="M39.6515 25.7422C39.6515 26.7008 38.482 27.4929 36.548 28.1207C35.8458 28.3496 35.1976 28.7199 34.656 29.2219L34.577 29.295C33.8113 30.0056 32.8179 30.3794 31.8114 30.3794C31.2781 30.3794 30.7402 30.2751 30.2309 30.0595C28.974 29.5298 27.5349 29.6653 26.3978 30.4202L26.2659 30.5076C25.0065 31.344 23.3853 31.4135 22.0589 30.6861L21.957 30.6298C20.7384 29.9624 19.2633 29.9624 18.0447 30.631L17.944 30.6861C16.6176 31.4134 14.9963 31.3452 13.737 30.5076L13.6279 30.4357C12.4848 29.676 11.0397 29.5358 9.77195 30.0595H9.77077C8.90207 30.4177 7.95901 30.4633 7.08913 30.2188L2.03132 25.161C1.76175 24.9129 1.53407 24.6218 1.35791 24.3007C3.62018 22.8041 9.40536 21.9234 15.8136 21.6586C18.566 21.5448 21.4346 21.5448 24.1869 21.6586C32.4356 21.9989 39.6515 23.3601 39.6515 25.7422Z" fill="url(#paint16_linear_111_1327)"/>
<path d="M13.8382 21.7612C9.52825 22.0322 5.65798 22.5961 3.18018 23.4535C3.26096 23.8349 3.47735 24.166 3.77837 24.3927L9.5339 30.1482C9.61304 30.1211 9.69194 30.0928 9.7699 30.0605L9.771 30.0601C11.0389 29.536 12.4846 29.6769 13.6274 30.4361L13.7361 30.5083C14.9963 31.3453 16.6168 31.414 17.9432 30.6866L18.0446 30.631C19.2628 29.963 20.7378 29.9629 21.9562 30.6307L22.0583 30.6867C22.4137 30.8815 22.7903 31.0173 23.1752 31.0983L13.8382 21.7612Z" fill="url(#paint17_linear_111_1327)"/>
<path d="M36.3558 24.9072H29.645V29.8661C29.8431 29.9162 30.0389 29.9795 30.2302 30.0602C31.7036 30.6815 33.4043 30.3823 34.5771 29.2952L34.656 29.2221C35.1977 28.72 35.8457 28.3498 36.5482 28.1217C37.407 27.8429 38.1144 27.5315 38.6361 27.1875L36.3558 24.9072Z" fill="url(#paint18_linear_111_1327)"/>
<path d="M29.645 24.9072V30.2548C29.645 31.1315 30.3558 31.8423 31.2325 31.8423C32.1093 31.8423 32.8201 31.1315 32.8201 30.2548V29.1714C32.8201 28.8676 33.0663 28.6214 33.37 28.6214C33.6738 28.6214 33.92 28.8676 33.92 29.1714V29.2595C33.92 29.9322 34.4653 30.4774 35.1379 30.4774C35.8105 30.4774 36.3558 29.9322 36.3558 29.2595V24.9072H29.645Z" fill="url(#paint19_linear_111_1327)"/>
<path d="M0.931152 22.5642V22.6522C0.931152 24.1853 1.95233 25.5344 3.43115 25.9387C7.28017 26.991 13.2706 27.6674 20.0001 27.6674C26.7296 27.6674 32.72 26.991 36.569 25.9387C38.0479 25.5344 39.069 24.1854 39.069 22.6522C39.069 22.623 39.069 22.5939 39.069 22.5645C39.069 20.9561 37.5575 19.7782 35.9974 20.1694C32.1414 21.1363 26.4065 21.7495 20.0001 21.7495C13.5937 21.7495 7.85884 21.1363 4.00276 20.1695C2.4426 19.7783 0.931152 20.9558 0.931152 22.5642Z" fill="url(#paint20_linear_111_1327)"/>
<path d="M13.6153 21.5381C9.83487 21.2804 6.51871 20.8003 4.00263 20.1694C3.71157 20.0964 3.42224 20.0782 3.14404 20.107V23.1251C3.14404 23.6438 3.39385 24.1029 3.77855 24.3927L5.88945 26.5036C9.56169 27.2152 14.4138 27.6529 19.7438 27.6665L13.6153 21.5381Z" fill="url(#paint21_linear_111_1327)"/>
<path d="M35.9214 20.1879C32.0661 21.1439 26.3648 21.7494 19.9998 21.7494C19.7251 21.7494 19.4523 21.7479 19.1802 21.7457L24.975 27.5405C29.6418 27.2982 33.7002 26.723 36.5687 25.9388C37.8427 25.5905 38.7752 24.5404 39.0096 23.2762L35.9214 20.1879Z" fill="url(#paint22_linear_111_1327)"/>
<path d="M0.348633 17.8832V19.1505C0.348633 20.9841 1.58432 22.5948 3.36063 23.0498C7.33577 24.0681 13.3139 24.716 19.9999 24.716C26.686 24.716 32.6641 24.0681 36.6392 23.0498C38.4155 22.5948 39.6512 20.9842 39.6512 19.1505V17.8832C39.6512 16.9742 38.7704 16.3208 37.903 16.5926C34.0013 17.8149 27.4399 18.6174 19.9999 18.6174C12.5599 18.6174 5.99859 17.8149 2.09687 16.5926C1.22942 16.3208 0.348633 16.9742 0.348633 17.8832Z" fill="url(#paint23_linear_111_1327)"/>
<path d="M37.9029 16.5926C34.0012 17.8149 27.4399 18.6174 19.9998 18.6174C12.5598 18.6174 5.9985 17.8149 2.09677 16.5926C1.61748 16.4425 1.13497 16.5756 0.79834 16.8773L7.83803 23.917C11.3057 24.4211 15.4913 24.716 19.9998 24.716C26.6859 24.716 32.664 24.0681 36.6391 23.0498C38.4154 22.5948 39.6511 20.9842 39.6511 19.1505V17.8832C39.6511 16.9742 38.7703 16.3208 37.9029 16.5926Z" fill="url(#paint24_linear_111_1327)"/>
<path d="M38.0803 22.3469L33.3633 17.6299C29.6821 18.2482 25.0436 18.6174 19.9998 18.6174C18.902 18.6174 17.824 18.5995 16.7702 18.5658C16.688 18.9364 16.7806 19.3461 17.0861 19.6517L22.096 24.6616C22.302 24.6684 22.5097 24.674 22.7176 24.6795C28.2937 24.5301 33.2113 23.9279 36.639 23.0498C37.1753 22.9125 37.6617 22.6693 38.0803 22.3469Z" fill="url(#paint25_linear_111_1327)"/>
<path d="M33.2519 17.6916C28.1419 16.1433 22.6877 16.1433 17.5776 17.6916C16.7261 17.9497 16.4571 19.0225 17.0863 19.6516L23.1635 25.7289C24.4068 26.9722 26.4227 26.9722 27.666 25.7289L33.7432 19.6516C34.3724 19.0225 34.1035 17.9497 33.2519 17.6916Z" fill="url(#paint26_linear_111_1327)"/>
<path d="M3.36067 23.0498C6.67706 23.8994 11.3881 24.4908 16.7407 24.6635L10.1931 18.1159C9.2773 18.0162 8.39879 17.9031 7.56389 17.7776H3.14404V22.9869C3.21542 23.0096 3.28742 23.0311 3.36067 23.0498Z" fill="url(#paint27_linear_111_1327)"/>
<path d="M3.14404 17.7776V23.1251C3.14404 24.0019 3.85479 24.7126 4.73157 24.7126C5.60836 24.7126 6.3191 24.0019 6.3191 23.1251V22.0417C6.3191 21.738 6.5653 21.4918 6.86906 21.4918C7.17283 21.4918 7.41902 21.738 7.41902 22.0417V22.1299C7.41902 22.8025 7.96428 23.3478 8.63691 23.3478C9.30953 23.3478 9.85479 22.8025 9.85479 22.1299V17.7776H3.14404Z" fill="url(#paint28_linear_111_1327)"/>
<path d="M39.6512 15.7998C39.6512 10.2409 0.348633 10.2409 0.348633 15.7998C0.348633 16.7582 1.51765 17.5513 3.45169 18.1792C4.15428 18.4073 4.80228 18.7776 5.34408 19.2796L5.4022 19.3334C6.58024 20.4251 8.28581 20.7315 9.77005 20.118L9.77114 20.1175C11.0391 19.5934 12.4847 19.7344 13.6275 20.4935L13.7362 20.5658C14.9964 21.4028 16.6169 21.4715 17.9434 20.7441L18.0447 20.6885C19.263 20.0204 20.738 20.0203 21.9563 20.6882L22.0584 20.7441C23.385 21.4713 25.0057 21.4024 26.2657 20.5652L26.3976 20.4776C27.534 19.7226 28.9731 19.5875 30.2302 20.1176C31.7036 20.739 33.4043 20.4397 34.5771 19.3527L34.656 19.2796C35.1977 18.7774 35.8457 18.4072 36.5482 18.1792C38.4823 17.5513 39.6512 16.7582 39.6512 15.7998Z" fill="url(#paint29_linear_111_1327)"/>
<path d="M39.6515 15.8001C39.6515 16.7587 38.482 17.5507 36.548 18.1786C35.8458 18.4074 35.1976 18.7777 34.656 19.2798L34.577 19.3528C33.8113 20.0634 32.8179 20.4372 31.8114 20.4372C31.2781 20.4372 30.7402 20.333 30.2309 20.1173C28.974 19.5877 27.5349 19.7231 26.3978 20.478L26.2659 20.5655C25.0065 21.4019 23.3853 21.4714 22.0589 20.744L21.957 20.6877C20.7384 20.0202 19.2633 20.0202 18.0447 20.6888L17.944 20.744C16.6176 21.4713 14.9963 21.403 13.737 20.5655L13.6279 20.4936C12.4848 19.7339 11.0397 19.5936 9.77195 20.1173H9.77077C8.90207 20.4756 7.95901 20.5212 7.08913 20.2767L2.03132 15.2189C1.76175 14.9708 1.53407 14.6797 1.35791 14.3586C3.62018 12.8619 9.40536 11.9812 15.8136 11.7165C18.566 11.6027 21.4346 11.6027 24.1869 11.7165C32.4356 12.0568 39.6515 13.4179 39.6515 15.8001Z" fill="url(#paint30_linear_111_1327)"/>
<path d="M0.931152 12.6217V12.7097C0.931152 14.2428 1.95233 15.5919 3.43115 15.9962C7.28017 17.0485 13.2706 17.7249 20.0001 17.7249C26.7296 17.7249 32.72 17.0485 36.569 15.9962C38.0479 15.5919 39.069 14.2429 39.069 12.7097C39.069 12.6805 39.069 12.6513 39.069 12.622C39.069 11.0136 37.5575 9.83573 35.9974 10.2269C32.1414 11.1938 26.4065 11.8069 20.0001 11.8069C13.5937 11.8069 7.85884 11.1938 4.00276 10.2269C2.4426 9.83573 0.931152 11.0133 0.931152 12.6217Z" fill="url(#paint31_linear_111_1327)"/>
<path d="M39.0687 12.6223V12.7098C39.0687 14.2423 38.0478 15.5916 36.5692 15.9966C32.7193 17.0487 26.7292 17.7244 19.9998 17.7244C14.5945 17.7244 9.66607 17.2883 5.94074 16.5717L1.09619 11.7272C1.53 10.6092 2.74976 9.91308 4.00192 10.227C7.85792 11.1939 13.5939 11.8063 19.9997 11.8063C26.4055 11.8063 32.1416 11.1939 35.9975 10.227C37.5578 9.83519 39.0687 11.0131 39.0687 12.6223Z" fill="url(#paint32_linear_111_1327)"/>
<path d="M40 10.4564C40 16.0153 0 16.0153 0 10.4564C0 4.89747 8.95428 0.391113 20 0.391113C31.0457 0.391113 40 4.89747 40 10.4564Z" fill="url(#paint33_linear_111_1327)"/>
<g opacity="0.6">
<path d="M33.5307 9.28777C33.8958 9.28777 34.1918 8.99179 34.1918 8.62667C34.1918 8.26156 33.8958 7.96558 33.5307 7.96558C33.1656 7.96558 32.8696 8.26156 32.8696 8.62667C32.8696 8.99179 33.1656 9.28777 33.5307 9.28777Z" fill="url(#paint34_linear_111_1327)"/>
<path d="M32.3032 10.8583C32.5915 10.8583 32.8252 10.6246 32.8252 10.3363C32.8252 10.048 32.5915 9.81433 32.3032 9.81433C32.0149 9.81433 31.7812 10.048 31.7812 10.3363C31.7812 10.6246 32.0149 10.8583 32.3032 10.8583Z" fill="url(#paint35_linear_111_1327)"/>
<path d="M34.5783 11.0889C34.7521 11.0889 34.893 10.948 34.893 10.7743C34.893 10.6005 34.7521 10.4596 34.5783 10.4596C34.4046 10.4596 34.2637 10.6005 34.2637 10.7743C34.2637 10.948 34.4046 11.0889 34.5783 11.0889Z" fill="url(#paint36_linear_111_1327)"/>
<path d="M37.0266 9.61345C37.2965 9.61345 37.5152 9.39472 37.5152 9.1249C37.5152 8.85508 37.2965 8.63635 37.0266 8.63635C36.7568 8.63635 36.5381 8.85508 36.5381 9.1249C36.5381 9.39472 36.7568 9.61345 37.0266 9.61345Z" fill="url(#paint37_linear_111_1327)"/>
<path d="M35.4804 9.67681C35.6934 9.67681 35.866 9.50415 35.866 9.29116C35.866 9.07818 35.6934 8.90552 35.4804 8.90552C35.2674 8.90552 35.0947 9.07818 35.0947 9.29116C35.0947 9.50415 35.2674 9.67681 35.4804 9.67681Z" fill="url(#paint38_linear_111_1327)"/>
<path d="M36.36 10.9923C36.4884 10.9923 36.5925 10.8882 36.5925 10.7598C36.5925 10.6313 36.4884 10.5272 36.36 10.5272C36.2316 10.5272 36.1274 10.6313 36.1274 10.7598C36.1274 10.8882 36.2316 10.9923 36.36 10.9923Z" fill="url(#paint39_linear_111_1327)"/>
</g>
<path d="M0 10.4565C0 16.0154 40 16.0154 40 10.4565C40 9.4307 39.6942 8.44089 39.1275 7.50842H0.872549C0.305804 8.44082 0 9.43062 0 10.4565Z" fill="url(#paint40_linear_111_1327)"/>
<path d="M11.0706 9.22653C11.6751 9.22653 12.1651 9.01195 12.1651 8.74724C12.1651 8.48253 11.6751 8.26794 11.0706 8.26794C10.4661 8.26794 9.97607 8.48253 9.97607 8.74724C9.97607 9.01195 10.4661 9.22653 11.0706 9.22653Z" fill="url(#paint41_linear_111_1327)"/>
<path d="M17.0237 9.22653C17.6282 9.22653 18.1182 9.01195 18.1182 8.74724C18.1182 8.48253 17.6282 8.26794 17.0237 8.26794C16.4192 8.26794 15.9292 8.48253 15.9292 8.74724C15.9292 9.01195 16.4192 9.22653 17.0237 9.22653Z" fill="url(#paint42_linear_111_1327)"/>
<path d="M22.9763 9.22653C23.5808 9.22653 24.0709 9.01195 24.0709 8.74724C24.0709 8.48253 23.5808 8.26794 22.9763 8.26794C22.3719 8.26794 21.8818 8.48253 21.8818 8.74724C21.8818 9.01195 22.3719 9.22653 22.9763 9.22653Z" fill="url(#paint43_linear_111_1327)"/>
<path d="M28.9295 9.22653C29.534 9.22653 30.024 9.01195 30.024 8.74724C30.024 8.48253 29.534 8.26794 28.9295 8.26794C28.325 8.26794 27.835 8.48253 27.835 8.74724C27.835 9.01195 28.325 9.22653 28.9295 9.22653Z" fill="url(#paint44_linear_111_1327)"/>
<path d="M8.09402 6.47055C8.6985 6.47055 9.18853 6.25596 9.18853 5.99126C9.18853 5.72655 8.6985 5.51196 8.09402 5.51196C7.48954 5.51196 6.99951 5.72655 6.99951 5.99126C6.99951 6.25596 7.48954 6.47055 8.09402 6.47055Z" fill="url(#paint45_linear_111_1327)"/>
<path d="M14.0471 6.47055C14.6516 6.47055 15.1417 6.25596 15.1417 5.99126C15.1417 5.72655 14.6516 5.51196 14.0471 5.51196C13.4427 5.51196 12.9526 5.72655 12.9526 5.99126C12.9526 6.25596 13.4427 6.47055 14.0471 6.47055Z" fill="url(#paint46_linear_111_1327)"/>
<path d="M19.9998 6.47055C20.6043 6.47055 21.0943 6.25596 21.0943 5.99126C21.0943 5.72655 20.6043 5.51196 19.9998 5.51196C19.3953 5.51196 18.9053 5.72655 18.9053 5.99126C18.9053 6.25596 19.3953 6.47055 19.9998 6.47055Z" fill="url(#paint47_linear_111_1327)"/>
<path d="M25.9529 6.47055C26.5574 6.47055 27.0474 6.25596 27.0474 5.99126C27.0474 5.72655 26.5574 5.51196 25.9529 5.51196C25.3484 5.51196 24.8584 5.72655 24.8584 5.99126C24.8584 6.25596 25.3484 6.47055 25.9529 6.47055Z" fill="url(#paint48_linear_111_1327)"/>
<path d="M31.906 6.47055C32.5105 6.47055 33.0005 6.25596 33.0005 5.99126C33.0005 5.72655 32.5105 5.51196 31.906 5.51196C31.3016 5.51196 30.8115 5.72655 30.8115 5.99126C30.8115 6.25596 31.3016 6.47055 31.906 6.47055Z" fill="url(#paint49_linear_111_1327)"/>
<path d="M11.0706 3.71457C11.6751 3.71457 12.1651 3.49998 12.1651 3.23528C12.1651 2.97057 11.6751 2.75598 11.0706 2.75598C10.4661 2.75598 9.97607 2.97057 9.97607 3.23528C9.97607 3.49998 10.4661 3.71457 11.0706 3.71457Z" fill="url(#paint50_linear_111_1327)"/>
<path d="M17.0237 3.71457C17.6282 3.71457 18.1182 3.49998 18.1182 3.23528C18.1182 2.97057 17.6282 2.75598 17.0237 2.75598C16.4192 2.75598 15.9292 2.97057 15.9292 3.23528C15.9292 3.49998 16.4192 3.71457 17.0237 3.71457Z" fill="url(#paint51_linear_111_1327)"/>
<path d="M22.9763 3.71457C23.5808 3.71457 24.0709 3.49998 24.0709 3.23528C24.0709 2.97057 23.5808 2.75598 22.9763 2.75598C22.3719 2.75598 21.8818 2.97057 21.8818 3.23528C21.8818 3.49998 22.3719 3.71457 22.9763 3.71457Z" fill="url(#paint52_linear_111_1327)"/>
<path d="M28.9295 3.71457C29.534 3.71457 30.024 3.49998 30.024 3.23528C30.024 2.97057 29.534 2.75598 28.9295 2.75598C28.325 2.75598 27.835 2.97057 27.835 3.23528C27.835 3.49998 28.325 3.71457 28.9295 3.71457Z" fill="url(#paint53_linear_111_1327)"/>
<path d="M19.9998 0.958588C20.6043 0.958588 21.0943 0.744001 21.0943 0.479294C21.0943 0.214587 20.6043 0 19.9998 0C19.3953 0 18.9053 0.214587 18.9053 0.479294C18.9053 0.744001 19.3953 0.958588 19.9998 0.958588Z" fill="url(#paint54_linear_111_1327)"/>
<path d="M26.9149 1.0145C26.8631 1.27411 26.3404 1.38846 25.7477 1.27003C25.1549 1.1516 24.7164 0.845086 24.7683 0.585478C24.8202 0.32587 25.3428 0.211517 25.9355 0.329948C26.5283 0.44838 26.9668 0.75489 26.9149 1.0145Z" fill="url(#paint55_linear_111_1327)"/>
<path d="M13.0852 1.0145C13.1371 1.27411 13.6597 1.38846 14.2524 1.27003C14.8452 1.1516 15.2837 0.845086 15.2318 0.585478C15.1799 0.32587 14.6573 0.211517 14.0646 0.329948C13.4718 0.448458 13.0333 0.75489 13.0852 1.0145Z" fill="url(#paint56_linear_111_1327)"/>
</g>
<defs>
<linearGradient id="paint0_linear_111_1327" x1="19.8304" y1="32.7626" x2="22.4666" y2="43.1873" gradientUnits="userSpaceOnUse">
<stop stop-color="#FAA68E"/>
<stop offset="0.2061" stop-color="#FBA682"/>
<stop offset="0.5808" stop-color="#FDA861"/>
<stop offset="1" stop-color="#FFA936"/>
</linearGradient>
<linearGradient id="paint1_linear_111_1327" x1="28.7312" y1="40.6054" x2="23.379" y2="26.546" gradientUnits="userSpaceOnUse">
<stop stop-color="#F82814" stop-opacity="0"/>
<stop offset="0.2454" stop-color="#F12817" stop-opacity="0.245"/>
<stop offset="0.6052" stop-color="#DD2820" stop-opacity="0.605"/>
<stop offset="1" stop-color="#C0272D"/>
</linearGradient>
<linearGradient id="paint2_linear_111_1327" x1="36.6578" y1="35.3283" x2="34.7107" y2="30.2957" gradientUnits="userSpaceOnUse">
<stop stop-color="#F82814" stop-opacity="0"/>
<stop offset="0.2454" stop-color="#F12817" stop-opacity="0.245"/>
<stop offset="0.6052" stop-color="#DD2820" stop-opacity="0.605"/>
<stop offset="1" stop-color="#C0272D"/>
</linearGradient>
<linearGradient id="paint3_linear_111_1327" x1="6.27749" y1="35.8434" x2="4.58824" y2="33.2073" gradientUnits="userSpaceOnUse">
<stop stop-color="#F82814" stop-opacity="0"/>
<stop offset="0.2454" stop-color="#F12817" stop-opacity="0.245"/>
<stop offset="0.6052" stop-color="#DD2820" stop-opacity="0.605"/>
<stop offset="1" stop-color="#C0272D"/>
</linearGradient>
<linearGradient id="paint4_linear_111_1327" x1="4.93515" y1="37.3755" x2="3.60154" y2="35.2944" gradientUnits="userSpaceOnUse">
<stop stop-color="#F82814" stop-opacity="0"/>
<stop offset="0.2454" stop-color="#F12817" stop-opacity="0.245"/>
<stop offset="0.6052" stop-color="#DD2820" stop-opacity="0.605"/>
<stop offset="1" stop-color="#C0272D"/>
</linearGradient>
<linearGradient id="paint5_linear_111_1327" x1="7.04116" y1="37.5476" x2="6.23717" y2="36.293" gradientUnits="userSpaceOnUse">
<stop stop-color="#F82814" stop-opacity="0"/>
<stop offset="0.2454" stop-color="#F12817" stop-opacity="0.245"/>
<stop offset="0.6052" stop-color="#DD2820" stop-opacity="0.605"/>
<stop offset="1" stop-color="#C0272D"/>
</linearGradient>
<linearGradient id="paint6_linear_111_1327" x1="9.03792" y1="36.1987" x2="9.65715" y2="33.9701" gradientUnits="userSpaceOnUse">
<stop stop-color="#F82814" stop-opacity="0"/>
<stop offset="0.2454" stop-color="#F12817" stop-opacity="0.245"/>
<stop offset="0.6052" stop-color="#DD2820" stop-opacity="0.605"/>
<stop offset="1" stop-color="#C0272D"/>
</linearGradient>
<linearGradient id="paint7_linear_111_1327" x1="7.53318" y1="36.2143" x2="8.02198" y2="34.455" gradientUnits="userSpaceOnUse">
<stop stop-color="#F82814" stop-opacity="0"/>
<stop offset="0.2454" stop-color="#F12817" stop-opacity="0.245"/>
<stop offset="0.6052" stop-color="#DD2820" stop-opacity="0.605"/>
<stop offset="1" stop-color="#C0272D"/>
</linearGradient>
<linearGradient id="paint8_linear_111_1327" x1="8.47574" y1="37.4585" x2="8.77053" y2="36.3979" gradientUnits="userSpaceOnUse">
<stop stop-color="#F82814" stop-opacity="0"/>
<stop offset="0.2454" stop-color="#F12817" stop-opacity="0.245"/>
<stop offset="0.6052" stop-color="#DD2820" stop-opacity="0.605"/>
<stop offset="1" stop-color="#C0272D"/>
</linearGradient>
<linearGradient id="paint9_linear_111_1327" x1="19.9998" y1="36.8062" x2="19.9998" y2="41.7026" gradientUnits="userSpaceOnUse">
<stop stop-color="#F82814" stop-opacity="0"/>
<stop offset="0.2454" stop-color="#F12817" stop-opacity="0.245"/>
<stop offset="0.6052" stop-color="#DD2820" stop-opacity="0.605"/>
<stop offset="1" stop-color="#C0272D"/>
</linearGradient>
<linearGradient id="paint10_linear_111_1327" x1="19.9999" y1="27.2602" x2="19.9999" y2="35.8285" gradientUnits="userSpaceOnUse">
<stop stop-color="#A57C52"/>
<stop offset="0.1339" stop-color="#A26C4A"/>
<stop offset="0.5155" stop-color="#994336"/>
<stop offset="0.8174" stop-color="#942A2A"/>
<stop offset="1" stop-color="#922125"/>
</linearGradient>
<linearGradient id="paint11_linear_111_1327" x1="20.423" y1="31.1825" x2="20.0636" y2="24.1528" gradientUnits="userSpaceOnUse">
<stop stop-color="#42210B" stop-opacity="0"/>
<stop offset="1" stop-color="#42210B"/>
</linearGradient>
<linearGradient id="paint12_linear_111_1327" x1="37.723" y1="33.3459" x2="32.9001" y2="27.3247" gradientUnits="userSpaceOnUse">
<stop stop-color="#42210B" stop-opacity="0"/>
<stop offset="1" stop-color="#42210B"/>
</linearGradient>
<linearGradient id="paint13_linear_111_1327" x1="23.6718" y1="35.5595" x2="22.4735" y2="30.5569" gradientUnits="userSpaceOnUse">
<stop stop-color="#42210B" stop-opacity="0"/>
<stop offset="1" stop-color="#42210B"/>
</linearGradient>
<linearGradient id="paint14_linear_111_1327" x1="18.602" y1="27.3621" x2="25.6299" y2="34.39" gradientUnits="userSpaceOnUse">
<stop stop-color="#FFD945"/>
<stop offset="0.3043" stop-color="#FFCD3E"/>
<stop offset="0.8558" stop-color="#FFAD2B"/>
<stop offset="1" stop-color="#FFA325"/>
</linearGradient>
<linearGradient id="paint15_linear_111_1327" x1="19.9999" y1="24.9835" x2="19.9999" y2="32.2599" gradientUnits="userSpaceOnUse">
<stop stop-color="#BADA00"/>
<stop offset="0.2269" stop-color="#B0CE00"/>
<stop offset="0.6378" stop-color="#95AE00"/>
<stop offset="1" stop-color="#798C00"/>
</linearGradient>
<linearGradient id="paint16_linear_111_1327" x1="20.4479" y1="29.8503" x2="20.5278" y2="23.0602" gradientUnits="userSpaceOnUse">
<stop stop-color="#798C00" stop-opacity="0"/>
<stop offset="0.6542" stop-color="#556100" stop-opacity="0.654"/>
<stop offset="1" stop-color="#464F00"/>
</linearGradient>
<linearGradient id="paint17_linear_111_1327" x1="14.727" y1="30.147" x2="7.89696" y2="17.8051" gradientUnits="userSpaceOnUse">
<stop stop-color="#798C00" stop-opacity="0"/>
<stop offset="0.6542" stop-color="#556100" stop-opacity="0.654"/>
<stop offset="1" stop-color="#464F00"/>
</linearGradient>
<linearGradient id="paint18_linear_111_1327" x1="35.3522" y1="30.6993" x2="32.746" y2="26.0261" gradientUnits="userSpaceOnUse">
<stop stop-color="#798C00" stop-opacity="0"/>
<stop offset="0.6542" stop-color="#556100" stop-opacity="0.654"/>
<stop offset="1" stop-color="#464F00"/>
</linearGradient>
<linearGradient id="paint19_linear_111_1327" x1="32.0002" y1="26.5657" x2="34.9548" y2="30.369" gradientUnits="userSpaceOnUse">
<stop stop-color="#FFDECF"/>
<stop offset="0.3791" stop-color="#FDC4B0"/>
<stop offset="0.7655" stop-color="#FBAE97"/>
<stop offset="1" stop-color="#FAA68E"/>
</linearGradient>
<linearGradient id="paint20_linear_111_1327" x1="20.0001" y1="23.965" x2="20.0001" y2="27.5642" gradientUnits="userSpaceOnUse">
<stop stop-color="#FF6359"/>
<stop offset="0.2243" stop-color="#FE5B50"/>
<stop offset="0.5952" stop-color="#FC4637"/>
<stop offset="1" stop-color="#F82814"/>
</linearGradient>
<linearGradient id="paint21_linear_111_1327" x1="12.4967" y1="29.0271" x2="10.0203" y2="20.7592" gradientUnits="userSpaceOnUse">
<stop stop-color="#F82814" stop-opacity="0"/>
<stop offset="1" stop-color="#C0272D"/>
</linearGradient>
<linearGradient id="paint22_linear_111_1327" x1="31.218" y1="28.2097" x2="29.7002" y2="24.1357" gradientUnits="userSpaceOnUse">
<stop stop-color="#F82814" stop-opacity="0"/>
<stop offset="1" stop-color="#C0272D"/>
</linearGradient>
<linearGradient id="paint23_linear_111_1327" x1="19.9999" y1="17.3175" x2="19.9999" y2="25.8858" gradientUnits="userSpaceOnUse">
<stop stop-color="#A57C52"/>
<stop offset="0.1339" stop-color="#A26C4A"/>
<stop offset="0.5155" stop-color="#994336"/>
<stop offset="0.8174" stop-color="#942A2A"/>
<stop offset="1" stop-color="#922125"/>
</linearGradient>
<linearGradient id="paint24_linear_111_1327" x1="20.423" y1="21.2399" x2="20.0636" y2="14.2101" gradientUnits="userSpaceOnUse">
<stop stop-color="#42210B" stop-opacity="0"/>
<stop offset="1" stop-color="#42210B"/>
</linearGradient>
<linearGradient id="paint25_linear_111_1327" x1="30.3373" y1="26.114" x2="26.3831" y2="18.8446" gradientUnits="userSpaceOnUse">
<stop stop-color="#42210B" stop-opacity="0"/>
<stop offset="1" stop-color="#42210B"/>
</linearGradient>
<linearGradient id="paint26_linear_111_1327" x1="24.0166" y1="17.4195" x2="31.0445" y2="24.4474" gradientUnits="userSpaceOnUse">
<stop stop-color="#FFD945"/>
<stop offset="0.3043" stop-color="#FFCD3E"/>
<stop offset="0.8558" stop-color="#FFAD2B"/>
<stop offset="1" stop-color="#FFA325"/>
</linearGradient>
<linearGradient id="paint27_linear_111_1327" x1="10.3253" y1="24.9654" x2="8.56789" y2="19.733" gradientUnits="userSpaceOnUse">
<stop stop-color="#42210B" stop-opacity="0"/>
<stop offset="1" stop-color="#42210B"/>
</linearGradient>
<linearGradient id="paint28_linear_111_1327" x1="5.49918" y1="19.436" x2="8.45385" y2="23.2393" gradientUnits="userSpaceOnUse">
<stop stop-color="#FFDECF"/>
<stop offset="0.3791" stop-color="#FDC4B0"/>
<stop offset="0.7655" stop-color="#FBAE97"/>
<stop offset="1" stop-color="#FAA68E"/>
</linearGradient>
<linearGradient id="paint29_linear_111_1327" x1="19.9999" y1="15.0409" x2="19.9999" y2="22.3174" gradientUnits="userSpaceOnUse">
<stop stop-color="#BADA00"/>
<stop offset="0.2269" stop-color="#B0CE00"/>
<stop offset="0.6378" stop-color="#95AE00"/>
<stop offset="1" stop-color="#798C00"/>
</linearGradient>
<linearGradient id="paint30_linear_111_1327" x1="20.4479" y1="19.9081" x2="20.5278" y2="13.1181" gradientUnits="userSpaceOnUse">
<stop stop-color="#798C00" stop-opacity="0"/>
<stop offset="0.6542" stop-color="#556100" stop-opacity="0.654"/>
<stop offset="1" stop-color="#464F00"/>
</linearGradient>
<linearGradient id="paint31_linear_111_1327" x1="20.0001" y1="14.0224" x2="20.0001" y2="17.6217" gradientUnits="userSpaceOnUse">
<stop stop-color="#FF6359"/>
<stop offset="0.2243" stop-color="#FE5B50"/>
<stop offset="0.5952" stop-color="#FC4637"/>
<stop offset="1" stop-color="#F82814"/>
</linearGradient>
<linearGradient id="paint32_linear_111_1327" x1="20.0267" y1="17.8074" x2="20.0866" y2="11.8162" gradientUnits="userSpaceOnUse">
<stop stop-color="#F82814" stop-opacity="0"/>
<stop offset="1" stop-color="#C0272D"/>
</linearGradient>
<linearGradient id="paint33_linear_111_1327" x1="17.9125" y1="2.31449" x2="21.6509" y2="16.4237" gradientUnits="userSpaceOnUse">
<stop stop-color="#FAA68E"/>
<stop offset="0.2061" stop-color="#FBA682"/>
<stop offset="0.5808" stop-color="#FDA861"/>
<stop offset="1" stop-color="#FFA936"/>
</linearGradient>
<linearGradient id="paint34_linear_111_1327" x1="34.0808" y1="9.4833" x2="32.3916" y2="6.84719" gradientUnits="userSpaceOnUse">
<stop stop-color="#F82814" stop-opacity="0"/>
<stop offset="0.2454" stop-color="#F12817" stop-opacity="0.245"/>
<stop offset="0.6052" stop-color="#DD2820" stop-opacity="0.605"/>
<stop offset="1" stop-color="#C0272D"/>
</linearGradient>
<linearGradient id="paint35_linear_111_1327" x1="32.7385" y1="11.0154" x2="31.4049" y2="8.93435" gradientUnits="userSpaceOnUse">
<stop stop-color="#F82814" stop-opacity="0"/>
<stop offset="0.2454" stop-color="#F12817" stop-opacity="0.245"/>
<stop offset="0.6052" stop-color="#DD2820" stop-opacity="0.605"/>
<stop offset="1" stop-color="#C0272D"/>
</linearGradient>
<linearGradient id="paint36_linear_111_1327" x1="34.8445" y1="11.1876" x2="34.0405" y2="9.93286" gradientUnits="userSpaceOnUse">
<stop stop-color="#F82814" stop-opacity="0"/>
<stop offset="0.2454" stop-color="#F12817" stop-opacity="0.245"/>
<stop offset="0.6052" stop-color="#DD2820" stop-opacity="0.605"/>
<stop offset="1" stop-color="#C0272D"/>
</linearGradient>
<linearGradient id="paint37_linear_111_1327" x1="36.8331" y1="9.84219" x2="37.4523" y2="7.61362" gradientUnits="userSpaceOnUse">
<stop stop-color="#F82814" stop-opacity="0"/>
<stop offset="0.2454" stop-color="#F12817" stop-opacity="0.245"/>
<stop offset="0.6052" stop-color="#DD2820" stop-opacity="0.605"/>
<stop offset="1" stop-color="#C0272D"/>
</linearGradient>
<linearGradient id="paint38_linear_111_1327" x1="35.3283" y1="9.8579" x2="35.8171" y2="8.09851" gradientUnits="userSpaceOnUse">
<stop stop-color="#F82814" stop-opacity="0"/>
<stop offset="0.2454" stop-color="#F12817" stop-opacity="0.245"/>
<stop offset="0.6052" stop-color="#DD2820" stop-opacity="0.605"/>
<stop offset="1" stop-color="#C0272D"/>
</linearGradient>
<linearGradient id="paint39_linear_111_1327" x1="36.2709" y1="11.1021" x2="36.5656" y2="10.0414" gradientUnits="userSpaceOnUse">
<stop stop-color="#F82814" stop-opacity="0"/>
<stop offset="0.2454" stop-color="#F12817" stop-opacity="0.245"/>
<stop offset="0.6052" stop-color="#DD2820" stop-opacity="0.605"/>
<stop offset="1" stop-color="#C0272D"/>
</linearGradient>
<linearGradient id="paint40_linear_111_1327" x1="20" y1="9.34834" x2="20" y2="16.4656" gradientUnits="userSpaceOnUse">
<stop stop-color="#F82814" stop-opacity="0"/>
<stop offset="0.2497" stop-color="#F32816" stop-opacity="0.25"/>
<stop offset="0.5421" stop-color="#E5281D" stop-opacity="0.542"/>
<stop offset="0.8547" stop-color="#CE2727" stop-opacity="0.855"/>
<stop offset="1" stop-color="#C0272D"/>
</linearGradient>
<linearGradient id="paint41_linear_111_1327" x1="10.9647" y1="8.44018" x2="11.3642" y2="9.59845" gradientUnits="userSpaceOnUse">
<stop stop-color="#FFDECF"/>
<stop offset="0.3791" stop-color="#FDC4B0"/>
<stop offset="0.7655" stop-color="#FBAE97"/>
<stop offset="1" stop-color="#FAA68E"/>
</linearGradient>
<linearGradient id="paint42_linear_111_1327" x1="16.9178" y1="8.44018" x2="17.3172" y2="9.59845" gradientUnits="userSpaceOnUse">
<stop stop-color="#FFDECF"/>
<stop offset="0.3791" stop-color="#FDC4B0"/>
<stop offset="0.7655" stop-color="#FBAE97"/>
<stop offset="1" stop-color="#FAA68E"/>
</linearGradient>
<linearGradient id="paint43_linear_111_1327" x1="22.8705" y1="8.44018" x2="23.2699" y2="9.59845" gradientUnits="userSpaceOnUse">
<stop stop-color="#FFDECF"/>
<stop offset="0.3791" stop-color="#FDC4B0"/>
<stop offset="0.7655" stop-color="#FBAE97"/>
<stop offset="1" stop-color="#FAA68E"/>
</linearGradient>
<linearGradient id="paint44_linear_111_1327" x1="28.8236" y1="8.44018" x2="29.223" y2="9.59845" gradientUnits="userSpaceOnUse">
<stop stop-color="#FFDECF"/>
<stop offset="0.3791" stop-color="#FDC4B0"/>
<stop offset="0.7655" stop-color="#FBAE97"/>
<stop offset="1" stop-color="#FAA68E"/>
</linearGradient>
<linearGradient id="paint45_linear_111_1327" x1="7.98814" y1="5.6842" x2="8.38759" y2="6.84255" gradientUnits="userSpaceOnUse">
<stop stop-color="#FFDECF"/>
<stop offset="0.3791" stop-color="#FDC4B0"/>
<stop offset="0.7655" stop-color="#FBAE97"/>
<stop offset="1" stop-color="#FAA68E"/>
</linearGradient>
<linearGradient id="paint46_linear_111_1327" x1="13.9413" y1="5.6842" x2="14.3406" y2="6.84255" gradientUnits="userSpaceOnUse">
<stop stop-color="#FFDECF"/>
<stop offset="0.3791" stop-color="#FDC4B0"/>
<stop offset="0.7655" stop-color="#FBAE97"/>
<stop offset="1" stop-color="#FAA68E"/>
</linearGradient>
<linearGradient id="paint47_linear_111_1327" x1="19.8939" y1="5.6842" x2="20.2934" y2="6.84255" gradientUnits="userSpaceOnUse">
<stop stop-color="#FFDECF"/>
<stop offset="0.3791" stop-color="#FDC4B0"/>
<stop offset="0.7655" stop-color="#FBAE97"/>
<stop offset="1" stop-color="#FAA68E"/>
</linearGradient>
<linearGradient id="paint48_linear_111_1327" x1="25.847" y1="5.6842" x2="26.2465" y2="6.84255" gradientUnits="userSpaceOnUse">
<stop stop-color="#FFDECF"/>
<stop offset="0.3791" stop-color="#FDC4B0"/>
<stop offset="0.7655" stop-color="#FBAE97"/>
<stop offset="1" stop-color="#FAA68E"/>
</linearGradient>
<linearGradient id="paint49_linear_111_1327" x1="31.8002" y1="5.6842" x2="32.1995" y2="6.84255" gradientUnits="userSpaceOnUse">
<stop stop-color="#FFDECF"/>
<stop offset="0.3791" stop-color="#FDC4B0"/>
<stop offset="0.7655" stop-color="#FBAE97"/>
<stop offset="1" stop-color="#FAA68E"/>
</linearGradient>
<linearGradient id="paint50_linear_111_1327" x1="10.9647" y1="2.92822" x2="11.3642" y2="4.08649" gradientUnits="userSpaceOnUse">
<stop stop-color="#FFDECF"/>
<stop offset="0.3791" stop-color="#FDC4B0"/>
<stop offset="0.7655" stop-color="#FBAE97"/>
<stop offset="1" stop-color="#FAA68E"/>
</linearGradient>
<linearGradient id="paint51_linear_111_1327" x1="16.9178" y1="2.92822" x2="17.3172" y2="4.08649" gradientUnits="userSpaceOnUse">
<stop stop-color="#FFDECF"/>
<stop offset="0.3791" stop-color="#FDC4B0"/>
<stop offset="0.7655" stop-color="#FBAE97"/>
<stop offset="1" stop-color="#FAA68E"/>
</linearGradient>
<linearGradient id="paint52_linear_111_1327" x1="22.8705" y1="2.92822" x2="23.2699" y2="4.08649" gradientUnits="userSpaceOnUse">
<stop stop-color="#FFDECF"/>
<stop offset="0.3791" stop-color="#FDC4B0"/>
<stop offset="0.7655" stop-color="#FBAE97"/>
<stop offset="1" stop-color="#FAA68E"/>
</linearGradient>
<linearGradient id="paint53_linear_111_1327" x1="28.8236" y1="2.92822" x2="29.223" y2="4.08649" gradientUnits="userSpaceOnUse">
<stop stop-color="#FFDECF"/>
<stop offset="0.3791" stop-color="#FDC4B0"/>
<stop offset="0.7655" stop-color="#FBAE97"/>
<stop offset="1" stop-color="#FAA68E"/>
</linearGradient>
<linearGradient id="paint54_linear_111_1327" x1="19.8939" y1="0.172235" x2="20.2934" y2="1.33051" gradientUnits="userSpaceOnUse">
<stop stop-color="#FFDECF"/>
<stop offset="0.3791" stop-color="#FDC4B0"/>
<stop offset="0.7655" stop-color="#FBAE97"/>
<stop offset="1" stop-color="#FAA68E"/>
</linearGradient>
<linearGradient id="paint55_linear_111_1327" x1="25.8108" y1="0.472025" x2="25.9756" y2="1.68658" gradientUnits="userSpaceOnUse">
<stop stop-color="#FFDECF"/>
<stop offset="0.3791" stop-color="#FDC4B0"/>
<stop offset="0.7655" stop-color="#FBAE97"/>
<stop offset="1" stop-color="#FAA68E"/>
</linearGradient>
<linearGradient id="paint56_linear_111_1327" x1="14.2512" y1="0.481317" x2="14.0863" y2="1.69595" gradientUnits="userSpaceOnUse">
<stop stop-color="#FFDECF"/>
<stop offset="0.3791" stop-color="#FDC4B0"/>
<stop offset="0.7655" stop-color="#FBAE97"/>
<stop offset="1" stop-color="#FAA68E"/>
</linearGradient>
<clipPath id="clip0_111_1327">
<rect width="40" height="40" fill="white"/>
</clipPath>
</defs>
</svg>
