<svg width="40" height="40" viewBox="0 0 40 40" fill="none" xmlns="http://www.w3.org/2000/svg">
<g clip-path="url(#clip0_111_1402)">
<path d="M39.7727 12.9293C39.6436 12.5192 39.6231 12.0423 39.7245 11.5251L39.7393 11.4497C39.9589 10.3298 39.4905 9.49274 38.5422 9.31008C37.7331 9.15423 37.2641 8.51863 37.2931 7.61737L37.2965 7.51282C37.3287 6.51337 36.7492 5.84898 35.792 5.78788L35.7184 5.78317C34.8393 5.7271 34.2733 5.1609 34.2174 4.28176L34.2127 4.20859C34.1518 3.25133 33.4876 2.67172 32.4882 2.7038L32.402 2.70655C31.4956 2.73564 30.854 2.26764 30.6903 1.45815L30.6902 1.45745C30.4985 0.509841 29.6552 0.0439584 28.5305 0.264507L28.475 0.275409C27.9578 0.376821 27.4809 0.356194 27.0708 0.227096C25.9417 -0.128277 25.0043 -0.0883553 24.4138 0.502233L14.001 10.9149L29.0849 25.9989L39.4976 15.5862C40.0881 14.9956 40.1281 14.0584 39.7727 12.9293Z" fill="url(#paint0_linear_111_1402)"/>
<path d="M26.9573 3.95757C24.0519 6.78024 35.9636 19.0415 38.8691 16.2188C39.3701 15.7322 39.4303 14.9648 39.1723 14.0426C39.0785 13.7076 39.0756 13.3174 39.1738 12.8935L39.1844 12.848C39.3979 11.9262 39.0411 11.2385 38.2705 11.087L38.27 11.0869C37.6118 10.9575 37.2473 10.4349 37.2977 9.69295L37.3025 9.62236C37.358 8.80424 36.9028 8.26377 36.1206 8.2193L36.0608 8.21593C35.3424 8.17506 34.8953 7.71498 34.8751 6.99577L34.8734 6.93553C34.8514 6.1524 34.3242 5.68181 33.5047 5.71381L33.419 5.71718C32.68 5.74604 32.1732 5.36565 32.0693 4.70432C31.9475 3.92918 31.2756 3.55051 30.352 3.73655L30.2899 3.7491C29.8633 3.83506 29.4734 3.82087 29.1413 3.71757C28.227 3.43287 27.4582 3.47091 26.9573 3.95757Z" fill="url(#paint1_linear_111_1402)"/>
<path d="M34.5661 9.30612C34.6315 7.99263 34.1628 6.97122 33.1596 5.968C31.276 4.0844 28.222 4.0844 26.3383 5.968C25.3351 6.97122 24.8664 7.99263 24.9318 9.30612V21.8457L29.0849 25.9988L34.5661 20.5176V9.30612Z" fill="url(#paint2_linear_111_1402)"/>
<path d="M35.2466 15.1951C32.2725 13.6041 29.8361 11.1679 28.2452 8.19374C27.9801 7.69813 28.3392 7.09875 28.9013 7.09875H34.3304C35.4412 7.09875 36.3416 7.99915 36.3416 9.10989V14.539C36.3415 15.1011 35.7422 15.4602 35.2466 15.1951Z" fill="url(#paint3_linear_111_1402)"/>
<path d="M34.5664 9.30621C34.6037 8.5553 34.3874 7.79766 34.0757 7.09875H28.9013C28.3393 7.09875 27.9801 7.69805 28.2452 8.19374C29.7131 10.9377 31.9008 13.2232 34.5663 14.8101L34.5664 9.30621Z" fill="url(#paint4_linear_111_1402)"/>
<path d="M24.9659 11.2164C27.6297 11.2164 29.7892 9.05695 29.7892 6.39312C29.7892 3.72929 27.6297 1.56982 24.9659 1.56982C22.302 1.56982 20.1426 3.72929 20.1426 6.39312C20.1426 9.05695 22.302 11.2164 24.9659 11.2164Z" fill="url(#paint5_linear_111_1402)"/>
<path d="M36.6392 18.8678C34.5959 19.8327 32.2887 19.2366 31.4859 17.5365C30.683 15.8365 31.6887 13.6761 33.7321 12.7112C35.7753 11.7463 38.0826 12.3424 38.8854 14.0425C39.6882 15.7426 38.6825 17.903 36.6392 18.8678Z" fill="url(#paint6_linear_111_1402)"/>
<path d="M33.1598 5.65428C31.2762 3.77068 28.2222 3.77068 26.3385 5.65428C24.4548 7.53789 24.4549 10.5919 26.3385 12.4756C28.2221 14.3592 31.2762 14.3592 33.1598 12.4756C35.0435 10.592 35.0435 7.53797 33.1598 5.65428ZM27.5833 11.2308C26.3873 10.0348 26.3873 8.09515 27.5833 6.89915C28.7793 5.70315 30.7185 5.70362 31.9145 6.89962C33.1105 8.09562 33.111 10.0348 31.915 11.2308C30.719 12.4268 28.7793 12.4268 27.5833 11.2308Z" fill="url(#paint7_linear_111_1402)"/>
<path d="M26.9119 11.9021C28.4786 13.4688 31.0194 13.4688 32.5861 11.9021C34.1532 10.3349 34.1527 7.79463 32.5861 6.22797C31.0189 4.66083 28.4791 4.66083 26.9119 6.22797C25.3453 7.79463 25.3449 10.3349 26.9119 11.9021ZM31.9149 6.89918C33.1109 8.09518 33.1109 10.0349 31.9149 11.2309C30.7189 12.4269 28.7797 12.4264 27.5837 11.2304C26.3877 10.0344 26.3872 8.09518 27.5832 6.89918C28.7791 5.70318 30.7189 5.70318 31.9149 6.89918Z" fill="url(#paint8_linear_111_1402)"/>
<path d="M32.1808 21.9178L36.2253 17.8733C37.0124 17.0862 37.2606 15.9515 36.8187 15.1189C35.8298 13.2558 33.9636 10.8332 31.5651 8.43478C29.1667 6.03635 26.7441 4.17 24.881 3.18121C24.0484 2.73933 22.9138 2.98749 22.1266 3.77462L18.0821 7.81909C17.6919 8.20937 17.7274 8.80576 18.1552 9.00027C20.0796 9.87525 30.1247 19.9203 30.9996 21.8447C31.1941 22.2725 31.7905 22.308 32.1808 21.9178Z" fill="url(#paint9_linear_111_1402)"/>
<path d="M20.9686 4.93281L18.7936 7.10779C18.4865 7.72654 18.3214 8.39736 18.2964 9.07258C19.7983 9.91352 24.6617 14.5721 27.9329 18.0945V9.48473C27.9957 8.17399 27.5267 6.84254 26.5257 5.8416C25.0221 4.33783 22.7732 4.03587 20.9686 4.93281Z" fill="url(#paint10_linear_111_1402)"/>
<path d="M26.5256 5.84142C24.642 3.95781 21.5879 3.95781 19.7042 5.84142C17.8206 7.72502 17.8206 10.7791 19.7042 12.6628C21.5878 14.5464 24.6419 14.5464 26.5256 12.6628C28.4093 10.7791 28.4092 7.7251 26.5256 5.84142ZM20.949 11.418C19.753 10.222 19.753 8.28228 20.949 7.08628C22.145 5.89028 24.0842 5.89075 25.2802 7.08675C26.4762 8.28275 26.4767 10.222 25.2807 11.418C24.0847 12.614 22.145 12.614 20.949 11.418Z" fill="url(#paint11_linear_111_1402)"/>
<path d="M20.2777 12.0892C21.8443 13.6559 24.3851 13.6559 25.9518 12.0892C27.5189 10.5221 27.5184 7.98177 25.9518 6.4151C24.3846 4.84796 21.8448 4.84796 20.2777 6.4151C18.7111 7.98169 18.7106 10.5221 20.2777 12.0892ZM25.2806 7.08631C26.4766 8.28232 26.4766 10.222 25.2806 11.418C24.0846 12.614 22.1454 12.6135 20.9494 11.4175C19.7534 10.2215 19.753 8.28232 20.949 7.08631C22.1449 5.89031 24.0846 5.89031 25.2806 7.08631Z" fill="url(#paint12_linear_111_1402)"/>
<path d="M22.295 14.8358C21.638 18.5454 36.5891 21.1932 37.2461 17.4836C37.3593 16.844 37.0084 16.236 36.3469 15.6868C36.1066 15.4872 35.9038 15.1965 35.757 14.8249L35.7412 14.7851C35.4221 13.9773 34.8095 13.6579 34.1724 13.9673L34.1719 13.9675C33.6276 14.2318 33.0943 14.0404 32.7493 13.4569L32.7165 13.4013C32.336 12.7579 31.7277 12.6028 31.1371 12.9989L31.092 13.0292C30.5496 13.3929 29.9885 13.2937 29.604 12.7659L29.5717 12.7217C29.153 12.147 28.5284 12.0838 27.9501 12.5576L27.8896 12.6071C27.3681 13.0344 26.8047 13.0276 26.3891 12.5892C25.902 12.0753 25.2197 12.1604 24.6451 12.8068L24.6064 12.8502C24.341 13.1488 24.0507 13.3522 23.7565 13.457C22.9466 13.7458 22.4082 14.1962 22.295 14.8358Z" fill="url(#paint13_linear_111_1402)"/>
<path d="M36.5607 17.9883C33.4442 14.8717 29.0218 13.8577 25.055 14.9451C26.1424 10.9782 25.1283 6.55581 22.0118 3.43933C21.6071 3.03471 20.9512 3.03471 20.5466 3.43933L1.90298 22.0829C-0.519691 24.5056 -0.646514 28.3969 1.62219 30.9642C2.72635 32.2137 3.93106 33.4963 5.21733 34.7826C6.5036 36.069 7.78627 37.2736 9.03576 38.3778C11.6031 40.6465 15.4944 40.5197 17.917 38.0971L36.5606 19.4535C36.9653 19.0488 36.9653 18.3929 36.5607 17.9883Z" fill="url(#paint14_linear_111_1402)"/>
<path d="M22.0116 3.43933C21.6069 3.03471 20.951 3.03471 20.5464 3.43933L1.90285 22.0829C-0.520993 24.5067 -0.645071 28.3992 1.62505 30.9676C2.41273 31.8589 3.25156 32.7669 4.13462 33.6811L19.8276 17.9881C21.3318 16.4839 23.1404 15.4696 25.0549 14.9448C26.1421 10.9781 25.128 6.55581 22.0116 3.43933Z" fill="url(#paint15_linear_111_1402)"/>
<path d="M1.90298 22.0829C-0.519691 24.5056 -0.646514 28.3968 1.62219 30.9641C2.72635 32.2136 3.93106 33.4962 5.21741 34.7826C6.50376 36.0689 7.78635 37.2736 9.03584 38.3778C11.6032 40.6465 15.4945 40.5197 17.9171 38.097L1.90298 22.0829Z" fill="url(#paint16_linear_111_1402)"/>
<g opacity="0.6">
<path d="M11.7504 15.8598C12.0686 15.8598 12.3265 15.6019 12.3265 15.2837C12.3265 14.9656 12.0686 14.7076 11.7504 14.7076C11.4322 14.7076 11.1743 14.9656 11.1743 15.2837C11.1743 15.6019 11.4322 15.8598 11.7504 15.8598Z" fill="url(#paint17_linear_111_1402)"/>
<path d="M11.9684 17.5593C12.2196 17.5593 12.4232 17.3557 12.4232 17.1045C12.4232 16.8534 12.2196 16.6498 11.9684 16.6498C11.7173 16.6498 11.5137 16.8534 11.5137 17.1045C11.5137 17.3557 11.7173 17.5593 11.9684 17.5593Z" fill="url(#paint18_linear_111_1402)"/>
<path d="M13.6878 16.3209C13.8392 16.3209 13.962 16.1981 13.962 16.0467C13.962 15.8952 13.8392 15.7725 13.6878 15.7725C13.5363 15.7725 13.4136 15.8952 13.4136 16.0467C13.4136 16.1981 13.5363 16.3209 13.6878 16.3209Z" fill="url(#paint19_linear_111_1402)"/>
<path d="M14.2889 13.9715C14.524 13.9715 14.7146 13.781 14.7146 13.5459C14.7146 13.3108 14.524 13.1202 14.2889 13.1202C14.0538 13.1202 13.8633 13.3108 13.8633 13.5459C13.8633 13.781 14.0538 13.9715 14.2889 13.9715Z" fill="url(#paint20_linear_111_1402)"/>
<path d="M13.3937 14.8991C13.5793 14.8991 13.7298 14.7486 13.7298 14.563C13.7298 14.3774 13.5793 14.2269 13.3937 14.2269C13.2081 14.2269 13.0576 14.3774 13.0576 14.563C13.0576 14.7486 13.2081 14.8991 13.3937 14.8991Z" fill="url(#paint21_linear_111_1402)"/>
<path d="M14.8232 15.1912C14.9351 15.1912 15.0258 15.1005 15.0258 14.9886C15.0258 14.8767 14.9351 14.786 14.8232 14.786C14.7113 14.786 14.6206 14.8767 14.6206 14.9886C14.6206 15.1005 14.7113 15.1912 14.8232 15.1912Z" fill="url(#paint22_linear_111_1402)"/>
</g>
<g opacity="0.6">
<path d="M9.47793 31.101C9.79609 31.101 10.054 30.8431 10.054 30.5249C10.054 30.2068 9.79609 29.9489 9.47793 29.9489C9.15977 29.9489 8.90186 30.2068 8.90186 30.5249C8.90186 30.8431 9.15977 31.101 9.47793 31.101Z" fill="url(#paint23_linear_111_1402)"/>
<path d="M8.40836 32.4693C8.65951 32.4693 8.8631 32.2657 8.8631 32.0146C8.8631 31.7634 8.65951 31.5598 8.40836 31.5598C8.15721 31.5598 7.95361 31.7634 7.95361 32.0146C7.95361 32.2657 8.15721 32.4693 8.40836 32.4693Z" fill="url(#paint24_linear_111_1402)"/>
<path d="M10.3904 32.6703C10.5418 32.6703 10.6646 32.5476 10.6646 32.3961C10.6646 32.2447 10.5418 32.1219 10.3904 32.1219C10.239 32.1219 10.1162 32.2447 10.1162 32.3961C10.1162 32.5476 10.239 32.6703 10.3904 32.6703Z" fill="url(#paint25_linear_111_1402)"/>
<path d="M30.037 21.8537C30.3552 21.8537 30.6131 21.5958 30.6131 21.2776C30.6131 20.9595 30.3552 20.7015 30.037 20.7015C29.7189 20.7015 29.4609 20.9595 29.4609 21.2776C29.4609 21.5958 29.7189 21.8537 30.037 21.8537Z" fill="url(#paint26_linear_111_1402)"/>
<path d="M28.9674 23.222C29.2186 23.222 29.4222 23.0184 29.4222 22.7672C29.4222 22.5161 29.2186 22.3125 28.9674 22.3125C28.7163 22.3125 28.5127 22.5161 28.5127 22.7672C28.5127 23.0184 28.7163 23.222 28.9674 23.222Z" fill="url(#paint27_linear_111_1402)"/>
<path d="M30.95 23.423C31.1014 23.423 31.2242 23.3003 31.2242 23.1488C31.2242 22.9974 31.1014 22.8746 30.95 22.8746C30.7985 22.8746 30.6758 22.9974 30.6758 23.1488C30.6758 23.3003 30.7985 23.423 30.95 23.423Z" fill="url(#paint28_linear_111_1402)"/>
<path d="M12.5238 31.3847C12.7589 31.3847 12.9494 31.1942 12.9494 30.9591C12.9494 30.724 12.7589 30.5334 12.5238 30.5334C12.2887 30.5334 12.0981 30.724 12.0981 30.9591C12.0981 31.1942 12.2887 31.3847 12.5238 31.3847Z" fill="url(#paint29_linear_111_1402)"/>
<path d="M11.1764 31.44C11.362 31.44 11.5125 31.2895 11.5125 31.1039C11.5125 30.9183 11.362 30.7678 11.1764 30.7678C10.9908 30.7678 10.8403 30.9183 10.8403 31.1039C10.8403 31.2895 10.9908 31.44 11.1764 31.44Z" fill="url(#paint30_linear_111_1402)"/>
<path d="M11.9428 32.5862C12.0547 32.5862 12.1454 32.4955 12.1454 32.3836C12.1454 32.2717 12.0547 32.181 11.9428 32.181C11.8309 32.181 11.7402 32.2717 11.7402 32.3836C11.7402 32.4955 11.8309 32.5862 11.9428 32.5862Z" fill="url(#paint31_linear_111_1402)"/>
</g>
</g>
<defs>
<linearGradient id="paint0_linear_111_1402" x1="35.2974" y1="4.70477" x2="29.1583" y2="10.8439" gradientUnits="userSpaceOnUse">
<stop stop-color="#BADA00"/>
<stop offset="0.2269" stop-color="#B0CE00"/>
<stop offset="0.6378" stop-color="#95AE00"/>
<stop offset="1" stop-color="#798C00"/>
</linearGradient>
<linearGradient id="paint1_linear_111_1402" x1="34.1506" y1="8.31138" x2="38.6682" y2="1.81286" gradientUnits="userSpaceOnUse">
<stop stop-color="#798C00" stop-opacity="0"/>
<stop offset="0.6542" stop-color="#556100" stop-opacity="0.654"/>
<stop offset="1" stop-color="#464F00"/>
</linearGradient>
<linearGradient id="paint2_linear_111_1402" x1="30.2353" y1="12.7096" x2="32.6883" y2="3.58846" gradientUnits="userSpaceOnUse">
<stop stop-color="#798C00" stop-opacity="0"/>
<stop offset="0.6542" stop-color="#556100" stop-opacity="0.654"/>
<stop offset="1" stop-color="#464F00"/>
</linearGradient>
<linearGradient id="paint3_linear_111_1402" x1="32.2517" y1="6.98203" x2="32.2517" y2="15.6572" gradientUnits="userSpaceOnUse">
<stop stop-color="#FFD945"/>
<stop offset="0.3043" stop-color="#FFCD3E"/>
<stop offset="0.8558" stop-color="#FFAD2B"/>
<stop offset="1" stop-color="#FFA325"/>
</linearGradient>
<linearGradient id="paint4_linear_111_1402" x1="31.6411" y1="10.8413" x2="34.7564" y2="6.81534" gradientUnits="userSpaceOnUse">
<stop stop-color="#F82814" stop-opacity="0"/>
<stop offset="1" stop-color="#C0272D"/>
</linearGradient>
<linearGradient id="paint5_linear_111_1402" x1="26.3935" y1="2.23796" x2="24.4726" y2="7.84384" gradientUnits="userSpaceOnUse">
<stop stop-color="#FF6359"/>
<stop offset="0.2243" stop-color="#FE5B50"/>
<stop offset="0.5952" stop-color="#FC4637"/>
<stop offset="1" stop-color="#F82814"/>
</linearGradient>
<linearGradient id="paint6_linear_111_1402" x1="38.0768" y1="14.7237" x2="36.2408" y2="15.4" gradientUnits="userSpaceOnUse">
<stop stop-color="#FF6359"/>
<stop offset="0.2243" stop-color="#FE5B50"/>
<stop offset="0.5952" stop-color="#FC4637"/>
<stop offset="1" stop-color="#F82814"/>
</linearGradient>
<linearGradient id="paint7_linear_111_1402" x1="31.1762" y1="4.90925" x2="29.2553" y2="10.5153" gradientUnits="userSpaceOnUse">
<stop stop-color="#FFDECF"/>
<stop offset="0.3791" stop-color="#FDC4B0"/>
<stop offset="0.7655" stop-color="#FBAE97"/>
<stop offset="1" stop-color="#FAA68E"/>
</linearGradient>
<linearGradient id="paint8_linear_111_1402" x1="28.5621" y1="12.5347" x2="30.1599" y2="7.87152" gradientUnits="userSpaceOnUse">
<stop stop-color="#FFDECF"/>
<stop offset="0.3791" stop-color="#FDC4B0"/>
<stop offset="0.7655" stop-color="#FBAE97"/>
<stop offset="1" stop-color="#FAA68E"/>
</linearGradient>
<linearGradient id="paint9_linear_111_1402" x1="31.2872" y1="8.71499" x2="25.1463" y2="14.8559" gradientUnits="userSpaceOnUse">
<stop stop-color="#A57C52"/>
<stop offset="0.1339" stop-color="#A26C4A"/>
<stop offset="0.5155" stop-color="#994336"/>
<stop offset="0.8174" stop-color="#942A2A"/>
<stop offset="1" stop-color="#922125"/>
</linearGradient>
<linearGradient id="paint10_linear_111_1402" x1="23.1217" y1="18.958" x2="23.1217" y2="3.98512" gradientUnits="userSpaceOnUse">
<stop stop-color="#42210B" stop-opacity="0"/>
<stop offset="1" stop-color="#42210B"/>
</linearGradient>
<linearGradient id="paint11_linear_111_1402" x1="24.5429" y1="5.09639" x2="22.622" y2="10.7024" gradientUnits="userSpaceOnUse">
<stop stop-color="#FFDECF"/>
<stop offset="0.3791" stop-color="#FDC4B0"/>
<stop offset="0.7655" stop-color="#FBAE97"/>
<stop offset="1" stop-color="#FAA68E"/>
</linearGradient>
<linearGradient id="paint12_linear_111_1402" x1="21.9288" y1="12.7218" x2="23.5267" y2="8.05856" gradientUnits="userSpaceOnUse">
<stop stop-color="#FFDECF"/>
<stop offset="0.3791" stop-color="#FDC4B0"/>
<stop offset="0.7655" stop-color="#FBAE97"/>
<stop offset="1" stop-color="#FAA68E"/>
</linearGradient>
<linearGradient id="paint13_linear_111_1402" x1="30.444" y1="12.9988" x2="29.8802" y2="15.6562" gradientUnits="userSpaceOnUse">
<stop stop-color="#BADA00"/>
<stop offset="0.2269" stop-color="#B0CE00"/>
<stop offset="0.6378" stop-color="#95AE00"/>
<stop offset="1" stop-color="#798C00"/>
</linearGradient>
<linearGradient id="paint14_linear_111_1402" x1="10.6018" y1="11.5898" x2="23.9458" y2="31.8917" gradientUnits="userSpaceOnUse">
<stop stop-color="#FAA68E"/>
<stop offset="0.2061" stop-color="#FBA682"/>
<stop offset="0.5808" stop-color="#FDA861"/>
<stop offset="1" stop-color="#FFA936"/>
</linearGradient>
<linearGradient id="paint15_linear_111_1402" x1="11.6831" y1="16.5657" x2="21.5901" y2="35.2962" gradientUnits="userSpaceOnUse">
<stop stop-color="#F82814" stop-opacity="0"/>
<stop offset="0.2454" stop-color="#F12817" stop-opacity="0.245"/>
<stop offset="0.6052" stop-color="#DD2820" stop-opacity="0.605"/>
<stop offset="1" stop-color="#C0272D"/>
</linearGradient>
<linearGradient id="paint16_linear_111_1402" x1="8.13585" y1="31.8665" x2="4.22717" y2="35.7752" gradientUnits="userSpaceOnUse">
<stop stop-color="#F82814" stop-opacity="0"/>
<stop offset="0.2454" stop-color="#F12817" stop-opacity="0.245"/>
<stop offset="0.6052" stop-color="#DD2820" stop-opacity="0.605"/>
<stop offset="1" stop-color="#C0272D"/>
</linearGradient>
<linearGradient id="paint17_linear_111_1402" x1="12.63" y1="15.5384" x2="9.99499" y2="14.8403" gradientUnits="userSpaceOnUse">
<stop stop-color="#F82814" stop-opacity="0"/>
<stop offset="0.2454" stop-color="#F12817" stop-opacity="0.245"/>
<stop offset="0.6052" stop-color="#DD2820" stop-opacity="0.605"/>
<stop offset="1" stop-color="#C0272D"/>
</linearGradient>
<linearGradient id="paint18_linear_111_1402" x1="12.67" y1="17.3114" x2="10.5897" y2="16.7603" gradientUnits="userSpaceOnUse">
<stop stop-color="#F82814" stop-opacity="0"/>
<stop offset="0.2454" stop-color="#F12817" stop-opacity="0.245"/>
<stop offset="0.6052" stop-color="#DD2820" stop-opacity="0.605"/>
<stop offset="1" stop-color="#C0272D"/>
</linearGradient>
<linearGradient id="paint19_linear_111_1402" x1="14.1229" y1="16.1831" x2="12.8688" y2="15.8508" gradientUnits="userSpaceOnUse">
<stop stop-color="#F82814" stop-opacity="0"/>
<stop offset="0.2454" stop-color="#F12817" stop-opacity="0.245"/>
<stop offset="0.6052" stop-color="#DD2820" stop-opacity="0.605"/>
<stop offset="1" stop-color="#C0272D"/>
</linearGradient>
<linearGradient id="paint20_linear_111_1402" x1="14.6081" y1="14.0908" x2="13.6953" y2="12.2948" gradientUnits="userSpaceOnUse">
<stop stop-color="#F82814" stop-opacity="0"/>
<stop offset="0.2454" stop-color="#F12817" stop-opacity="0.245"/>
<stop offset="0.6052" stop-color="#DD2820" stop-opacity="0.605"/>
<stop offset="1" stop-color="#C0272D"/>
</linearGradient>
<linearGradient id="paint21_linear_111_1402" x1="13.6508" y1="14.9859" x2="12.9302" y2="13.568" gradientUnits="userSpaceOnUse">
<stop stop-color="#F82814" stop-opacity="0"/>
<stop offset="0.2454" stop-color="#F12817" stop-opacity="0.245"/>
<stop offset="0.6052" stop-color="#DD2820" stop-opacity="0.605"/>
<stop offset="1" stop-color="#C0272D"/>
</linearGradient>
<linearGradient id="paint22_linear_111_1402" x1="14.988" y1="15.2309" x2="14.5535" y2="14.3761" gradientUnits="userSpaceOnUse">
<stop stop-color="#F82814" stop-opacity="0"/>
<stop offset="0.2454" stop-color="#F12817" stop-opacity="0.245"/>
<stop offset="0.6052" stop-color="#DD2820" stop-opacity="0.605"/>
<stop offset="1" stop-color="#C0272D"/>
</linearGradient>
<linearGradient id="paint23_linear_111_1402" x1="9.89985" y1="31.2566" x2="8.42801" y2="28.9597" gradientUnits="userSpaceOnUse">
<stop stop-color="#F82814" stop-opacity="0"/>
<stop offset="0.2454" stop-color="#F12817" stop-opacity="0.245"/>
<stop offset="0.6052" stop-color="#DD2820" stop-opacity="0.605"/>
<stop offset="1" stop-color="#C0272D"/>
</linearGradient>
<linearGradient id="paint24_linear_111_1402" x1="8.73025" y1="32.5915" x2="7.56831" y2="30.7782" gradientUnits="userSpaceOnUse">
<stop stop-color="#F82814" stop-opacity="0"/>
<stop offset="0.2454" stop-color="#F12817" stop-opacity="0.245"/>
<stop offset="0.6052" stop-color="#DD2820" stop-opacity="0.605"/>
<stop offset="1" stop-color="#C0272D"/>
</linearGradient>
<linearGradient id="paint25_linear_111_1402" x1="10.5649" y1="32.7415" x2="9.86446" y2="31.6483" gradientUnits="userSpaceOnUse">
<stop stop-color="#F82814" stop-opacity="0"/>
<stop offset="0.2454" stop-color="#F12817" stop-opacity="0.245"/>
<stop offset="0.6052" stop-color="#DD2820" stop-opacity="0.605"/>
<stop offset="1" stop-color="#C0272D"/>
</linearGradient>
<linearGradient id="paint26_linear_111_1402" x1="30.4684" y1="22.0022" x2="28.9966" y2="19.7053" gradientUnits="userSpaceOnUse">
<stop stop-color="#F82814" stop-opacity="0"/>
<stop offset="0.2454" stop-color="#F12817" stop-opacity="0.245"/>
<stop offset="0.6052" stop-color="#DD2820" stop-opacity="0.605"/>
<stop offset="1" stop-color="#C0272D"/>
</linearGradient>
<linearGradient id="paint27_linear_111_1402" x1="29.2989" y1="23.3372" x2="28.1369" y2="21.5239" gradientUnits="userSpaceOnUse">
<stop stop-color="#F82814" stop-opacity="0"/>
<stop offset="0.2454" stop-color="#F12817" stop-opacity="0.245"/>
<stop offset="0.6052" stop-color="#DD2820" stop-opacity="0.605"/>
<stop offset="1" stop-color="#C0272D"/>
</linearGradient>
<linearGradient id="paint28_linear_111_1402" x1="31.134" y1="23.4872" x2="30.4335" y2="22.394" gradientUnits="userSpaceOnUse">
<stop stop-color="#F82814" stop-opacity="0"/>
<stop offset="0.2454" stop-color="#F12817" stop-opacity="0.245"/>
<stop offset="0.6052" stop-color="#DD2820" stop-opacity="0.605"/>
<stop offset="1" stop-color="#C0272D"/>
</linearGradient>
<linearGradient id="paint29_linear_111_1402" x1="12.3264" y1="31.5751" x2="12.8659" y2="29.6333" gradientUnits="userSpaceOnUse">
<stop stop-color="#F82814" stop-opacity="0"/>
<stop offset="0.2454" stop-color="#F12817" stop-opacity="0.245"/>
<stop offset="0.6052" stop-color="#DD2820" stop-opacity="0.605"/>
<stop offset="1" stop-color="#C0272D"/>
</linearGradient>
<linearGradient id="paint30_linear_111_1402" x1="11.0152" y1="31.5888" x2="11.4411" y2="30.0558" gradientUnits="userSpaceOnUse">
<stop stop-color="#F82814" stop-opacity="0"/>
<stop offset="0.2454" stop-color="#F12817" stop-opacity="0.245"/>
<stop offset="0.6052" stop-color="#DD2820" stop-opacity="0.605"/>
<stop offset="1" stop-color="#C0272D"/>
</linearGradient>
<linearGradient id="paint31_linear_111_1402" x1="11.8365" y1="32.6729" x2="12.0933" y2="31.7487" gradientUnits="userSpaceOnUse">
<stop stop-color="#F82814" stop-opacity="0"/>
<stop offset="0.2454" stop-color="#F12817" stop-opacity="0.245"/>
<stop offset="0.6052" stop-color="#DD2820" stop-opacity="0.605"/>
<stop offset="1" stop-color="#C0272D"/>
</linearGradient>
<clipPath id="clip0_111_1402">
<rect width="40" height="40" fill="white"/>
</clipPath>
</defs>
</svg>
