<svg width="13" height="13" viewBox="0 0 13 13" fill="none" xmlns="http://www.w3.org/2000/svg">
<g clip-path="url(#clip0_111_953)">
<path d="M9.88332 8.5997C9.45861 8.1804 8.92839 8.1804 8.50638 8.5997C8.18447 8.91892 7.86255 9.23813 7.54605 9.56275C7.45948 9.65202 7.38644 9.67095 7.28094 9.61144C7.07264 9.49782 6.85081 9.40585 6.65063 9.28141C5.71735 8.69439 4.93555 7.93964 4.24302 7.09022C3.89947 6.66821 3.59378 6.21644 3.38007 5.70787C3.33679 5.60507 3.3449 5.53744 3.42877 5.45358C3.75068 5.14249 4.06448 4.82328 4.38099 4.50407C4.82193 4.06042 4.82193 3.54102 4.37828 3.09467C4.1267 2.84038 3.87512 2.59151 3.62354 2.33722C3.36384 2.07752 3.10685 1.81512 2.84445 1.55813C2.41973 1.14424 1.88952 1.14424 1.46751 1.56083C1.14289 1.88004 0.831795 2.20737 0.501763 2.52117C0.196078 2.81063 0.0418832 3.165 0.00942112 3.5789C-0.0419772 4.25249 0.123039 4.8882 0.355684 5.50769C0.831795 6.78994 1.55678 7.92882 2.43597 8.97302C3.62354 10.3851 5.04105 11.5024 6.69932 12.3085C7.44595 12.671 8.21963 12.9496 9.06094 12.9956C9.63985 13.0281 10.143 12.882 10.5461 12.4302C10.822 12.1218 11.1331 11.8405 11.4253 11.5456C11.8581 11.1074 11.8608 10.5772 11.4307 10.1444C10.9167 9.62767 10.4 9.11369 9.88332 8.5997Z" fill="#FFF1DB"/>
<path d="M9.36674 6.44369L10.3649 6.27326C10.208 5.3562 9.77522 4.52572 9.11786 3.86565C8.42263 3.17042 7.54345 2.73218 6.575 2.59692L6.43433 3.60054C7.18366 3.70605 7.86536 4.04419 8.40369 4.58252C8.91227 5.0911 9.24501 5.73493 9.36674 6.44369Z" fill="#FFF1DB"/>
<path d="M10.9277 2.10463C9.77525 0.952223 8.31715 0.22453 6.70756 0L6.56689 1.00362C7.95736 1.19839 9.21798 1.8287 10.2135 2.8215C11.1576 3.76561 11.7771 4.95859 12.0016 6.2706L12.9998 6.10018C12.7374 4.57987 12.0206 3.20023 10.9277 2.10463Z" fill="#FFF1DB"/>
</g>
<defs>
<clipPath id="clip0_111_953">
<rect width="13" height="13" fill="white"/>
</clipPath>
</defs>
</svg>
