<svg width="40" height="40" viewBox="0 0 40 40" fill="none" xmlns="http://www.w3.org/2000/svg">
<g clip-path="url(#clip0_111_1450)">
<path d="M20.0001 30.0076C16.6981 30.0076 13.6678 29.5187 11.2942 28.7036C11.6357 30.0543 12.2772 31.0758 13.0683 31.4027C14.8537 32.1406 17.3005 32.5956 20.0001 32.5956C22.6996 32.5956 25.1464 32.1406 26.9318 31.4027C27.7229 31.0758 28.3645 30.0543 28.706 28.7036C26.3324 29.5187 23.302 30.0076 20.0001 30.0076Z" fill="url(#paint0_linear_111_1450)"/>
<path d="M40 17.2504C40 11.6915 0 11.6915 0 17.2504C0 22.8093 4.70016 30.9608 20 30.9608C35.2998 30.9608 40 22.8093 40 17.2504Z" fill="url(#paint1_linear_111_1450)"/>
<path d="M40 17.2504C40 22.8093 0 22.8093 0 17.2504C0 11.6915 40 11.6915 40 17.2504Z" fill="url(#paint2_linear_111_1450)"/>
<path d="M34.4314 13.2222C34.4314 19.1611 6.63647 19.1611 6.63647 13.2222C6.63647 12.1982 7.46322 11.3509 8.83098 10.6801C9.32785 10.4364 9.78612 10.0409 10.1693 9.5045L10.2104 9.44701C11.0435 8.28074 12.2497 7.95344 13.2993 8.60882L13.3001 8.60929C14.1968 9.16921 15.2191 9.01862 16.0273 8.20764L16.1042 8.13046C16.9954 7.23619 18.1414 7.16286 19.0795 7.93995L19.1511 7.99933C20.0127 8.71305 21.0558 8.71321 21.9175 7.99964L21.9897 7.93988C22.9278 7.16293 24.0739 7.23658 24.9651 8.13101L25.0584 8.22458C25.862 9.03117 26.8798 9.17556 27.7688 8.60921C28.8108 7.94537 30.0136 8.26513 30.843 9.42638L30.8988 9.5045C31.2819 10.0409 31.7402 10.4365 32.2369 10.6801C33.6047 11.3509 34.4314 12.1982 34.4314 13.2222Z" fill="url(#paint3_linear_111_1450)"/>
<path d="M30.0795 11.1299C29.2787 11.1299 28.6296 11.779 28.6296 12.5798C28.6296 13.3805 29.2787 14.0296 30.0795 14.0296C30.8802 14.0296 31.5294 13.3805 31.5294 12.5798C31.5294 11.779 30.8802 11.1299 30.0795 11.1299ZM30.0795 13.1952C29.7396 13.1952 29.4641 12.9197 29.4641 12.5798C29.4641 12.2398 29.7396 11.9643 30.0795 11.9643C30.4194 11.9643 30.695 12.2398 30.695 12.5798C30.695 12.9197 30.4194 13.1952 30.0795 13.1952Z" fill="url(#paint4_linear_111_1450)"/>
<path d="M18.9169 8.34656C18.1161 8.34656 17.467 8.99566 17.467 9.79644C17.467 10.5972 18.1161 11.2463 18.9169 11.2463C19.7176 11.2463 20.3668 10.5972 20.3668 9.79644C20.3668 8.99566 19.7177 8.34656 18.9169 8.34656ZM18.9169 10.4118C18.577 10.4118 18.3015 10.1363 18.3015 9.79636C18.3015 9.45644 18.577 9.18091 18.9169 9.18091C19.2568 9.18091 19.5324 9.45644 19.5324 9.79636C19.5324 10.1363 19.2568 10.4118 18.9169 10.4118Z" fill="url(#paint5_linear_111_1450)"/>
<path d="M27.3701 16.4282C28.8664 16.4282 30.0795 15.2152 30.0795 13.7188C30.0795 12.2224 28.8664 11.0094 27.3701 11.0094C25.8737 11.0094 24.6606 12.2224 24.6606 13.7188C24.6606 15.2152 25.8737 16.4282 27.3701 16.4282Z" fill="url(#paint6_linear_111_1450)"/>
<path d="M26.6073 17.2742L18.2739 8.93644C17.7524 8.41487 17.1324 8.20915 16.4811 7.97644C16.3485 8.06899 16.2281 8.00609 16.1041 8.13048L16.0273 8.20766C15.219 9.01864 14.1967 9.16922 13.3001 8.6093L13.2993 8.60883C12.9677 8.40185 12.699 8.41354 12.353 8.39809C12.0617 8.58373 11.7993 8.75856 11.5449 9.01291C9.66131 10.8965 9.56899 13.8742 11.4526 15.7579L12.6627 16.968C16.7484 17.7957 22.1876 17.8979 26.6073 17.2742Z" fill="url(#paint7_linear_111_1450)"/>
<path d="M38.3484 17.2504C38.3484 21.3471 1.65161 21.3471 1.65161 17.2504C1.65161 13.1537 38.3484 13.1537 38.3484 17.2504Z" fill="url(#paint8_linear_111_1450)"/>
<path d="M0.501221 20.4712C0.75777 21.3004 1.11934 22.1411 1.60044 22.9673C8.48052 25.9697 31.5192 25.9697 38.3993 22.9673C38.8804 22.1411 39.2419 21.3004 39.4985 20.4712C34.1891 24.278 5.81079 24.278 0.501221 20.4712Z" fill="url(#paint9_linear_111_1450)"/>
<path d="M38.3287 17.0908C38.2903 17.3621 38.1907 17.6257 38.037 17.8806C37.4438 18.4566 36.0369 18.9308 34.104 19.3031C33.0498 19.5061 31.8391 19.2867 30.5187 19.429C29.3214 19.5581 28.0338 20.0544 26.6909 20.1337C24.6294 20.2552 22.4374 20.3181 20.2409 20.3221C18.2958 20.3268 14.0997 19.5629 14.0605 19.1927C13.9593 18.2398 14.5985 17.3747 15.7272 16.6241C15.8519 16.5417 15.9727 16.446 16.0872 16.3378C16.3499 16.0908 16.5852 15.7786 16.7813 15.4068L16.8111 15.3496C17.1146 14.7747 17.5178 14.3825 17.9672 14.1943C18.3538 14.0327 18.7742 14.0233 19.1946 14.1802C19.2723 14.2092 19.3499 14.2437 19.4268 14.2845L19.4276 14.2853C20.048 14.61 20.6911 14.5653 21.237 14.1841C21.4283 14.0508 21.608 13.8751 21.7703 13.6602L21.8299 13.5809C22.5209 12.6664 23.5146 12.4923 24.4103 13.1292L24.4785 13.1778C25.3013 13.7629 26.2127 13.6672 26.895 12.9237L26.9523 12.8609C27.695 12.0515 28.7036 12.0147 29.5695 12.7653L29.6605 12.8437C30.4417 13.5206 31.3444 13.5613 32.066 12.9519C32.4072 12.6641 32.7868 12.5221 33.1734 12.5221C33.7444 12.5221 34.3311 12.8304 34.8315 13.4296L34.8872 13.497C35.2746 13.9606 35.7138 14.2868 36.1719 14.468C37.4323 14.966 38.2378 15.679 38.3381 16.6319C38.3546 16.7872 38.3515 16.9409 38.3287 17.0908Z" fill="url(#paint10_linear_111_1450)"/>
<path d="M18.2739 8.93639C16.3903 7.05278 13.3362 7.05278 11.4525 8.93639C9.56884 10.82 9.56892 13.874 11.4525 15.7577C13.3361 17.6413 16.3902 17.6413 18.2739 15.7577C20.1575 13.8741 20.1575 10.8201 18.2739 8.93639ZM12.6974 14.5129C11.5014 13.3169 11.5014 11.3773 12.6974 10.1813C13.8934 8.98525 15.8326 8.98572 17.0286 10.1817C18.2246 11.3777 18.2251 13.3169 17.0291 14.5129C15.8331 15.7089 13.8934 15.7089 12.6974 14.5129Z" fill="url(#paint11_linear_111_1450)"/>
<path d="M12.0263 15.1842C13.5929 16.7509 16.1337 16.7509 17.7004 15.1842C19.2675 13.6171 19.267 11.0767 17.7004 9.51007C16.1332 7.94293 13.5934 7.94293 12.0263 9.51007C10.4596 11.0767 10.4591 13.6171 12.0263 15.1842ZM17.0292 10.1812C18.2252 11.3772 18.2252 13.3169 17.0292 14.5129C15.8332 15.7089 13.8939 15.7084 12.6979 14.5124C11.5019 13.3164 11.5015 11.3772 12.6975 10.1812C13.8935 8.98521 15.8332 8.98521 17.0292 10.1812Z" fill="url(#paint12_linear_111_1450)"/>
<path d="M36.7026 11.1975C35.1959 9.69084 32.7531 9.69084 31.2465 11.1975C29.7398 12.7042 29.7398 15.147 31.2465 16.6537C32.7531 18.1603 35.1959 18.1603 36.7026 16.6537C38.2093 15.147 38.2093 12.7042 36.7026 11.1975ZM32.2421 15.658C31.2855 14.7013 31.2855 13.1498 32.2421 12.1932C33.1988 11.2366 34.7499 11.237 35.7065 12.1936C36.6632 13.1502 36.6636 14.7013 35.7069 15.658C34.7503 16.6146 33.1988 16.6146 32.2421 15.658Z" fill="url(#paint13_linear_111_1450)"/>
<path d="M31.7054 16.1948C32.9584 17.4479 34.9908 17.4479 36.2439 16.1948C37.4974 14.9413 37.497 12.9094 36.2439 11.6563C34.9904 10.4028 32.9588 10.4028 31.7054 11.6563C30.4523 12.9094 30.4519 14.9413 31.7054 16.1948ZM35.707 12.1932C36.6636 13.1498 36.6636 14.7013 35.707 15.658C34.7504 16.6146 33.1992 16.6142 32.2426 15.6576C31.286 14.7009 31.2856 13.1498 32.2422 12.1932C33.1988 11.2365 34.7504 11.2365 35.707 12.1932Z" fill="url(#paint14_linear_111_1450)"/>
<path d="M22.9864 9.79624C23.1936 9.78957 23.3563 9.61624 23.3496 9.40895C23.3429 9.20173 23.1696 9.03906 22.9623 9.04573C22.7551 9.0524 22.5924 9.22573 22.5991 9.43302C22.6057 9.64024 22.7792 9.80291 22.9864 9.79624Z" fill="url(#paint15_linear_111_1450)"/>
<path d="M21.243 10.4993C21.2399 10.4006 21.1574 10.3232 21.0587 10.3264C20.96 10.3295 20.8827 10.412 20.8858 10.5107C20.889 10.6094 20.9716 10.6867 21.0701 10.6836C21.1688 10.6804 21.2462 10.5978 21.243 10.4993Z" fill="url(#paint16_linear_111_1450)"/>
<path d="M23.5545 10.4047C23.5079 10.3177 23.3996 10.2849 23.3126 10.3315C23.2257 10.3781 23.1929 10.4864 23.2395 10.5734C23.286 10.6604 23.3944 10.6931 23.4813 10.6466C23.5683 10.6 23.6011 10.4917 23.5545 10.4047Z" fill="url(#paint17_linear_111_1450)"/>
<path d="M24.9969 9.71205C24.9503 9.62507 24.842 9.59228 24.755 9.63887C24.668 9.68546 24.6353 9.79377 24.6818 9.88075C24.7284 9.96773 24.8367 10.0005 24.9237 9.95393C25.0107 9.90734 25.0435 9.79903 24.9969 9.71205Z" fill="url(#paint18_linear_111_1450)"/>
<path d="M21.342 11.0013C21.2382 10.8886 21.0627 10.8813 20.95 10.985C20.8372 11.0888 20.8299 11.2642 20.9336 11.377C21.0374 11.4898 21.2129 11.4971 21.3256 11.3933C21.4384 11.2896 21.4457 11.1141 21.342 11.0013Z" fill="url(#paint19_linear_111_1450)"/>
<path d="M22.2506 9.79767C22.1687 9.70865 22.0301 9.70285 21.9411 9.78481C21.8521 9.86669 21.8463 10.0053 21.9282 10.0943C22.0101 10.1833 22.1487 10.1891 22.2377 10.1072C22.3267 10.0253 22.3325 9.88669 22.2506 9.79767Z" fill="url(#paint20_linear_111_1450)"/>
<path d="M24.1954 9.01447C24.1135 8.92545 23.9749 8.91964 23.8859 9.0016C23.7969 9.08349 23.7911 9.22207 23.8731 9.31109C23.9549 9.40011 24.0935 9.40592 24.1826 9.32396C24.2715 9.24207 24.2773 9.10349 24.1954 9.01447Z" fill="url(#paint21_linear_111_1450)"/>
<path d="M22.5564 10.3645C22.6057 10.4182 22.6893 10.4217 22.743 10.3723C22.7966 10.3229 22.8002 10.2394 22.7507 10.1857C22.7013 10.1321 22.6178 10.1285 22.5642 10.1779C22.5104 10.2274 22.507 10.3109 22.5564 10.3645Z" fill="url(#paint22_linear_111_1450)"/>
<path d="M23.9191 10.7773C22.3103 9.16848 19.7018 9.16848 18.0931 10.7773C16.4843 12.3861 16.4843 14.9945 18.0931 16.6033C19.7018 18.2121 22.3103 18.2121 23.9191 16.6033C25.5279 14.9945 25.5279 12.3861 23.9191 10.7773ZM19.1562 15.5401C18.1347 14.5186 18.1347 12.8619 19.1562 11.8404C20.1777 10.8189 21.834 10.8193 22.8555 11.8408C23.877 12.8623 23.8774 14.5186 22.8559 15.5401C21.8344 16.5616 20.1777 16.5616 19.1562 15.5401Z" fill="url(#paint23_linear_111_1450)"/>
<path d="M18.5831 16.1134C19.9211 17.4514 22.0912 17.4514 23.4292 16.1134C24.7677 14.775 24.7673 12.6052 23.4292 11.2672C22.0907 9.92868 19.9215 9.92868 18.5831 11.2672C17.245 12.6052 17.2445 14.775 18.5831 16.1134ZM22.856 11.8404C23.8775 12.8619 23.8775 14.5186 22.856 15.5401C21.8345 16.5616 20.1782 16.5612 19.1567 15.5397C18.1352 14.5182 18.1348 12.8619 19.1563 11.8404C20.1778 10.819 21.8345 10.819 22.856 11.8404Z" fill="url(#paint24_linear_111_1450)"/>
<path d="M16.6464 16.7055C15.9335 19.2721 6.63878 16.6906 7.35172 14.1239C8.06466 11.5572 10.7232 10.0545 13.2898 10.7674C15.8565 11.4802 17.3593 14.1388 16.6464 16.7055Z" fill="url(#paint25_linear_111_1450)"/>
<path d="M33.5258 10.1228C31.6422 8.23918 28.5882 8.23918 26.7045 10.1228C24.8208 12.0064 24.8209 15.0604 26.7045 16.9441C28.5881 18.8277 31.6421 18.8277 33.5258 16.9441C35.4095 15.0605 35.4095 12.0064 33.5258 10.1228ZM27.9493 15.6993C26.7533 14.5033 26.7533 12.5636 27.9493 11.3676C29.1453 10.1716 31.0846 10.172 32.2806 11.368C33.4766 12.564 33.477 14.5033 32.281 15.6993C31.085 16.8953 29.1453 16.8953 27.9493 15.6993Z" fill="url(#paint26_linear_111_1450)"/>
<path d="M27.2782 16.3705C28.8449 17.9371 31.3857 17.9371 32.9523 16.3705C34.5195 14.8033 34.519 12.263 32.9523 10.6963C31.3852 9.12921 28.8453 9.12921 27.2782 10.6963C25.7115 12.263 25.7111 14.8033 27.2782 16.3705ZM32.2811 11.3676C33.4771 12.5636 33.4771 14.5033 32.2811 15.6993C31.0851 16.8953 29.1459 16.8948 27.9499 15.6988C26.7539 14.5028 26.7534 12.5636 27.9494 11.3676C29.1454 10.1716 31.0851 10.1716 32.2811 11.3676Z" fill="url(#paint27_linear_111_1450)"/>
<path d="M9.44956 11.3284C7.8418 9.72062 5.23498 9.72062 3.62721 11.3284C2.01945 12.9361 2.01945 15.543 3.62721 17.1507C5.23498 18.7585 7.8418 18.7585 9.44956 17.1507C11.0573 15.543 11.0573 12.9361 9.44956 11.3284ZM4.68972 16.0882C3.66886 15.0674 3.66886 13.4118 4.68972 12.3909C5.71058 11.37 7.3658 11.3704 8.38666 12.3913C9.40753 13.4121 9.40792 15.0674 8.38705 16.0882C7.36619 17.1091 5.7105 17.1091 4.68972 16.0882Z" fill="url(#paint28_linear_111_1450)"/>
<path d="M4.11683 16.6612C5.45401 17.9984 7.62279 17.9984 8.95997 16.6612C10.2976 15.3235 10.2971 13.1552 8.95997 11.8181C7.62232 10.4804 5.4544 10.4804 4.11683 11.8181C2.77965 13.1552 2.77918 15.3235 4.11683 16.6612ZM8.3871 12.3909C9.40797 13.4118 9.40797 15.0674 8.3871 16.0883C7.36624 17.1091 5.71102 17.1087 4.69016 16.0879C3.6693 15.067 3.66891 13.4118 4.68977 12.3909C5.71063 11.3701 7.36624 11.3701 8.3871 12.3909Z" fill="url(#paint29_linear_111_1450)"/>
<path d="M38.3287 17.0908C38.2903 17.3621 38.1907 17.6257 38.037 17.8806C37.4432 18.4573 36.0338 18.9319 34.0976 19.3042C32.9821 19.5188 31.6918 19.2289 30.2819 19.3756C29.1517 19.4933 27.9446 20.0597 26.6891 20.1337C24.6282 20.2553 22.4368 20.318 20.2409 20.3221C18.2958 20.3268 14.0997 19.5629 14.0605 19.1927C13.9593 18.2398 14.5985 17.3747 15.7272 16.6241C15.8519 16.5417 15.9727 16.446 16.0872 16.3378C16.3499 16.0908 16.5852 15.7786 16.7813 15.4068L16.8111 15.3496C17.1146 14.7747 17.5178 14.3825 17.9672 14.1943C18.3538 14.0327 18.7742 14.0233 19.1946 14.1802C19.2723 14.2092 19.3499 14.2437 19.4268 14.2845L19.4276 14.2853C20.048 14.61 20.6911 14.5653 21.237 14.1841C21.4283 14.0508 21.608 13.8751 21.7703 13.6602L21.8299 13.5809C22.5209 12.6664 23.5146 12.4923 24.4103 13.1292L24.4785 13.1778C25.3013 13.7629 26.2127 13.6672 26.895 12.9237L26.9523 12.8609C27.695 12.0515 28.7036 12.0147 29.5695 12.7653L29.6605 12.8437C30.4417 13.5206 31.3444 13.5613 32.066 12.9519C32.4072 12.6641 32.7868 12.5221 33.1734 12.5221C33.7444 12.5221 34.3311 12.8304 34.8315 13.4296L34.8872 13.497C35.2746 13.9606 35.7138 14.2868 36.1719 14.468C37.4323 14.966 38.2378 15.679 38.3381 16.6319C38.3546 16.7872 38.3515 16.9409 38.3287 17.0908Z" fill="url(#paint30_linear_111_1450)"/>
<path d="M20.0608 20.2314C20.0928 20.2716 20.1011 20.2821 20.1331 20.3223C22.3617 20.3202 24.5875 20.2575 26.6794 20.1344C27.9885 20.0573 29.2451 19.6429 30.4169 19.5184C31.7744 19.3742 33.018 19.512 34.0979 19.3043C36.0338 18.9319 37.4431 18.4573 38.0368 17.8807C38.1905 17.6258 38.2901 17.3622 38.3286 17.0909C38.3513 16.941 38.3544 16.7873 38.338 16.632C38.3343 16.5967 38.3296 16.5617 38.3239 16.527C38.1941 15.7321 37.5123 15.1641 36.7127 15.0677C36.3391 15.0227 35.9624 14.8473 35.6104 14.5423L35.5194 14.4639C34.6535 13.7133 33.6449 13.7501 32.9021 14.5596L32.8449 14.6223C32.1625 15.3658 31.2511 15.4615 30.4284 14.8764L30.3602 14.8278C29.4645 14.1909 28.4708 14.365 27.7798 15.2796L27.7202 15.3588C27.5578 15.5737 27.3782 15.7494 27.1868 15.8827C26.6409 16.2639 25.9978 16.3086 25.3774 15.9839L25.3766 15.9831C25.2998 15.9423 25.2221 15.9078 25.1445 15.8788C24.7241 15.7219 24.3037 15.7313 23.917 15.8929C23.4676 16.0811 23.0645 16.4733 22.7609 17.0482L22.7311 17.1054C22.5351 17.4772 22.2998 17.7894 22.037 18.0364C21.9225 18.1447 21.8017 18.2403 21.677 18.3227C20.815 18.896 20.2398 19.5363 20.0608 20.2314Z" fill="url(#paint31_linear_111_1450)"/>
<path d="M31.1415 19.6463C29.7452 19.814 28.3438 19.9285 26.6829 20.1339C24.6239 20.2551 22.4347 20.3178 20.2409 20.3222C18.2958 20.3269 14.0997 19.563 14.0605 19.1928C13.9593 18.2398 14.5985 17.3747 15.7272 16.6241C15.8519 16.5418 15.9727 16.4461 16.0872 16.3379C16.3499 16.0908 16.5852 15.7787 16.7813 15.4069L16.8111 15.3496C17.1146 14.7747 17.5178 14.3826 17.9672 14.1943C18.3538 14.0328 18.7742 14.0234 19.1946 14.1802C19.2723 14.2092 19.3499 14.2437 19.4268 14.2845L19.4276 14.2853C20.048 14.61 20.6911 14.5653 21.237 14.1841C21.4283 14.0508 21.608 13.8751 21.7703 13.6602L21.8299 13.581C22.5209 12.6665 23.5146 12.4924 24.4103 13.1292L24.4785 13.1779C24.6229 13.2806 24.7695 13.3622 24.9178 13.4226L31.1415 19.6463Z" fill="url(#paint32_linear_111_1450)"/>
<path d="M25.0378 15.5522C24.237 15.5522 23.5879 16.2013 23.5879 17.0021C23.5879 17.8029 24.237 18.452 25.0378 18.452C25.8385 18.452 26.4877 17.8029 26.4877 17.0021C26.4877 16.2013 25.8386 15.5522 25.0378 15.5522ZM25.0378 17.6176C24.6979 17.6176 24.4223 17.3421 24.4223 17.0021C24.4223 16.6622 24.6979 16.3867 25.0378 16.3867C25.3777 16.3867 25.6532 16.6622 25.6532 17.0021C25.6532 17.3421 25.3777 17.6176 25.0378 17.6176Z" fill="url(#paint33_linear_111_1450)"/>
<path d="M32.6845 16.0956C31.8837 16.0956 31.2346 16.7447 31.2346 17.5455C31.2346 18.3462 31.8837 18.9953 32.6845 18.9953C33.4852 18.9953 34.1344 18.3462 34.1344 17.5455C34.1344 16.7447 33.4852 16.0956 32.6845 16.0956ZM32.6845 18.1609C32.3446 18.1609 32.0691 17.8854 32.0691 17.5455C32.0691 17.2055 32.3446 16.93 32.6845 16.93C33.0244 16.93 33.3 17.2055 33.3 17.5455C33.3 17.8854 33.0244 18.1609 32.6845 18.1609Z" fill="url(#paint34_linear_111_1450)"/>
<path d="M24.683 12.1603C24.8145 12.0901 24.8642 11.9265 24.794 11.795C24.7239 11.6635 24.5603 11.6137 24.4288 11.6839C24.2973 11.7541 24.2475 11.9177 24.3177 12.0492C24.3879 12.1807 24.5515 12.2305 24.683 12.1603Z" fill="url(#paint35_linear_111_1450)"/>
<path d="M23.8871 11.7553C23.8316 11.6515 23.7025 11.6122 23.5987 11.6676C23.4948 11.7231 23.4555 11.8522 23.511 11.956C23.5664 12.0598 23.6955 12.0991 23.7994 12.0437C23.9032 11.9882 23.9424 11.8591 23.8871 11.7553Z" fill="url(#paint36_linear_111_1450)"/>
<path d="M23.4604 12.8079C23.427 12.7453 23.3492 12.7216 23.2865 12.755C23.2239 12.7884 23.2003 12.8662 23.2337 12.9289C23.2671 12.9916 23.3449 13.0152 23.4076 12.9818C23.4701 12.9483 23.4938 12.8705 23.4604 12.8079Z" fill="url(#paint37_linear_111_1450)"/>
<path d="M24.7903 14.1316C24.6691 14.0448 24.5004 14.0728 24.4137 14.1941C24.3269 14.3154 24.3549 14.484 24.4762 14.5707C24.5975 14.6575 24.7661 14.6295 24.8528 14.5082C24.9396 14.387 24.9116 14.2183 24.7903 14.1316Z" fill="url(#paint38_linear_111_1450)"/>
<path d="M27.0224 13.3324C26.9267 13.2639 26.7936 13.286 26.7251 13.3817C26.6566 13.4775 26.6787 13.6106 26.7744 13.6791C26.8702 13.7475 27.0033 13.7255 27.0718 13.6297C27.1402 13.534 27.1181 13.4009 27.0224 13.3324Z" fill="url(#paint39_linear_111_1450)"/>
<path d="M25.3349 12.2933C25.2772 12.252 25.1969 12.2653 25.1556 12.323C25.1143 12.3808 25.1276 12.461 25.1853 12.5023C25.243 12.5436 25.3233 12.5303 25.3646 12.4726C25.4059 12.4149 25.3926 12.3346 25.3349 12.2933Z" fill="url(#paint40_linear_111_1450)"/>
<path d="M24.3648 12.9745C24.262 12.9348 24.1465 12.9859 24.1068 13.0887C24.067 13.1914 24.1181 13.3069 24.2209 13.3467C24.3236 13.3865 24.4391 13.3353 24.4789 13.2326C24.5187 13.1298 24.4675 13.0142 24.3648 12.9745Z" fill="url(#paint41_linear_111_1450)"/>
<path d="M24.8613 12.6373C24.7802 12.606 24.689 12.6464 24.6576 12.7275C24.6262 12.8086 24.6666 12.8998 24.7477 12.9311C24.8288 12.9625 24.92 12.9221 24.9514 12.841C24.9828 12.7599 24.9424 12.6687 24.8613 12.6373Z" fill="url(#paint42_linear_111_1450)"/>
<path d="M24.1579 12.5353C24.2069 12.5542 24.2618 12.5299 24.2807 12.4809C24.2996 12.432 24.2753 12.377 24.2264 12.3581C24.1774 12.3392 24.1225 12.3635 24.1036 12.4124C24.0847 12.4614 24.1091 12.5164 24.1579 12.5353Z" fill="url(#paint43_linear_111_1450)"/>
<path d="M29.2797 14.295C29.4112 14.2248 29.4609 14.0613 29.3907 13.9298C29.3205 13.7982 29.157 13.7485 29.0255 13.8187C28.8939 13.8889 28.8442 14.0524 28.9144 14.184C28.9845 14.3155 29.1481 14.3652 29.2797 14.295Z" fill="url(#paint44_linear_111_1450)"/>
<path d="M26.8985 15.4906C26.8431 15.3868 26.714 15.3475 26.6102 15.403C26.5063 15.4584 26.467 15.5875 26.5225 15.6914C26.5779 15.7952 26.707 15.8345 26.8109 15.779C26.9147 15.7236 26.954 15.5945 26.8985 15.4906Z" fill="url(#paint45_linear_111_1450)"/>
<path d="M27.2739 14.3296C27.2405 14.267 27.1627 14.2433 27.1 14.2768C27.0374 14.3102 27.0137 14.388 27.0471 14.4506C27.0805 14.5132 27.1584 14.5369 27.221 14.5035C27.2836 14.4701 27.3073 14.3923 27.2739 14.3296Z" fill="url(#paint46_linear_111_1450)"/>
<path d="M30.2957 15.4187C30.1744 15.332 30.0058 15.36 29.9191 15.4812C29.8323 15.6025 29.8603 15.7711 29.9816 15.8578C30.1028 15.9446 30.2715 15.9166 30.3582 15.7953C30.4449 15.6741 30.417 15.5054 30.2957 15.4187Z" fill="url(#paint47_linear_111_1450)"/>
<path d="M30.4724 15.1031C30.5409 15.0074 30.5188 14.8743 30.4231 14.8058C30.3273 14.7373 30.1942 14.7594 30.1257 14.8551C30.0573 14.9509 30.0793 15.084 30.1751 15.1525C30.2708 15.2209 30.4039 15.1988 30.4724 15.1031Z" fill="url(#paint48_linear_111_1450)"/>
<path d="M29.9316 14.428C29.8738 14.3868 29.7936 14.4 29.7523 14.4578C29.711 14.5155 29.7243 14.5957 29.782 14.6371C29.8397 14.6783 29.9199 14.6651 29.9613 14.6073C30.0025 14.5496 29.9892 14.4694 29.9316 14.428Z" fill="url(#paint49_linear_111_1450)"/>
<path d="M27.9241 15.3245C27.8214 15.2848 27.7058 15.3359 27.6661 15.4386C27.6263 15.5414 27.6774 15.6569 27.7802 15.6967C27.8829 15.7364 27.9985 15.6853 28.0382 15.5826C28.078 15.4798 28.0269 15.3643 27.9241 15.3245Z" fill="url(#paint50_linear_111_1450)"/>
<path d="M29.458 14.7721C29.3769 14.7407 29.2857 14.7811 29.2543 14.8622C29.2229 14.9433 29.2633 15.0346 29.3444 15.0659C29.4255 15.0973 29.5167 15.0569 29.5481 14.9758C29.5794 14.8947 29.5391 14.8035 29.458 14.7721Z" fill="url(#paint51_linear_111_1450)"/>
<path d="M28.7549 14.67C28.8038 14.6889 28.8588 14.6646 28.8777 14.6157C28.8966 14.5667 28.8723 14.5118 28.8233 14.4929C28.7744 14.474 28.7194 14.4983 28.7005 14.5472C28.6816 14.5962 28.7059 14.6511 28.7549 14.67Z" fill="url(#paint52_linear_111_1450)"/>
<path d="M23.1567 19.0388C21.6322 20.5633 19.1634 20.5662 17.6424 19.0453C16.1215 17.5243 16.1245 15.0556 17.6489 13.531C19.1734 12.0065 22.8054 10.8404 24.3264 12.3614C25.8473 13.8823 24.6813 17.5142 23.1567 19.0388Z" fill="url(#paint53_linear_111_1450)"/>
<path d="M17.4918 18.8853C18.8665 20.0986 21.0965 19.923 22.5687 18.4507C24.0185 17.001 25.2625 13.7649 24.2127 12.2827C24.1803 12.2369 24.1403 12.1967 24.0953 12.1632C22.4647 10.9526 19.1011 12.0789 17.649 13.531C16.1767 15.0032 16.124 17.3559 17.4918 18.8853Z" fill="url(#paint54_linear_111_1450)"/>
<path d="M19.6578 18.2967C20.866 18.2967 21.8454 17.3173 21.8454 16.1091C21.8454 14.9009 20.866 13.9215 19.6578 13.9215C18.4496 13.9215 17.4702 14.9009 17.4702 16.1091C17.4702 17.3173 18.4496 18.2967 19.6578 18.2967Z" fill="url(#paint55_linear_111_1450)"/>
<path d="M20.2408 20.3222C19.0903 20.325 17.9386 20.3113 16.8038 20.2815C16.5238 20.2741 16.2449 19.7167 15.9672 19.7074C15.6368 19.6964 15.3084 20.2329 14.9821 20.219C14.8149 20.212 14.6483 20.2045 14.4824 20.1967C7.76554 19.8782 2.13574 18.9629 1.68162 17.45C1.66829 17.3622 1.65966 17.2735 1.65574 17.1857C1.63927 16.8657 1.68241 16.5457 1.79143 16.2288C2.12476 15.2602 2.95849 14.6508 4.09966 14.3339C4.51378 14.2186 4.95143 13.9512 5.38515 13.5331L5.43143 13.4876C6.37339 12.5778 7.29339 12.5488 7.78751 13.4124V13.4131C8.21025 14.1512 8.94829 14.2461 9.7577 13.6665L9.83457 13.6116C10.7271 12.9724 11.524 13.1692 11.9028 14.1222L11.9318 14.1951C11.9687 14.2869 12.0095 14.3724 12.0534 14.45C12.4299 15.1135 13.0699 15.2625 13.7977 14.8375L13.8659 14.7975C14.7514 14.2806 15.5004 14.6163 15.8103 15.6696L15.8424 15.7794C15.9059 15.9959 15.9883 16.1825 16.0871 16.3378C16.4204 16.8633 16.9397 17.0273 17.5452 16.7731C17.7334 16.6939 17.913 16.6555 18.0808 16.6555C18.7318 16.6555 19.2079 17.2335 19.3514 18.2602L19.364 18.3465C19.4471 18.9433 19.6275 19.4233 19.8832 19.7692C20.0189 19.952 20.1381 20.1371 20.2408 20.3222Z" fill="url(#paint56_linear_111_1450)"/>
<path d="M33.4079 17.9686C32.77 17.3017 31.8092 16.9747 30.8426 17.1896C29.5233 17.4828 28.642 18.6857 28.7102 19.9918C28.7109 19.9918 28.7115 19.9918 28.7121 19.9917C28.7251 19.9906 30.5945 19.6133 31.476 19.5021C32.3915 19.3866 33.3262 19.4524 34.094 19.3048C34.279 19.2692 34.4593 19.2327 34.6345 19.1952L33.4079 17.9686Z" fill="url(#paint57_linear_111_1450)"/>
<path d="M34.0975 19.2606C33.7706 17.7899 32.3133 16.8626 30.8426 17.1895C29.5233 17.4827 28.642 18.6856 28.7102 19.9917C30.7402 19.8251 32.5848 19.5954 34.1044 19.3027C34.1023 19.2887 34.1007 19.2747 34.0975 19.2606Z" fill="url(#paint58_linear_111_1450)"/>
<path d="M30.2936 19.6504C30.2936 18.6345 29.47 17.8109 28.454 17.8109C27.438 17.8109 26.6145 18.6345 26.6145 19.6504C26.6145 19.8178 26.6373 19.9799 26.6791 20.134C27.9394 20.0598 29.1492 19.9632 30.2832 19.8452C30.29 19.7811 30.2936 19.7162 30.2936 19.6504Z" fill="url(#paint59_linear_111_1450)"/>
<path d="M15.4788 17.7706C14.7604 17.0522 13.8645 16.7133 12.9474 16.549C11.46 16.2826 9.88925 16.6394 8.72399 17.8046C8.19709 18.3315 7.75144 18.9159 7.51929 19.5748C7.57615 19.5831 7.63466 19.5909 7.69207 19.5991C7.69199 19.5992 7.69191 19.5994 7.69191 19.5995C9.67003 19.88 12.0019 20.0791 14.4824 20.1967C14.6468 20.2045 14.8119 20.2119 14.9776 20.2189C15.3087 20.233 15.6422 19.8534 15.9776 19.8646C16.2511 19.8738 16.526 20.2741 16.8017 20.2813C17.2036 20.2919 17.6075 20.3004 18.0129 20.3069L15.4788 17.7706Z" fill="url(#paint60_linear_111_1450)"/>
<path d="M8.216 15.5522C7.41521 15.5522 6.76611 16.2013 6.76611 17.0021C6.76611 17.8029 7.41521 18.452 8.216 18.452C9.0167 18.452 9.66588 17.8029 9.66588 17.0021C9.66588 16.2013 9.01678 15.5522 8.216 15.5522ZM8.216 17.6176C7.87607 17.6176 7.60054 17.3421 7.60054 17.0021C7.60054 16.6622 7.87607 16.3867 8.216 16.3867C8.55592 16.3867 8.83145 16.6622 8.83145 17.0021C8.83145 17.3421 8.55592 17.6176 8.216 17.6176Z" fill="url(#paint61_linear_111_1450)"/>
<path d="M15.4787 17.7705C13.595 15.8869 10.541 15.8869 8.65732 17.7705C8.13042 18.2974 7.7512 18.9159 7.51904 19.5747C8.09394 19.6584 8.69983 19.7352 9.33167 19.8049C9.47489 19.5202 9.66445 19.2529 9.9021 19.0153C11.0981 17.8193 13.0373 17.8197 14.2333 19.0157C14.583 19.3654 14.8505 19.7011 14.9957 20.1406C15.3241 20.1546 15.6339 20.2448 15.9663 20.2559C16.2452 20.2652 16.5253 20.2736 16.8066 20.281C16.6328 19.3613 16.1905 18.4823 15.4787 17.7705Z" fill="url(#paint62_linear_111_1450)"/>
<path d="M14.9051 18.3442C13.3379 16.777 10.7981 16.777 9.23096 18.3442C8.83496 18.7402 8.53935 19.1985 8.34351 19.6875C8.66492 19.7287 8.9948 19.7679 9.33174 19.805C9.47488 19.5203 9.66453 19.253 9.90217 19.0154C11.0982 17.8194 13.0379 17.8194 14.2339 19.0154C14.5836 19.3651 14.8303 19.7786 14.9754 20.2183C15.3056 20.2323 15.6377 20.2452 15.9721 20.2564C15.8068 19.5556 15.4515 18.8906 14.9051 18.3442Z" fill="url(#paint63_linear_111_1450)"/>
<path d="M12.8017 11.8864C12.8529 11.7464 12.781 11.5914 12.6409 11.5401C12.5009 11.4889 12.3459 11.5608 12.2946 11.7009C12.2434 11.8409 12.3153 11.9959 12.4554 12.0471C12.5954 12.0984 12.7505 12.0265 12.8017 11.8864Z" fill="url(#paint64_linear_111_1450)"/>
<path d="M11.9386 12.1153C11.828 12.0749 11.7056 12.1317 11.6651 12.2422C11.6247 12.3527 11.6815 12.4752 11.792 12.5157C11.9026 12.5561 12.025 12.4993 12.0655 12.3887C12.1059 12.2782 12.0491 12.1557 11.9386 12.1153Z" fill="url(#paint65_linear_111_1450)"/>
<path d="M12.3224 13.1841C12.2557 13.1597 12.1819 13.194 12.1575 13.2607C12.1331 13.3273 12.1674 13.4011 12.234 13.4255C12.3006 13.4499 12.3745 13.4157 12.3989 13.3491C12.4232 13.2823 12.389 13.2085 12.3224 13.1841Z" fill="url(#paint66_linear_111_1450)"/>
<path d="M14.196 13.2841C14.0478 13.3003 13.9407 13.4336 13.9569 13.5818C13.9731 13.7301 14.1064 13.8371 14.2547 13.8209C14.4029 13.8047 14.51 13.6714 14.4937 13.5232C14.4775 13.3749 14.3442 13.2679 14.196 13.2841Z" fill="url(#paint67_linear_111_1450)"/>
<path d="M15.3269 11.2004C15.2099 11.2132 15.1255 11.3183 15.1382 11.4354C15.151 11.5524 15.2562 11.6368 15.3732 11.6241C15.4902 11.6113 15.5747 11.506 15.5619 11.3891C15.5491 11.2721 15.444 11.1876 15.3269 11.2004Z" fill="url(#paint68_linear_111_1450)"/>
<path d="M13.3763 11.5509C13.3057 11.5586 13.2548 11.6221 13.2625 11.6927C13.2702 11.7632 13.3336 11.8142 13.4042 11.8065C13.4747 11.7988 13.5257 11.7353 13.518 11.6647C13.5103 11.5942 13.4468 11.5433 13.3763 11.5509Z" fill="url(#paint69_linear_111_1450)"/>
<path d="M13.1076 12.7054C13.0046 12.7443 12.9525 12.8594 12.9915 12.9625C13.0304 13.0656 13.1455 13.1176 13.2486 13.0787C13.3516 13.0398 13.4037 12.9247 13.3648 12.8216C13.3259 12.7186 13.2107 12.6665 13.1076 12.7054Z" fill="url(#paint70_linear_111_1450)"/>
<path d="M13.2526 12.1232C13.1712 12.154 13.1301 12.2448 13.1608 12.3262C13.1915 12.4076 13.2824 12.4486 13.3638 12.418C13.4452 12.3872 13.4862 12.2964 13.4555 12.215C13.4249 12.1336 13.334 12.0925 13.2526 12.1232Z" fill="url(#paint71_linear_111_1450)"/>
<path d="M12.6605 12.5159C12.7096 12.4974 12.7343 12.4426 12.7158 12.3936C12.6973 12.3445 12.6424 12.3198 12.5934 12.3383C12.5443 12.3568 12.5196 12.4116 12.5381 12.4607C12.5566 12.5097 12.6114 12.5345 12.6605 12.5159Z" fill="url(#paint72_linear_111_1450)"/>
<path d="M17.6511 10.4129C17.7023 10.2729 17.6304 10.1179 17.4903 10.0666C17.3503 10.0153 17.1952 10.0873 17.144 10.2273C17.0927 10.3673 17.1647 10.5224 17.3047 10.5737C17.4448 10.6249 17.5999 10.553 17.6511 10.4129Z" fill="url(#paint73_linear_111_1450)"/>
<path d="M16.6734 12.8915C16.5629 12.851 16.4405 12.9079 16.4 13.0184C16.3595 13.1289 16.4164 13.2513 16.5269 13.2918C16.6374 13.3322 16.7598 13.2754 16.8003 13.1649C16.8407 13.0544 16.7839 12.9319 16.6734 12.8915Z" fill="url(#paint74_linear_111_1450)"/>
<path d="M16.1793 11.7759C16.1126 11.7515 16.0388 11.7858 16.0145 11.8525C15.9901 11.9191 16.0243 11.9929 16.0909 12.0173C16.1576 12.0417 16.2314 12.0074 16.2558 11.9408C16.2802 11.874 16.2459 11.8002 16.1793 11.7759Z" fill="url(#paint75_linear_111_1450)"/>
<path d="M19.1574 10.5729C19.0092 10.5891 18.9021 10.7224 18.9184 10.8706C18.9345 11.0189 19.0679 11.1259 19.2161 11.1097C19.3643 11.0935 19.4714 10.9602 19.4552 10.812C19.4389 10.6637 19.3057 10.5567 19.1574 10.5729Z" fill="url(#paint76_linear_111_1450)"/>
<path d="M19.0788 10.22C19.066 10.103 18.9607 10.0185 18.8438 10.0313C18.7268 10.0441 18.6423 10.1493 18.6551 10.2663C18.6679 10.3833 18.773 10.4678 18.8901 10.455C19.0071 10.4423 19.0916 10.337 19.0788 10.22Z" fill="url(#paint77_linear_111_1450)"/>
<path d="M18.2257 10.0774C18.1551 10.0851 18.1042 10.1486 18.1119 10.2192C18.1195 10.2897 18.183 10.3406 18.2536 10.333C18.3241 10.3253 18.3751 10.2618 18.3674 10.1912C18.3596 10.1206 18.2962 10.0697 18.2257 10.0774Z" fill="url(#paint78_linear_111_1450)"/>
<path d="M17.3271 12.0838C17.2241 12.1227 17.172 12.2379 17.2109 12.3409C17.2498 12.444 17.3649 12.4961 17.468 12.4572C17.5711 12.4183 17.6231 12.3031 17.5841 12.2001C17.5453 12.097 17.4302 12.0449 17.3271 12.0838Z" fill="url(#paint79_linear_111_1450)"/>
<path d="M18.1022 10.6496C18.0208 10.6804 17.9797 10.7712 18.0104 10.8526C18.0412 10.934 18.132 10.975 18.2134 10.9444C18.2948 10.9136 18.3358 10.8228 18.3052 10.7414C18.2744 10.66 18.1835 10.6189 18.1022 10.6496Z" fill="url(#paint80_linear_111_1450)"/>
<path d="M17.5098 11.0423C17.5589 11.0238 17.5836 10.969 17.5651 10.92C17.5466 10.8709 17.4918 10.8462 17.4428 10.8647C17.3937 10.8832 17.369 10.938 17.3875 10.987C17.406 11.036 17.4608 11.0608 17.5098 11.0423Z" fill="url(#paint81_linear_111_1450)"/>
</g>
<defs>
<linearGradient id="paint0_linear_111_1450" x1="20.0824" y1="30.0622" x2="20.2289" y2="32.478" gradientUnits="userSpaceOnUse">
<stop stop-color="#F8F6FB"/>
<stop offset="1" stop-color="#EFDCFB"/>
</linearGradient>
<linearGradient id="paint1_linear_111_1450" x1="16.9435" y1="14.2037" x2="27.6333" y2="30.1293" gradientUnits="userSpaceOnUse">
<stop stop-color="#F8F6FB"/>
<stop offset="1" stop-color="#EFDCFB"/>
</linearGradient>
<linearGradient id="paint2_linear_111_1450" x1="17.5704" y1="7.44173" x2="20.3939" y2="18.8405" gradientUnits="userSpaceOnUse">
<stop stop-color="#F8F6FB"/>
<stop offset="1" stop-color="#EFDCFB"/>
</linearGradient>
<linearGradient id="paint3_linear_111_1450" x1="20.5339" y1="7.70521" x2="20.5339" y2="13.2774" gradientUnits="userSpaceOnUse">
<stop stop-color="#BADA00"/>
<stop offset="0.2269" stop-color="#B0CE00"/>
<stop offset="0.6378" stop-color="#95AE00"/>
<stop offset="1" stop-color="#798C00"/>
</linearGradient>
<linearGradient id="paint4_linear_111_1450" x1="29.3233" y1="11.0674" x2="30.186" y2="12.7929" gradientUnits="userSpaceOnUse">
<stop stop-color="#8A7889"/>
<stop offset="0.3344" stop-color="#867385"/>
<stop offset="0.7039" stop-color="#7B667B"/>
<stop offset="1" stop-color="#6E566E"/>
</linearGradient>
<linearGradient id="paint5_linear_111_1450" x1="18.1608" y1="8.28405" x2="19.0235" y2="10.0095" gradientUnits="userSpaceOnUse">
<stop stop-color="#8A7889"/>
<stop offset="0.3344" stop-color="#867385"/>
<stop offset="0.7039" stop-color="#7B667B"/>
<stop offset="1" stop-color="#6E566E"/>
</linearGradient>
<linearGradient id="paint6_linear_111_1450" x1="27.3701" y1="11.031" x2="27.3701" y2="13.9322" gradientUnits="userSpaceOnUse">
<stop stop-color="#F8F6FB"/>
<stop offset="1" stop-color="#EFDCFB"/>
</linearGradient>
<linearGradient id="paint7_linear_111_1450" x1="18.4134" y1="15.4662" x2="16.9406" y2="6.81048" gradientUnits="userSpaceOnUse">
<stop stop-color="#798C00" stop-opacity="0"/>
<stop offset="0.6542" stop-color="#556100" stop-opacity="0.654"/>
<stop offset="1" stop-color="#464F00"/>
</linearGradient>
<linearGradient id="paint8_linear_111_1450" x1="20" y1="25.1014" x2="20" y2="-3.26047" gradientUnits="userSpaceOnUse">
<stop stop-color="#EFDCFB" stop-opacity="0"/>
<stop offset="0.0287" stop-color="#E9D6F7" stop-opacity="0.029"/>
<stop offset="0.2203" stop-color="#C5B5DE" stop-opacity="0.22"/>
<stop offset="0.4138" stop-color="#AA9BCB" stop-opacity="0.414"/>
<stop offset="0.6078" stop-color="#9688BD" stop-opacity="0.608"/>
<stop offset="0.8028" stop-color="#8A7DB5" stop-opacity="0.803"/>
<stop offset="1" stop-color="#8679B2"/>
</linearGradient>
<linearGradient id="paint9_linear_111_1450" x1="26.6457" y1="25.7833" x2="29.8908" y2="27.9467" gradientUnits="userSpaceOnUse">
<stop stop-color="#FF6359"/>
<stop offset="0.2243" stop-color="#FE5B50"/>
<stop offset="0.5952" stop-color="#FC4637"/>
<stop offset="1" stop-color="#F82814"/>
</linearGradient>
<linearGradient id="paint10_linear_111_1450" x1="25.8935" y1="14.334" x2="26.4144" y2="20.4289" gradientUnits="userSpaceOnUse">
<stop stop-color="#BADA00"/>
<stop offset="0.2269" stop-color="#B0CE00"/>
<stop offset="0.6378" stop-color="#95AE00"/>
<stop offset="1" stop-color="#798C00"/>
</linearGradient>
<linearGradient id="paint11_linear_111_1450" x1="16.2943" y1="8.18641" x2="14.3734" y2="13.7924" gradientUnits="userSpaceOnUse">
<stop stop-color="#FFD945"/>
<stop offset="0.3126" stop-color="#FFD643"/>
<stop offset="0.5593" stop-color="#FFCC3D"/>
<stop offset="0.7826" stop-color="#FFBB33"/>
<stop offset="0.9922" stop-color="#FFA426"/>
<stop offset="1" stop-color="#FFA325"/>
</linearGradient>
<linearGradient id="paint12_linear_111_1450" x1="13.6893" y1="15.8208" x2="15.2872" y2="11.1576" gradientUnits="userSpaceOnUse">
<stop stop-color="#FFD945"/>
<stop offset="0.3126" stop-color="#FFD643"/>
<stop offset="0.5593" stop-color="#FFCC3D"/>
<stop offset="0.7826" stop-color="#FFBB33"/>
<stop offset="0.9922" stop-color="#FFA426"/>
<stop offset="1" stop-color="#FFA325"/>
</linearGradient>
<linearGradient id="paint13_linear_111_1450" x1="32.4294" y1="10.7697" x2="34.5141" y2="15.0277" gradientUnits="userSpaceOnUse">
<stop stop-color="#FF6359"/>
<stop offset="0.2243" stop-color="#FE5B50"/>
<stop offset="0.5952" stop-color="#FC4637"/>
<stop offset="1" stop-color="#F82814"/>
</linearGradient>
<linearGradient id="paint14_linear_111_1450" x1="37.7595" y1="17.7104" x2="32.8168" y2="12.7678" gradientUnits="userSpaceOnUse">
<stop stop-color="#FF6359"/>
<stop offset="0.2243" stop-color="#FE5B50"/>
<stop offset="0.5952" stop-color="#FC4637"/>
<stop offset="1" stop-color="#F82814"/>
</linearGradient>
<linearGradient id="paint15_linear_111_1450" x1="23.2221" y1="8.9178" x2="22.2734" y2="10.4216" gradientUnits="userSpaceOnUse">
<stop stop-color="#FF6359"/>
<stop offset="0.2243" stop-color="#FE5B50"/>
<stop offset="0.5952" stop-color="#FC4637"/>
<stop offset="1" stop-color="#F82814"/>
</linearGradient>
<linearGradient id="paint16_linear_111_1450" x1="21.1516" y1="10.2562" x2="20.7" y2="10.972" gradientUnits="userSpaceOnUse">
<stop stop-color="#FF6359"/>
<stop offset="0.2243" stop-color="#FE5B50"/>
<stop offset="0.5952" stop-color="#FC4637"/>
<stop offset="1" stop-color="#F82814"/>
</linearGradient>
<linearGradient id="paint17_linear_111_1450" x1="23.4853" y1="10.2398" x2="23.0338" y2="10.9556" gradientUnits="userSpaceOnUse">
<stop stop-color="#FF6359"/>
<stop offset="0.2243" stop-color="#FE5B50"/>
<stop offset="0.5952" stop-color="#FC4637"/>
<stop offset="1" stop-color="#F82814"/>
</linearGradient>
<linearGradient id="paint18_linear_111_1450" x1="24.9283" y1="9.54633" x2="24.4767" y2="10.2622" gradientUnits="userSpaceOnUse">
<stop stop-color="#FF6359"/>
<stop offset="0.2243" stop-color="#FE5B50"/>
<stop offset="0.5952" stop-color="#FC4637"/>
<stop offset="1" stop-color="#F82814"/>
</linearGradient>
<linearGradient id="paint19_linear_111_1450" x1="21.3054" y1="10.8135" x2="20.6043" y2="11.925" gradientUnits="userSpaceOnUse">
<stop stop-color="#FF6359"/>
<stop offset="0.2243" stop-color="#FE5B50"/>
<stop offset="0.5952" stop-color="#FC4637"/>
<stop offset="1" stop-color="#F82814"/>
</linearGradient>
<linearGradient id="paint20_linear_111_1450" x1="22.2097" y1="9.64479" x2="21.6562" y2="10.5221" gradientUnits="userSpaceOnUse">
<stop stop-color="#FF6359"/>
<stop offset="0.2243" stop-color="#FE5B50"/>
<stop offset="0.5952" stop-color="#FC4637"/>
<stop offset="1" stop-color="#F82814"/>
</linearGradient>
<linearGradient id="paint21_linear_111_1450" x1="24.1554" y1="8.86067" x2="23.6018" y2="9.73802" gradientUnits="userSpaceOnUse">
<stop stop-color="#FF6359"/>
<stop offset="0.2243" stop-color="#FE5B50"/>
<stop offset="0.5952" stop-color="#FC4637"/>
<stop offset="1" stop-color="#F82814"/>
</linearGradient>
<linearGradient id="paint22_linear_111_1450" x1="22.7035" y1="10.086" x2="22.3698" y2="10.615" gradientUnits="userSpaceOnUse">
<stop stop-color="#FF6359"/>
<stop offset="0.2243" stop-color="#FE5B50"/>
<stop offset="0.5952" stop-color="#FC4637"/>
<stop offset="1" stop-color="#F82814"/>
</linearGradient>
<linearGradient id="paint23_linear_111_1450" x1="22.2285" y1="10.1356" x2="20.5878" y2="14.9237" gradientUnits="userSpaceOnUse">
<stop stop-color="#FFD945"/>
<stop offset="0.3126" stop-color="#FFD643"/>
<stop offset="0.5593" stop-color="#FFCC3D"/>
<stop offset="0.7826" stop-color="#FFBB33"/>
<stop offset="0.9922" stop-color="#FFA426"/>
<stop offset="1" stop-color="#FFA325"/>
</linearGradient>
<linearGradient id="paint24_linear_111_1450" x1="20.0041" y1="16.6595" x2="21.3688" y2="12.6767" gradientUnits="userSpaceOnUse">
<stop stop-color="#FFD945"/>
<stop offset="0.3126" stop-color="#FFD643"/>
<stop offset="0.5593" stop-color="#FFCC3D"/>
<stop offset="0.7826" stop-color="#FFBB33"/>
<stop offset="0.9922" stop-color="#FFA426"/>
<stop offset="1" stop-color="#FFA325"/>
</linearGradient>
<linearGradient id="paint25_linear_111_1450" x1="11.3462" y1="10.9468" x2="12.2074" y2="15.5711" gradientUnits="userSpaceOnUse">
<stop stop-color="#FF6359"/>
<stop offset="0.2243" stop-color="#FE5B50"/>
<stop offset="0.5952" stop-color="#FC4637"/>
<stop offset="1" stop-color="#F82814"/>
</linearGradient>
<linearGradient id="paint26_linear_111_1450" x1="31.544" y1="9.37261" x2="29.623" y2="14.9786" gradientUnits="userSpaceOnUse">
<stop stop-color="#FFDECF"/>
<stop offset="0.3791" stop-color="#FDC4B0"/>
<stop offset="0.7655" stop-color="#FBAE97"/>
<stop offset="1" stop-color="#FAA68E"/>
</linearGradient>
<linearGradient id="paint27_linear_111_1450" x1="28.939" y1="17.0069" x2="30.5369" y2="12.3437" gradientUnits="userSpaceOnUse">
<stop stop-color="#FFDECF"/>
<stop offset="0.3791" stop-color="#FDC4B0"/>
<stop offset="0.7655" stop-color="#FBAE97"/>
<stop offset="1" stop-color="#FAA68E"/>
</linearGradient>
<linearGradient id="paint28_linear_111_1450" x1="7.76225" y1="10.6871" x2="6.12262" y2="15.4721" gradientUnits="userSpaceOnUse">
<stop stop-color="#FFDECF"/>
<stop offset="0.3791" stop-color="#FDC4B0"/>
<stop offset="0.7655" stop-color="#FBAE97"/>
<stop offset="1" stop-color="#FAA68E"/>
</linearGradient>
<linearGradient id="paint29_linear_111_1450" x1="5.53912" y1="17.2068" x2="6.90299" y2="13.2265" gradientUnits="userSpaceOnUse">
<stop stop-color="#FFDECF"/>
<stop offset="0.3791" stop-color="#FDC4B0"/>
<stop offset="0.7655" stop-color="#FBAE97"/>
<stop offset="1" stop-color="#FAA68E"/>
</linearGradient>
<linearGradient id="paint30_linear_111_1450" x1="25.8934" y1="14.3339" x2="26.4144" y2="20.4282" gradientUnits="userSpaceOnUse">
<stop stop-color="#BADA00"/>
<stop offset="0.2269" stop-color="#B0CE00"/>
<stop offset="0.6378" stop-color="#95AE00"/>
<stop offset="1" stop-color="#798C00"/>
</linearGradient>
<linearGradient id="paint31_linear_111_1450" x1="29.1774" y1="17.4024" x2="28.9421" y2="7.7292" gradientUnits="userSpaceOnUse">
<stop stop-color="#798C00" stop-opacity="0"/>
<stop offset="0.6542" stop-color="#556100" stop-opacity="0.654"/>
<stop offset="1" stop-color="#464F00"/>
</linearGradient>
<linearGradient id="paint32_linear_111_1450" x1="25.6211" y1="21.1325" x2="17.6936" y2="14.915" gradientUnits="userSpaceOnUse">
<stop stop-color="#798C00" stop-opacity="0"/>
<stop offset="0.6542" stop-color="#556100" stop-opacity="0.654"/>
<stop offset="1" stop-color="#464F00"/>
</linearGradient>
<linearGradient id="paint33_linear_111_1450" x1="24.2816" y1="15.4897" x2="25.1444" y2="17.2152" gradientUnits="userSpaceOnUse">
<stop stop-color="#8A7889"/>
<stop offset="0.3344" stop-color="#867385"/>
<stop offset="0.7039" stop-color="#7B667B"/>
<stop offset="1" stop-color="#6E566E"/>
</linearGradient>
<linearGradient id="paint34_linear_111_1450" x1="31.9283" y1="16.0331" x2="32.7911" y2="17.7586" gradientUnits="userSpaceOnUse">
<stop stop-color="#8A7889"/>
<stop offset="0.3344" stop-color="#867385"/>
<stop offset="0.7039" stop-color="#7B667B"/>
<stop offset="1" stop-color="#6E566E"/>
</linearGradient>
<linearGradient id="paint35_linear_111_1450" x1="24.5419" y1="11.4922" x2="24.4076" y2="12.7629" gradientUnits="userSpaceOnUse">
<stop stop-color="#FFDECF"/>
<stop offset="0.3791" stop-color="#FDC4B0"/>
<stop offset="0.7655" stop-color="#FBAE97"/>
<stop offset="1" stop-color="#FAA68E"/>
</linearGradient>
<linearGradient id="paint36_linear_111_1450" x1="23.676" y1="11.5114" x2="23.5699" y2="12.5145" gradientUnits="userSpaceOnUse">
<stop stop-color="#FFDECF"/>
<stop offset="0.3791" stop-color="#FDC4B0"/>
<stop offset="0.7655" stop-color="#FBAE97"/>
<stop offset="1" stop-color="#FAA68E"/>
</linearGradient>
<linearGradient id="paint37_linear_111_1450" x1="23.3101" y1="12.652" x2="23.2461" y2="13.2569" gradientUnits="userSpaceOnUse">
<stop stop-color="#FFDECF"/>
<stop offset="0.3791" stop-color="#FDC4B0"/>
<stop offset="0.7655" stop-color="#FBAE97"/>
<stop offset="1" stop-color="#FAA68E"/>
</linearGradient>
<linearGradient id="paint38_linear_111_1450" x1="24.6182" y1="13.9211" x2="24.4838" y2="15.192" gradientUnits="userSpaceOnUse">
<stop stop-color="#FFDECF"/>
<stop offset="0.3791" stop-color="#FDC4B0"/>
<stop offset="0.7655" stop-color="#FBAE97"/>
<stop offset="1" stop-color="#FAA68E"/>
</linearGradient>
<linearGradient id="paint39_linear_111_1450" x1="26.8745" y1="13.1627" x2="26.7685" y2="14.166" gradientUnits="userSpaceOnUse">
<stop stop-color="#FFDECF"/>
<stop offset="0.3791" stop-color="#FDC4B0"/>
<stop offset="0.7655" stop-color="#FBAE97"/>
<stop offset="1" stop-color="#FAA68E"/>
</linearGradient>
<linearGradient id="paint40_linear_111_1450" x1="25.2233" y1="12.1824" x2="25.1593" y2="12.7872" gradientUnits="userSpaceOnUse">
<stop stop-color="#FFDECF"/>
<stop offset="0.3791" stop-color="#FDC4B0"/>
<stop offset="0.7655" stop-color="#FBAE97"/>
<stop offset="1" stop-color="#FAA68E"/>
</linearGradient>
<linearGradient id="paint41_linear_111_1450" x1="24.2671" y1="12.8371" x2="24.1678" y2="13.7763" gradientUnits="userSpaceOnUse">
<stop stop-color="#FFDECF"/>
<stop offset="0.3791" stop-color="#FDC4B0"/>
<stop offset="0.7655" stop-color="#FBAE97"/>
<stop offset="1" stop-color="#FAA68E"/>
</linearGradient>
<linearGradient id="paint42_linear_111_1450" x1="24.7721" y1="12.5246" x2="24.6937" y2="13.266" gradientUnits="userSpaceOnUse">
<stop stop-color="#FFDECF"/>
<stop offset="0.3791" stop-color="#FDC4B0"/>
<stop offset="0.7655" stop-color="#FBAE97"/>
<stop offset="1" stop-color="#FAA68E"/>
</linearGradient>
<linearGradient id="paint43_linear_111_1450" x1="24.1499" y1="12.2815" x2="24.1027" y2="12.7285" gradientUnits="userSpaceOnUse">
<stop stop-color="#FFDECF"/>
<stop offset="0.3791" stop-color="#FDC4B0"/>
<stop offset="0.7655" stop-color="#FBAE97"/>
<stop offset="1" stop-color="#FAA68E"/>
</linearGradient>
<linearGradient id="paint44_linear_111_1450" x1="29.1374" y1="13.6288" x2="29.0031" y2="14.8996" gradientUnits="userSpaceOnUse">
<stop stop-color="#FFDECF"/>
<stop offset="0.3791" stop-color="#FDC4B0"/>
<stop offset="0.7655" stop-color="#FBAE97"/>
<stop offset="1" stop-color="#FAA68E"/>
</linearGradient>
<linearGradient id="paint45_linear_111_1450" x1="26.6857" y1="15.2478" x2="26.5797" y2="16.2511" gradientUnits="userSpaceOnUse">
<stop stop-color="#FFDECF"/>
<stop offset="0.3791" stop-color="#FDC4B0"/>
<stop offset="0.7655" stop-color="#FBAE97"/>
<stop offset="1" stop-color="#FAA68E"/>
</linearGradient>
<linearGradient id="paint46_linear_111_1450" x1="27.1227" y1="14.1754" x2="27.0588" y2="14.7802" gradientUnits="userSpaceOnUse">
<stop stop-color="#FFDECF"/>
<stop offset="0.3791" stop-color="#FDC4B0"/>
<stop offset="0.7655" stop-color="#FBAE97"/>
<stop offset="1" stop-color="#FAA68E"/>
</linearGradient>
<linearGradient id="paint47_linear_111_1450" x1="30.1228" y1="15.2106" x2="29.9885" y2="16.4814" gradientUnits="userSpaceOnUse">
<stop stop-color="#FFDECF"/>
<stop offset="0.3791" stop-color="#FDC4B0"/>
<stop offset="0.7655" stop-color="#FBAE97"/>
<stop offset="1" stop-color="#FAA68E"/>
</linearGradient>
<linearGradient id="paint48_linear_111_1450" x1="30.2744" y1="14.6375" x2="30.1683" y2="15.6408" gradientUnits="userSpaceOnUse">
<stop stop-color="#FFDECF"/>
<stop offset="0.3791" stop-color="#FDC4B0"/>
<stop offset="0.7655" stop-color="#FBAE97"/>
<stop offset="1" stop-color="#FAA68E"/>
</linearGradient>
<linearGradient id="paint49_linear_111_1450" x1="29.8188" y1="14.319" x2="29.7548" y2="14.9238" gradientUnits="userSpaceOnUse">
<stop stop-color="#FFDECF"/>
<stop offset="0.3791" stop-color="#FDC4B0"/>
<stop offset="0.7655" stop-color="#FBAE97"/>
<stop offset="1" stop-color="#FAA68E"/>
</linearGradient>
<linearGradient id="paint50_linear_111_1450" x1="27.8252" y1="15.1886" x2="27.726" y2="16.1277" gradientUnits="userSpaceOnUse">
<stop stop-color="#FFDECF"/>
<stop offset="0.3791" stop-color="#FDC4B0"/>
<stop offset="0.7655" stop-color="#FBAE97"/>
<stop offset="1" stop-color="#FAA68E"/>
</linearGradient>
<linearGradient id="paint51_linear_111_1450" x1="29.3677" y1="14.6613" x2="29.2893" y2="15.4027" gradientUnits="userSpaceOnUse">
<stop stop-color="#FFDECF"/>
<stop offset="0.3791" stop-color="#FDC4B0"/>
<stop offset="0.7655" stop-color="#FBAE97"/>
<stop offset="1" stop-color="#FAA68E"/>
</linearGradient>
<linearGradient id="paint52_linear_111_1450" x1="28.7457" y1="14.4182" x2="28.6985" y2="14.8652" gradientUnits="userSpaceOnUse">
<stop stop-color="#FFDECF"/>
<stop offset="0.3791" stop-color="#FDC4B0"/>
<stop offset="0.7655" stop-color="#FBAE97"/>
<stop offset="1" stop-color="#FAA68E"/>
</linearGradient>
<linearGradient id="paint53_linear_111_1450" x1="20.8755" y1="15.6783" x2="22.3559" y2="20.3534" gradientUnits="userSpaceOnUse">
<stop stop-color="#F8F6FB"/>
<stop offset="1" stop-color="#EFDCFB"/>
</linearGradient>
<linearGradient id="paint54_linear_111_1450" x1="20.7263" y1="15.8499" x2="24.804" y2="35.0694" gradientUnits="userSpaceOnUse">
<stop stop-color="#EFDCFB" stop-opacity="0"/>
<stop offset="0.0287" stop-color="#E9D6F7" stop-opacity="0.029"/>
<stop offset="0.2203" stop-color="#C5B5DE" stop-opacity="0.22"/>
<stop offset="0.4138" stop-color="#AA9BCB" stop-opacity="0.414"/>
<stop offset="0.6078" stop-color="#9688BD" stop-opacity="0.608"/>
<stop offset="0.8028" stop-color="#8A7DB5" stop-opacity="0.803"/>
<stop offset="1" stop-color="#8679B2"/>
</linearGradient>
<linearGradient id="paint55_linear_111_1450" x1="18.3343" y1="14.7455" x2="21.7627" y2="18.2777" gradientUnits="userSpaceOnUse">
<stop stop-color="#FFD945"/>
<stop offset="0.3126" stop-color="#FFD643"/>
<stop offset="0.5593" stop-color="#FFCC3D"/>
<stop offset="0.7826" stop-color="#FFBB33"/>
<stop offset="0.9922" stop-color="#FFA426"/>
<stop offset="1" stop-color="#FFA325"/>
</linearGradient>
<linearGradient id="paint56_linear_111_1450" x1="10.99" y1="16.786" x2="10.8854" y2="21.335" gradientUnits="userSpaceOnUse">
<stop stop-color="#BADA00"/>
<stop offset="0.2269" stop-color="#B0CE00"/>
<stop offset="0.6378" stop-color="#95AE00"/>
<stop offset="1" stop-color="#798C00"/>
</linearGradient>
<linearGradient id="paint57_linear_111_1450" x1="34.0753" y1="21.9959" x2="30.1404" y2="18.0611" gradientUnits="userSpaceOnUse">
<stop stop-color="#798C00" stop-opacity="0"/>
<stop offset="0.6542" stop-color="#556100" stop-opacity="0.654"/>
<stop offset="1" stop-color="#464F00"/>
</linearGradient>
<linearGradient id="paint58_linear_111_1450" x1="30.4008" y1="17.4903" x2="31.3215" y2="19.3709" gradientUnits="userSpaceOnUse">
<stop stop-color="#FF6359"/>
<stop offset="0.2243" stop-color="#FE5B50"/>
<stop offset="0.5952" stop-color="#FC4637"/>
<stop offset="1" stop-color="#F82814"/>
</linearGradient>
<linearGradient id="paint59_linear_111_1450" x1="28.0386" y1="18.4873" x2="28.7145" y2="20.3648" gradientUnits="userSpaceOnUse">
<stop stop-color="#FFA936"/>
<stop offset="0.4112" stop-color="#FF8548"/>
<stop offset="0.7781" stop-color="#FF6C54"/>
<stop offset="1" stop-color="#FF6359"/>
</linearGradient>
<linearGradient id="paint60_linear_111_1450" x1="12.7636" y1="20.3724" x2="12.7827" y2="17.0355" gradientUnits="userSpaceOnUse">
<stop stop-color="#798C00" stop-opacity="0"/>
<stop offset="0.6542" stop-color="#556100" stop-opacity="0.654"/>
<stop offset="1" stop-color="#464F00"/>
</linearGradient>
<linearGradient id="paint61_linear_111_1450" x1="7.45984" y1="15.4897" x2="8.32258" y2="17.2152" gradientUnits="userSpaceOnUse">
<stop stop-color="#8A7889"/>
<stop offset="0.3344" stop-color="#867385"/>
<stop offset="0.7039" stop-color="#7B667B"/>
<stop offset="1" stop-color="#6E566E"/>
</linearGradient>
<linearGradient id="paint62_linear_111_1450" x1="10.7156" y1="16.7752" x2="12.3631" y2="20.1405" gradientUnits="userSpaceOnUse">
<stop stop-color="#FFDECF"/>
<stop offset="0.3791" stop-color="#FDC4B0"/>
<stop offset="0.7655" stop-color="#FBAE97"/>
<stop offset="1" stop-color="#FAA68E"/>
</linearGradient>
<linearGradient id="paint63_linear_111_1450" x1="13.3332" y1="20.7247" x2="9.18986" y2="16.5814" gradientUnits="userSpaceOnUse">
<stop stop-color="#FFDECF"/>
<stop offset="0.3791" stop-color="#FDC4B0"/>
<stop offset="0.7655" stop-color="#FBAE97"/>
<stop offset="1" stop-color="#FAA68E"/>
</linearGradient>
<linearGradient id="paint64_linear_111_1450" x1="12.3078" y1="11.4603" x2="13.0554" y2="12.4967" gradientUnits="userSpaceOnUse">
<stop stop-color="#FFDECF"/>
<stop offset="0.3791" stop-color="#FDC4B0"/>
<stop offset="0.7655" stop-color="#FBAE97"/>
<stop offset="1" stop-color="#FAA68E"/>
</linearGradient>
<linearGradient id="paint65_linear_111_1450" x1="11.6755" y1="12.0523" x2="12.2656" y2="12.8705" gradientUnits="userSpaceOnUse">
<stop stop-color="#FFDECF"/>
<stop offset="0.3791" stop-color="#FDC4B0"/>
<stop offset="0.7655" stop-color="#FBAE97"/>
<stop offset="1" stop-color="#FAA68E"/>
</linearGradient>
<linearGradient id="paint66_linear_111_1450" x1="12.1637" y1="13.1462" x2="12.5196" y2="13.6394" gradientUnits="userSpaceOnUse">
<stop stop-color="#FFDECF"/>
<stop offset="0.3791" stop-color="#FDC4B0"/>
<stop offset="0.7655" stop-color="#FBAE97"/>
<stop offset="1" stop-color="#FAA68E"/>
</linearGradient>
<linearGradient id="paint67_linear_111_1450" x1="13.9849" y1="13.2191" x2="14.7325" y2="14.2556" gradientUnits="userSpaceOnUse">
<stop stop-color="#FFDECF"/>
<stop offset="0.3791" stop-color="#FDC4B0"/>
<stop offset="0.7655" stop-color="#FBAE97"/>
<stop offset="1" stop-color="#FAA68E"/>
</linearGradient>
<linearGradient id="paint68_linear_111_1450" x1="15.1602" y1="11.1491" x2="15.7505" y2="11.9674" gradientUnits="userSpaceOnUse">
<stop stop-color="#FFDECF"/>
<stop offset="0.3791" stop-color="#FDC4B0"/>
<stop offset="0.7655" stop-color="#FBAE97"/>
<stop offset="1" stop-color="#FAA68E"/>
</linearGradient>
<linearGradient id="paint69_linear_111_1450" x1="13.2758" y1="11.52" x2="13.6316" y2="12.0133" gradientUnits="userSpaceOnUse">
<stop stop-color="#FFDECF"/>
<stop offset="0.3791" stop-color="#FDC4B0"/>
<stop offset="0.7655" stop-color="#FBAE97"/>
<stop offset="1" stop-color="#FAA68E"/>
</linearGradient>
<linearGradient id="paint70_linear_111_1450" x1="13.0003" y1="12.6457" x2="13.5528" y2="13.4117" gradientUnits="userSpaceOnUse">
<stop stop-color="#FFDECF"/>
<stop offset="0.3791" stop-color="#FDC4B0"/>
<stop offset="0.7655" stop-color="#FBAE97"/>
<stop offset="1" stop-color="#FAA68E"/>
</linearGradient>
<linearGradient id="paint71_linear_111_1450" x1="13.1679" y1="12.0761" x2="13.6041" y2="12.6808" gradientUnits="userSpaceOnUse">
<stop stop-color="#FFDECF"/>
<stop offset="0.3791" stop-color="#FDC4B0"/>
<stop offset="0.7655" stop-color="#FBAE97"/>
<stop offset="1" stop-color="#FAA68E"/>
</linearGradient>
<linearGradient id="paint72_linear_111_1450" x1="12.5424" y1="12.3098" x2="12.8053" y2="12.6744" gradientUnits="userSpaceOnUse">
<stop stop-color="#FFDECF"/>
<stop offset="0.3791" stop-color="#FDC4B0"/>
<stop offset="0.7655" stop-color="#FBAE97"/>
<stop offset="1" stop-color="#FAA68E"/>
</linearGradient>
<linearGradient id="paint73_linear_111_1450" x1="17.1571" y1="9.98679" x2="17.9047" y2="11.0232" gradientUnits="userSpaceOnUse">
<stop stop-color="#FFDECF"/>
<stop offset="0.3791" stop-color="#FDC4B0"/>
<stop offset="0.7655" stop-color="#FBAE97"/>
<stop offset="1" stop-color="#FAA68E"/>
</linearGradient>
<linearGradient id="paint74_linear_111_1450" x1="16.4103" y1="12.8285" x2="17.0005" y2="13.6467" gradientUnits="userSpaceOnUse">
<stop stop-color="#FFDECF"/>
<stop offset="0.3791" stop-color="#FDC4B0"/>
<stop offset="0.7655" stop-color="#FBAE97"/>
<stop offset="1" stop-color="#FAA68E"/>
</linearGradient>
<linearGradient id="paint75_linear_111_1450" x1="16.0207" y1="11.7379" x2="16.3765" y2="12.2311" gradientUnits="userSpaceOnUse">
<stop stop-color="#FFDECF"/>
<stop offset="0.3791" stop-color="#FDC4B0"/>
<stop offset="0.7655" stop-color="#FBAE97"/>
<stop offset="1" stop-color="#FAA68E"/>
</linearGradient>
<linearGradient id="paint76_linear_111_1450" x1="18.9463" y1="10.5079" x2="19.6939" y2="11.5444" gradientUnits="userSpaceOnUse">
<stop stop-color="#FFDECF"/>
<stop offset="0.3791" stop-color="#FDC4B0"/>
<stop offset="0.7655" stop-color="#FBAE97"/>
<stop offset="1" stop-color="#FAA68E"/>
</linearGradient>
<linearGradient id="paint77_linear_111_1450" x1="18.677" y1="9.98001" x2="19.2673" y2="10.7982" gradientUnits="userSpaceOnUse">
<stop stop-color="#FFDECF"/>
<stop offset="0.3791" stop-color="#FDC4B0"/>
<stop offset="0.7655" stop-color="#FBAE97"/>
<stop offset="1" stop-color="#FAA68E"/>
</linearGradient>
<linearGradient id="paint78_linear_111_1450" x1="18.1252" y1="10.0465" x2="18.481" y2="10.5398" gradientUnits="userSpaceOnUse">
<stop stop-color="#FFDECF"/>
<stop offset="0.3791" stop-color="#FDC4B0"/>
<stop offset="0.7655" stop-color="#FBAE97"/>
<stop offset="1" stop-color="#FAA68E"/>
</linearGradient>
<linearGradient id="paint79_linear_111_1450" x1="17.2198" y1="12.0241" x2="17.7723" y2="12.7901" gradientUnits="userSpaceOnUse">
<stop stop-color="#FFDECF"/>
<stop offset="0.3791" stop-color="#FDC4B0"/>
<stop offset="0.7655" stop-color="#FBAE97"/>
<stop offset="1" stop-color="#FAA68E"/>
</linearGradient>
<linearGradient id="paint80_linear_111_1450" x1="18.0175" y1="10.6025" x2="18.4536" y2="11.2071" gradientUnits="userSpaceOnUse">
<stop stop-color="#FFDECF"/>
<stop offset="0.3791" stop-color="#FDC4B0"/>
<stop offset="0.7655" stop-color="#FBAE97"/>
<stop offset="1" stop-color="#FAA68E"/>
</linearGradient>
<linearGradient id="paint81_linear_111_1450" x1="17.3917" y1="10.8362" x2="17.6547" y2="11.2007" gradientUnits="userSpaceOnUse">
<stop stop-color="#FFDECF"/>
<stop offset="0.3791" stop-color="#FDC4B0"/>
<stop offset="0.7655" stop-color="#FBAE97"/>
<stop offset="1" stop-color="#FAA68E"/>
</linearGradient>
<clipPath id="clip0_111_1450">
<rect width="40" height="40" fill="white"/>
</clipPath>
</defs>
</svg>
